G04*
G04 #@! TF.GenerationSoftware,Altium Limited,Altium Designer,24.10.1 (45)*
G04*
G04 Layer_Color=8388736*
%FSLAX25Y25*%
%MOIN*%
G70*
G04*
G04 #@! TF.SameCoordinates,1F7DBCF5-7643-4606-9888-D8ADD4ED05EF*
G04*
G04*
G04 #@! TF.FilePolarity,Negative*
G04*
G01*
G75*
%ADD54R,0.02400X0.00900*%
%ADD56R,0.07099X0.04934*%
%ADD57R,0.03261X0.04068*%
%ADD58R,0.02769X0.03162*%
%ADD59R,0.04934X0.07099*%
%ADD60R,0.06902X0.03162*%
%ADD61R,0.07887X0.05524*%
%ADD62O,0.03950X0.09461*%
%ADD63R,0.04540X0.04147*%
%ADD64O,0.09461X0.03950*%
%ADD65R,0.03162X0.03320*%
%ADD66R,0.04737X0.04343*%
%ADD67R,0.03320X0.03162*%
%ADD68R,0.03162X0.02769*%
%ADD69R,0.11430X0.09461*%
%ADD70R,0.02375X0.02178*%
%ADD71R,0.05524X0.05524*%
%ADD72R,0.05524X0.05524*%
%ADD73R,0.04343X0.03950*%
%ADD74R,0.03950X0.03950*%
%ADD75R,0.04737X0.05524*%
%ADD76O,0.06299X0.08268*%
%ADD77O,0.08268X0.06299*%
G04:AMPARAMS|DCode=78|XSize=35.56mil|YSize=78.87mil|CornerRadius=8.13mil|HoleSize=0mil|Usage=FLASHONLY|Rotation=90.000|XOffset=0mil|YOffset=0mil|HoleType=Round|Shape=RoundedRectangle|*
%AMROUNDEDRECTD78*
21,1,0.03556,0.06260,0,0,90.0*
21,1,0.01929,0.07887,0,0,90.0*
1,1,0.01627,0.03130,0.00965*
1,1,0.01627,0.03130,-0.00965*
1,1,0.01627,-0.03130,-0.00965*
1,1,0.01627,-0.03130,0.00965*
%
%ADD78ROUNDEDRECTD78*%
G04:AMPARAMS|DCode=79|XSize=70.99mil|YSize=86.74mil|CornerRadius=19.75mil|HoleSize=0mil|Usage=FLASHONLY|Rotation=90.000|XOffset=0mil|YOffset=0mil|HoleType=Round|Shape=RoundedRectangle|*
%AMROUNDEDRECTD79*
21,1,0.07099,0.04724,0,0,90.0*
21,1,0.03150,0.08674,0,0,90.0*
1,1,0.03950,0.02362,0.01575*
1,1,0.03950,0.02362,-0.01575*
1,1,0.03950,-0.02362,-0.01575*
1,1,0.03950,-0.02362,0.01575*
%
%ADD79ROUNDEDRECTD79*%
%ADD80R,0.03556X0.03162*%
%ADD81R,0.04343X0.04737*%
%ADD82O,0.03162X0.01784*%
%ADD83O,0.04737X0.01587*%
%ADD84R,0.03162X0.07887*%
%ADD85R,0.05524X0.04737*%
%ADD86R,0.08280X0.08280*%
%ADD87R,0.07887X0.08280*%
%ADD88R,0.02375X0.06115*%
%ADD89R,0.02756X0.05118*%
G04:AMPARAMS|DCode=90|XSize=57.21mil|YSize=31.23mil|CornerRadius=6.9mil|HoleSize=0mil|Usage=FLASHONLY|Rotation=270.000|XOffset=0mil|YOffset=0mil|HoleType=Round|Shape=RoundedRectangle|*
%AMROUNDEDRECTD90*
21,1,0.05721,0.01742,0,0,270.0*
21,1,0.04341,0.03123,0,0,270.0*
1,1,0.01381,-0.00871,-0.02170*
1,1,0.01381,-0.00871,0.02170*
1,1,0.01381,0.00871,0.02170*
1,1,0.01381,0.00871,-0.02170*
%
%ADD90ROUNDEDRECTD90*%
%ADD91C,0.03556*%
%ADD92C,0.12205*%
%ADD93C,0.02375*%
%ADD94C,0.03162*%
D54*
X37996Y76771D02*
D03*
Y78740D02*
D03*
Y80709D02*
D03*
X31296Y80709D02*
D03*
Y76772D02*
D03*
X37802Y86220D02*
D03*
Y88189D02*
D03*
Y90158D02*
D03*
X31102Y90158D02*
D03*
Y86221D02*
D03*
X37802Y95669D02*
D03*
Y97638D02*
D03*
Y99607D02*
D03*
X31102Y99606D02*
D03*
Y95669D02*
D03*
D56*
X52800Y121893D02*
D03*
Y133507D02*
D03*
D57*
X44144Y137402D02*
D03*
X35384D02*
D03*
D58*
X35069Y105200D02*
D03*
X31132D02*
D03*
X38189Y167717D02*
D03*
X34252D02*
D03*
X67323Y132677D02*
D03*
X71260D02*
D03*
X107874Y50394D02*
D03*
X111811D02*
D03*
X22842Y67832D02*
D03*
X26779D02*
D03*
X22742Y72832D02*
D03*
X26679D02*
D03*
X26378Y137008D02*
D03*
X30315D02*
D03*
D59*
X19193Y144882D02*
D03*
X7579D02*
D03*
X19193Y119685D02*
D03*
X7579D02*
D03*
X19193Y127953D02*
D03*
X7579D02*
D03*
X19193Y136614D02*
D03*
X7579D02*
D03*
X27657Y121260D02*
D03*
X39272D02*
D03*
X27657Y130315D02*
D03*
X39272D02*
D03*
D60*
X22835Y101575D02*
D03*
Y97638D02*
D03*
Y93701D02*
D03*
Y85827D02*
D03*
Y81890D02*
D03*
Y77953D02*
D03*
Y89764D02*
D03*
Y105512D02*
D03*
D61*
X7579Y110630D02*
D03*
Y72835D02*
D03*
D62*
X58780Y141732D02*
D03*
X63779D02*
D03*
X68779D02*
D03*
X73779D02*
D03*
X58780Y164331D02*
D03*
X63779D02*
D03*
X68779D02*
D03*
X73779D02*
D03*
D63*
X48031Y168701D02*
D03*
Y163583D02*
D03*
X42520Y163583D02*
D03*
Y168701D02*
D03*
D64*
X27677Y158287D02*
D03*
Y153287D02*
D03*
Y148287D02*
D03*
Y143287D02*
D03*
X50276Y158287D02*
D03*
Y153287D02*
D03*
Y148287D02*
D03*
Y143287D02*
D03*
D65*
X34268Y163800D02*
D03*
X37732D02*
D03*
X146457Y56299D02*
D03*
X149921D02*
D03*
X146299Y52362D02*
D03*
X149764D02*
D03*
X111575Y46457D02*
D03*
X108110D02*
D03*
X79685Y26772D02*
D03*
X76221D02*
D03*
D66*
X80709Y145768D02*
D03*
Y151083D02*
D03*
X68504Y126378D02*
D03*
Y121063D02*
D03*
X54331Y105315D02*
D03*
Y100000D02*
D03*
D67*
X75600Y106668D02*
D03*
Y110132D02*
D03*
X45669Y106220D02*
D03*
Y102756D02*
D03*
X68110Y63779D02*
D03*
Y67244D02*
D03*
X64173Y63779D02*
D03*
Y67244D02*
D03*
D68*
X49606Y106299D02*
D03*
Y102362D02*
D03*
X80315Y141339D02*
D03*
Y137402D02*
D03*
X90158Y134252D02*
D03*
Y130315D02*
D03*
Y122835D02*
D03*
Y126772D02*
D03*
X98425Y54724D02*
D03*
Y58661D02*
D03*
X86614Y26378D02*
D03*
Y30315D02*
D03*
X90551Y26378D02*
D03*
Y30315D02*
D03*
X6379Y66820D02*
D03*
Y62883D02*
D03*
X11279Y66757D02*
D03*
Y62820D02*
D03*
X16379Y66788D02*
D03*
Y62851D02*
D03*
X103937Y46850D02*
D03*
Y50787D02*
D03*
X58661Y106299D02*
D03*
Y102362D02*
D03*
X59055Y110630D02*
D03*
Y114567D02*
D03*
X54331Y114567D02*
D03*
Y110630D02*
D03*
D69*
X65945Y84646D02*
D03*
X86024D02*
D03*
D70*
X58661Y99410D02*
D03*
Y96850D02*
D03*
D71*
X61417Y133189D02*
D03*
X27835Y112992D02*
D03*
D72*
X61417Y121929D02*
D03*
X39094Y112992D02*
D03*
D73*
X76378Y128740D02*
D03*
X84252Y132480D02*
D03*
Y125000D02*
D03*
D74*
X85630Y139370D02*
D03*
X91535D02*
D03*
D75*
X110236Y138976D02*
D03*
X102362D02*
D03*
X110236Y146457D02*
D03*
X102362D02*
D03*
X110236Y153937D02*
D03*
X102362D02*
D03*
X110236Y160630D02*
D03*
X102362D02*
D03*
D76*
X137795Y149016D02*
D03*
X145669D02*
D03*
D77*
X122047Y139370D02*
D03*
Y131496D02*
D03*
Y123622D02*
D03*
Y115748D02*
D03*
Y107874D02*
D03*
D78*
X150787Y41831D02*
D03*
Y31988D02*
D03*
Y46752D02*
D03*
Y36909D02*
D03*
D79*
X163779Y22736D02*
D03*
Y56004D02*
D03*
D80*
X96850Y62205D02*
D03*
X88976Y58465D02*
D03*
Y65945D02*
D03*
D81*
X104626Y66929D02*
D03*
X99311D02*
D03*
D82*
X103347Y58268D02*
D03*
Y56299D02*
D03*
Y54331D02*
D03*
D83*
X107677Y58268D02*
D03*
Y56299D02*
D03*
Y54331D02*
D03*
D84*
X112205Y56693D02*
D03*
X118504D02*
D03*
D85*
X117323Y41732D02*
D03*
Y49606D02*
D03*
X123622Y41732D02*
D03*
Y49606D02*
D03*
X80315Y161024D02*
D03*
Y168898D02*
D03*
X87008Y161024D02*
D03*
Y168898D02*
D03*
X94488Y161417D02*
D03*
Y169291D02*
D03*
D86*
X84398Y10897D02*
D03*
X93847D02*
D03*
D87*
X73375D02*
D03*
X104871D02*
D03*
D88*
X84005Y21428D02*
D03*
X94241D02*
D03*
X86564D02*
D03*
X89123D02*
D03*
X91682D02*
D03*
D89*
X85236Y36614D02*
D03*
X88976D02*
D03*
X92716D02*
D03*
X85236Y46496D02*
D03*
X88976D02*
D03*
X92716D02*
D03*
D90*
X70669Y113602D02*
D03*
X66929D02*
D03*
X63189D02*
D03*
Y103720D02*
D03*
X66929D02*
D03*
X70669D02*
D03*
D91*
X80954Y20542D02*
D03*
X97292D02*
D03*
D92*
X167717Y10630D02*
D03*
X165354Y166142D02*
D03*
X12598Y164567D02*
D03*
X12992Y13386D02*
D03*
D93*
X134547Y54823D02*
D03*
X77756Y94095D02*
D03*
X83604Y111396D02*
D03*
X35000Y67800D02*
D03*
X35200Y62900D02*
D03*
X170300Y41900D02*
D03*
X29100Y165900D02*
D03*
X153600Y147600D02*
D03*
X161000Y103100D02*
D03*
X139000Y104500D02*
D03*
X31100Y73600D02*
D03*
D94*
X50197Y114567D02*
D03*
X78642Y103051D02*
D03*
X92914Y100786D02*
D03*
X94600Y107800D02*
D03*
X49114Y78347D02*
D03*
X40800Y99400D02*
D03*
X45000Y92200D02*
D03*
X56300Y82700D02*
D03*
X47100Y94400D02*
D03*
X56600Y85500D02*
D03*
X56400Y88600D02*
D03*
X50200Y95800D02*
D03*
X40900Y86000D02*
D03*
X41300Y76600D02*
D03*
X99300Y71300D02*
D03*
X101900Y103100D02*
D03*
X88800Y108300D02*
D03*
X129000Y74000D02*
D03*
X129100Y69500D02*
D03*
X130600Y49500D02*
D03*
X164500Y137300D02*
D03*
X133000Y110200D02*
D03*
X71700Y41300D02*
D03*
Y38600D02*
D03*
X90074Y52843D02*
D03*
X86250Y52943D02*
D03*
M02*
