G04*
G04 #@! TF.GenerationSoftware,Altium Limited,Altium Designer,24.10.1 (45)*
G04*
G04 Layer_Color=65535*
%FSLAX25Y25*%
%MOIN*%
G70*
G04*
G04 #@! TF.SameCoordinates,1F7DBCF5-7643-4606-9888-D8ADD4ED05EF*
G04*
G04*
G04 #@! TF.FilePolarity,Positive*
G04*
G01*
G75*
%ADD10C,0.00787*%
%ADD11C,0.00984*%
%ADD12C,0.01968*%
%ADD13C,0.00394*%
%ADD14C,0.00600*%
%ADD15C,0.00591*%
%ADD16C,0.00472*%
%ADD17C,0.00500*%
%ADD18C,0.01000*%
%ADD19C,0.01181*%
G36*
X44476Y141287D02*
X40976D01*
Y141632D01*
X41111Y142308D01*
X41375Y142945D01*
X41758Y143518D01*
X42245Y144006D01*
X42818Y144389D01*
X43455Y144653D01*
X44132Y144787D01*
X44476D01*
D01*
Y141287D01*
D02*
G37*
G36*
X75779Y158531D02*
Y155032D01*
X75435D01*
X74759Y155166D01*
X74122Y155430D01*
X73548Y155813D01*
X73061Y156300D01*
X72678Y156874D01*
X72414Y157511D01*
X72280Y158187D01*
Y158531D01*
D01*
X75779D01*
D02*
G37*
D10*
X72280D02*
G03*
X75779Y155032I3500J0D01*
G01*
X44476Y144787D02*
G03*
X40976Y141287I0J-3500D01*
G01*
X85433Y32500D02*
G03*
X85433Y32500I-394J0D01*
G01*
X72047Y118110D02*
G03*
X72047Y118110I-394J0D01*
G01*
X54769Y136755D02*
X57131D01*
Y118645D02*
Y136755D01*
X54769Y118645D02*
X57131D01*
X48469Y136755D02*
X50832D01*
X48469Y118645D02*
Y136755D01*
Y118645D02*
X50832D01*
X48469Y127700D02*
X57131D01*
X37402Y137402D02*
X38583D01*
X41339D02*
X42126D01*
X38583Y135433D02*
Y138976D01*
Y135433D02*
X41339Y137402D01*
X38583Y138976D02*
X41339Y137402D01*
Y135433D02*
Y139370D01*
X4331Y146850D02*
Y149213D01*
X22441D01*
Y146850D02*
Y149213D01*
X4331Y140551D02*
Y142913D01*
Y140551D02*
X22441D01*
Y142913D01*
X13386Y140551D02*
Y149213D01*
X24335Y108543D02*
Y111543D01*
X12835D02*
X24335D01*
X4835Y76921D02*
Y106732D01*
X12835Y71921D02*
X24335D01*
Y74921D01*
X4331Y121653D02*
Y124016D01*
X22441D01*
Y121653D02*
Y124016D01*
X4331Y115354D02*
Y117717D01*
Y115354D02*
X22441D01*
Y117717D01*
X13386Y115354D02*
Y124016D01*
X4331Y129921D02*
Y132283D01*
X22441D01*
Y129921D02*
Y132283D01*
X4331Y123622D02*
Y125984D01*
Y123622D02*
X22441D01*
Y125984D01*
X13386Y123622D02*
Y132283D01*
X4331Y138583D02*
Y140945D01*
X22441D01*
Y138583D02*
Y140945D01*
X4331Y132283D02*
Y134646D01*
Y132283D02*
X22441D01*
Y134646D01*
X13386Y132283D02*
Y140945D01*
X76122Y147531D02*
Y158531D01*
X56437D02*
X76122D01*
X56437Y147531D02*
Y158531D01*
Y147531D02*
X76122D01*
X33476Y140945D02*
X44476D01*
Y160630D01*
X33476D02*
X44476D01*
X33476Y140945D02*
Y160630D01*
X61811Y90551D02*
Y98819D01*
X90158Y90551D02*
Y98819D01*
X61811Y70472D02*
Y78740D01*
X90158Y70472D02*
Y78740D01*
X61811Y98819D02*
X90158D01*
X61811Y70472D02*
X90158D01*
X59449Y125984D02*
X63386D01*
X61417D02*
X62992Y128740D01*
X59449D02*
X61417Y125984D01*
X59449Y128740D02*
X62992D01*
X61417Y125197D02*
Y125984D01*
Y128740D02*
Y129921D01*
X77559Y131595D02*
Y134449D01*
X80709D01*
X77559Y123031D02*
Y125886D01*
Y123031D02*
X80709D01*
X83071Y127756D02*
Y129724D01*
X113386Y140256D02*
Y142224D01*
X99213D02*
X113386D01*
X99213Y140256D02*
Y142224D01*
X113386Y135728D02*
Y137697D01*
X99213Y135728D02*
X113386D01*
X99213D02*
Y137697D01*
X106299Y135728D02*
Y142224D01*
X113386Y147736D02*
Y149705D01*
X99213D02*
X113386D01*
X99213Y147736D02*
Y149705D01*
X113386Y143209D02*
Y145177D01*
X99213Y143209D02*
X113386D01*
X99213D02*
Y145177D01*
X106299Y143209D02*
Y149705D01*
X113386Y155217D02*
Y157185D01*
X99213D02*
X113386D01*
X99213Y155217D02*
Y157185D01*
X113386Y150689D02*
Y152657D01*
X99213Y150689D02*
X113386D01*
X99213D02*
Y152657D01*
X106299Y150689D02*
Y157185D01*
X113386Y161909D02*
Y163878D01*
X99213D02*
X113386D01*
X99213Y161909D02*
Y163878D01*
X113386Y157382D02*
Y159350D01*
X99213Y157382D02*
X113386D01*
X99213D02*
Y159350D01*
X106299Y157382D02*
Y163878D01*
X155118Y34449D02*
Y41831D01*
Y30512D02*
Y34449D01*
X174016Y26575D02*
Y31496D01*
X159055Y52165D02*
X174016D01*
Y44291D02*
Y52165D01*
X155118Y44291D02*
Y48228D01*
Y41831D02*
Y44291D01*
X174016Y31496D02*
Y44291D01*
X159055Y26575D02*
X174016D01*
X170079Y23425D02*
Y26575D01*
X168504Y23425D02*
X170079D01*
X157087D02*
X159055D01*
X157087D02*
Y25000D01*
Y53740D02*
Y55315D01*
X159055D01*
X168504D02*
X170079D01*
Y52165D02*
Y55315D01*
X157087Y52165D02*
Y53740D01*
Y52165D02*
X159055D01*
X155118D02*
X157087D01*
X155118Y48228D02*
Y52165D01*
X157087Y26575D02*
X159055D01*
X157087Y25000D02*
Y26575D01*
X155118D02*
X157087D01*
X155118D02*
Y30512D01*
X102854Y59941D02*
X108957D01*
X102854Y52658D02*
X108957D01*
X118602Y38583D02*
X120571D01*
Y52756D01*
X118602D02*
X120571D01*
X114075Y38583D02*
X116043D01*
X114075D02*
Y52756D01*
X116043D01*
X114075Y45669D02*
X120571D01*
X124902Y38583D02*
X126870D01*
Y52756D01*
X124902D02*
X126870D01*
X120374Y38583D02*
X122343D01*
X120374D02*
Y52756D01*
X122343D01*
X120374Y45669D02*
X126870D01*
X34646Y112992D02*
X35827D01*
X31102D02*
X31890D01*
X34646Y111417D02*
Y114961D01*
X31890Y112992D02*
X34646Y114961D01*
X31890Y112992D02*
X34646Y111417D01*
X31890Y111024D02*
Y114961D01*
X42520Y116929D02*
Y119291D01*
X24409Y116929D02*
X42520D01*
X24409D02*
Y119291D01*
X42520Y123228D02*
Y125591D01*
X24409D02*
X42520D01*
X24409Y123228D02*
Y125591D01*
X33465Y116929D02*
Y125591D01*
X42520Y125984D02*
Y128347D01*
X24409Y125984D02*
X42520D01*
X24409D02*
Y128347D01*
X42520Y132283D02*
Y134646D01*
X24409D02*
X42520D01*
X24409Y132283D02*
Y134646D01*
X33465Y125984D02*
Y134646D01*
X77067Y164961D02*
X83563D01*
X81595Y157874D02*
X83563D01*
Y172047D01*
X81595D02*
X83563D01*
X77067Y157874D02*
X79035D01*
X77067D02*
Y172047D01*
X79035D01*
X83760Y164961D02*
X90256D01*
X88287Y157874D02*
X90256D01*
Y172047D01*
X88287D02*
X90256D01*
X83760Y157874D02*
X85728D01*
X83760D02*
Y172047D01*
X85728D01*
X91240Y165354D02*
X97736D01*
X95768Y158268D02*
X97736D01*
Y172441D01*
X95768D02*
X97736D01*
X91240Y158268D02*
X93209D01*
X91240D02*
Y172441D01*
X93209D01*
X153543Y105612D02*
X150919D01*
Y106267D01*
X153543Y108891D01*
Y109547D01*
X149608Y105612D02*
Y108235D01*
X148296Y109547D01*
X146984Y108235D01*
Y105612D01*
X145672Y107579D02*
X143048D01*
X139112Y109547D02*
X141736D01*
X139112Y106923D01*
Y106267D01*
X139768Y105612D01*
X141080D01*
X141736Y106267D01*
X135177Y105612D02*
X136488Y106267D01*
X137800Y107579D01*
Y108891D01*
X137144Y109547D01*
X135833D01*
X135177Y108891D01*
Y108235D01*
X135833Y107579D01*
X137800D01*
X133865Y105612D02*
Y108235D01*
X132553Y109547D01*
X131241Y108235D01*
Y105612D01*
X151215Y111976D02*
X151871Y111320D01*
X153183D01*
X153839Y111976D01*
Y114600D01*
X153183Y115256D01*
X151871D01*
X151215Y114600D01*
Y113288D01*
X152527D01*
X149903Y115256D02*
Y111320D01*
X147279Y115256D01*
Y111320D01*
X145967D02*
Y115256D01*
X143999D01*
X143343Y114600D01*
Y111976D01*
X143999Y111320D01*
X145967D01*
X151313Y123393D02*
X151969Y122738D01*
X153281D01*
X153937Y123393D01*
Y126017D01*
X153281Y126673D01*
X151969D01*
X151313Y126017D01*
Y124705D01*
X152625D01*
X150001Y126673D02*
Y122738D01*
X147377Y126673D01*
Y122738D01*
X146065D02*
Y126673D01*
X144098D01*
X143442Y126017D01*
Y123393D01*
X144098Y122738D01*
X146065D01*
X151215Y117029D02*
X153839D01*
Y118997D01*
X152527Y118341D01*
X151871D01*
X151215Y118997D01*
Y120309D01*
X151871Y120965D01*
X153183D01*
X153839Y120309D01*
X149903Y117029D02*
Y119653D01*
X148591Y120965D01*
X147279Y119653D01*
Y117029D01*
X140064D02*
X141375D01*
X142031Y117685D01*
Y120309D01*
X141375Y120965D01*
X140064D01*
X139408Y120309D01*
Y117685D01*
X140064Y117029D01*
X138096D02*
Y120309D01*
X137440Y120965D01*
X136128D01*
X135472Y120309D01*
Y117029D01*
X134160D02*
X131536D01*
X132848D01*
Y120965D01*
X154035Y128348D02*
Y130972D01*
X152724Y132283D01*
X151412Y130972D01*
Y128348D01*
X150100D02*
X148788D01*
X149444D01*
Y132283D01*
X150100D01*
X148788D01*
X146820Y128348D02*
Y132283D01*
X144852D01*
X144196Y131628D01*
Y129004D01*
X144852Y128348D01*
X146820D01*
X140260D02*
X142884D01*
Y132283D01*
X140260D01*
X142884Y130316D02*
X141572D01*
X136980Y128348D02*
X138293D01*
X138948Y129004D01*
Y131628D01*
X138293Y132283D01*
X136980D01*
X136325Y131628D01*
Y129004D01*
X136980Y128348D01*
X154429Y137795D02*
Y135171D01*
X153117Y133860D01*
X151805Y135171D01*
Y137795D01*
Y135827D01*
X154429D01*
X150493Y133860D02*
Y137139D01*
X149837Y137795D01*
X148526D01*
X147870Y137139D01*
Y133860D01*
X146558D02*
Y137795D01*
X144590D01*
X143934Y137139D01*
Y134516D01*
X144590Y133860D01*
X146558D01*
X142622D02*
X141310D01*
X141966D01*
Y137795D01*
X142622D01*
X141310D01*
X137374Y133860D02*
X138686D01*
X139342Y134516D01*
Y137139D01*
X138686Y137795D01*
X137374D01*
X136718Y137139D01*
Y134516D01*
X137374Y133860D01*
X154528Y139174D02*
Y143110D01*
X152560D01*
X151904Y142454D01*
Y139831D01*
X152560Y139174D01*
X154528D01*
X150592Y143110D02*
Y140486D01*
X149280Y139174D01*
X147968Y140486D01*
Y143110D01*
Y141142D01*
X150592D01*
X146656Y139174D02*
X144032D01*
X145344D01*
Y143110D01*
X142720D02*
Y140486D01*
X141408Y139174D01*
X140096Y140486D01*
Y143110D01*
Y141142D01*
X142720D01*
X210597Y75886D02*
Y79823D01*
X211910Y75886D02*
X209285D01*
X208817D02*
Y79823D01*
Y75886D02*
X207130D01*
X206568Y76074D01*
X206380Y76261D01*
X206193Y76636D01*
Y77011D01*
X206380Y77386D01*
X206568Y77573D01*
X207130Y77761D01*
X208817D02*
X207130D01*
X206568Y77948D01*
X206380Y78136D01*
X206193Y78510D01*
Y79073D01*
X206380Y79448D01*
X206568Y79635D01*
X207130Y79823D01*
X208817D01*
X202688Y76449D02*
X203063Y76074D01*
X203625Y75886D01*
X204375D01*
X204937Y76074D01*
X205312Y76449D01*
Y76824D01*
X205124Y77198D01*
X204937Y77386D01*
X204562Y77573D01*
X203437Y77948D01*
X203063Y78136D01*
X202875Y78323D01*
X202688Y78698D01*
Y79260D01*
X203063Y79635D01*
X203625Y79823D01*
X204375D01*
X204937Y79635D01*
X205312Y79260D01*
X198714Y75886D02*
Y78698D01*
X198527Y79260D01*
X198152Y79635D01*
X197589Y79823D01*
X197214D01*
X196652Y79635D01*
X196277Y79260D01*
X196090Y78698D01*
Y75886D01*
X195003D02*
Y79823D01*
Y75886D02*
X192379Y79823D01*
Y75886D02*
Y79823D01*
X191291Y75886D02*
Y79823D01*
X190467Y75886D02*
Y79823D01*
Y75886D02*
X188030D01*
X190467Y77761D02*
X188967D01*
X187580Y75886D02*
X186081Y77761D01*
Y79823D01*
X184581Y75886D02*
X186081Y77761D01*
X180982Y77948D02*
X179296D01*
X178733Y77761D01*
X178546Y77573D01*
X178358Y77198D01*
Y76636D01*
X178546Y76261D01*
X178733Y76074D01*
X179296Y75886D01*
X180982D01*
Y79823D01*
X177477Y75886D02*
Y79823D01*
Y75886D02*
X175791D01*
X175228Y76074D01*
X175041Y76261D01*
X174853Y76636D01*
Y77011D01*
X175041Y77386D01*
X175228Y77573D01*
X175791Y77761D01*
X177477D01*
X176165D02*
X174853Y79823D01*
X172848Y75886D02*
X173223Y76074D01*
X173598Y76449D01*
X173785Y76824D01*
X173972Y77386D01*
Y78323D01*
X173785Y78885D01*
X173598Y79260D01*
X173223Y79635D01*
X172848Y79823D01*
X172098D01*
X171723Y79635D01*
X171348Y79260D01*
X171161Y78885D01*
X170973Y78323D01*
Y77386D01*
X171161Y76824D01*
X171348Y76449D01*
X171723Y76074D01*
X172098Y75886D01*
X172848D01*
X164713D02*
X166587D01*
X166775Y77573D01*
X166587Y77386D01*
X166025Y77198D01*
X165463D01*
X164901Y77386D01*
X164526Y77761D01*
X164338Y78323D01*
Y78698D01*
X164526Y79260D01*
X164901Y79635D01*
X165463Y79823D01*
X166025D01*
X166587Y79635D01*
X166775Y79448D01*
X166962Y79073D01*
X160646Y76824D02*
X160833Y76449D01*
X161208Y76074D01*
X161583Y75886D01*
X162333D01*
X162707Y76074D01*
X163082Y76449D01*
X163270Y76824D01*
X163457Y77386D01*
Y78323D01*
X163270Y78885D01*
X163082Y79260D01*
X162707Y79635D01*
X162333Y79823D01*
X161583D01*
X161208Y79635D01*
X160833Y79260D01*
X160646Y78885D01*
Y78323D01*
X161583D02*
X160646D01*
X158809Y75886D02*
X159371Y76074D01*
X159558Y76449D01*
Y76824D01*
X159371Y77198D01*
X158996Y77386D01*
X158247Y77573D01*
X157684Y77761D01*
X157309Y78136D01*
X157122Y78510D01*
Y79073D01*
X157309Y79448D01*
X157497Y79635D01*
X158059Y79823D01*
X158809D01*
X159371Y79635D01*
X159558Y79448D01*
X159746Y79073D01*
Y78510D01*
X159558Y78136D01*
X159184Y77761D01*
X158621Y77573D01*
X157872Y77386D01*
X157497Y77198D01*
X157309Y76824D01*
Y76449D01*
X157497Y76074D01*
X158059Y75886D01*
X158809D01*
X153148D02*
Y79823D01*
X150524Y75886D02*
Y79823D01*
X153148Y77761D02*
X150524D01*
X149437Y75886D02*
X147938Y79823D01*
X146438Y75886D02*
X147938Y79823D01*
X211417Y82186D02*
X209918Y86122D01*
X208418Y82186D02*
X209918Y86122D01*
X207537Y82186D02*
X207350Y82373D01*
X207162Y82186D01*
X207350Y81998D01*
X207537Y82186D01*
X207350Y83498D02*
Y86122D01*
X204220Y82186D02*
Y86122D01*
Y84060D02*
X204595Y83685D01*
X204970Y83498D01*
X205532D01*
X205907Y83685D01*
X206282Y84060D01*
X206469Y84623D01*
Y84997D01*
X206282Y85560D01*
X205907Y85935D01*
X205532Y86122D01*
X204970D01*
X204595Y85935D01*
X204220Y85560D01*
X203170Y84623D02*
X200921D01*
Y84248D01*
X201108Y83873D01*
X201296Y83685D01*
X201671Y83498D01*
X202233D01*
X202608Y83685D01*
X202983Y84060D01*
X203170Y84623D01*
Y84997D01*
X202983Y85560D01*
X202608Y85935D01*
X202233Y86122D01*
X201671D01*
X201296Y85935D01*
X200921Y85560D01*
X199140Y83498D02*
X199515Y83685D01*
X199890Y84060D01*
X200077Y84623D01*
Y84997D01*
X199890Y85560D01*
X199515Y85935D01*
X199140Y86122D01*
X198578D01*
X198203Y85935D01*
X197828Y85560D01*
X197641Y84997D01*
Y84623D01*
X197828Y84060D01*
X198203Y83685D01*
X198578Y83498D01*
X199140D01*
X192374Y82186D02*
Y86122D01*
X193686Y82186D02*
X191062D01*
X190593Y83498D02*
Y86122D01*
Y84623D02*
X190406Y84060D01*
X190031Y83685D01*
X189656Y83498D01*
X189094D01*
X186488D02*
Y86122D01*
Y84060D02*
X186863Y83685D01*
X187238Y83498D01*
X187800D01*
X188175Y83685D01*
X188550Y84060D01*
X188737Y84623D01*
Y84997D01*
X188550Y85560D01*
X188175Y85935D01*
X187800Y86122D01*
X187238D01*
X186863Y85935D01*
X186488Y85560D01*
X185439Y83498D02*
Y86122D01*
Y84248D02*
X184876Y83685D01*
X184502Y83498D01*
X183939D01*
X183564Y83685D01*
X183377Y84248D01*
Y86122D01*
X180284Y84060D02*
X180472Y83685D01*
X181034Y83498D01*
X181596D01*
X182159Y83685D01*
X182346Y84060D01*
X182159Y84435D01*
X181784Y84623D01*
X180847Y84810D01*
X180472Y84997D01*
X180284Y85372D01*
Y85560D01*
X180472Y85935D01*
X181034Y86122D01*
X181596D01*
X182159Y85935D01*
X182346Y85560D01*
X179459Y83498D02*
Y86122D01*
Y84248D02*
X178897Y83685D01*
X178522Y83498D01*
X177960D01*
X177585Y83685D01*
X177398Y84248D01*
Y86122D01*
Y84248D02*
X176835Y83685D01*
X176460Y83498D01*
X175898D01*
X175523Y83685D01*
X175336Y84248D01*
Y86122D01*
X173724Y82186D02*
X173536Y82373D01*
X173349Y82186D01*
X173536Y81998D01*
X173724Y82186D01*
X173536Y83498D02*
Y86122D01*
X172093Y82186D02*
Y85372D01*
X171906Y85935D01*
X171531Y86122D01*
X171156D01*
X172655Y83498D02*
X171343D01*
X170031Y82186D02*
Y85372D01*
X169844Y85935D01*
X169469Y86122D01*
X169094D01*
X170594Y83498D02*
X169282D01*
X168532Y84623D02*
X166283D01*
Y84248D01*
X166470Y83873D01*
X166657Y83685D01*
X167032Y83498D01*
X167595D01*
X167970Y83685D01*
X168344Y84060D01*
X168532Y84623D01*
Y84997D01*
X168344Y85560D01*
X167970Y85935D01*
X167595Y86122D01*
X167032D01*
X166657Y85935D01*
X166283Y85560D01*
X165439Y83498D02*
Y86122D01*
Y84623D02*
X165252Y84060D01*
X164877Y83685D01*
X164502Y83498D01*
X163940D01*
D11*
X78012Y164331D02*
G03*
X78012Y164331I-492J0D01*
G01*
X50768Y139547D02*
G03*
X50768Y139547I-492J0D01*
G01*
D12*
X118110Y71535D02*
G03*
X123110Y66535I5000J0D01*
G01*
Y153150D02*
G03*
X118110Y148150I0J-5000D01*
G01*
X236221D02*
G03*
X231221Y153150I-5000J0D01*
G01*
X232185Y66535D02*
G03*
X236221Y70571I0J4035D01*
G01*
X123110Y66535D02*
X232185Y66536D01*
X118110Y71535D02*
Y148150D01*
X123110Y153150D02*
X231221D01*
X236221Y70571D02*
Y148150D01*
D13*
X101772Y59449D02*
G03*
X101772Y59449I-197J0D01*
G01*
X57382Y100886D02*
X58169D01*
X57382Y95374D02*
Y100886D01*
Y95374D02*
X58169D01*
X59153D02*
X59941D01*
Y100886D01*
X59153D02*
X59941D01*
X87894Y139370D02*
X89272Y140354D01*
Y139370D02*
Y140354D01*
X87894Y139370D02*
Y140256D01*
Y138484D02*
Y139370D01*
X89272Y138386D02*
Y139370D01*
X87894D02*
X89272Y138386D01*
X51739Y140092D02*
X51477Y140354D01*
X50952D01*
X50690Y140092D01*
Y139042D01*
X50952Y138780D01*
X51477D01*
X51739Y139042D01*
X52264Y138780D02*
X52789D01*
X52526D01*
Y140354D01*
X52264Y140092D01*
X53576D02*
X53838Y140354D01*
X54363D01*
X54625Y140092D01*
Y139042D01*
X54363Y138780D01*
X53838D01*
X53576Y139042D01*
Y140092D01*
X47343Y142684D02*
X48917D01*
Y143471D01*
X48655Y143734D01*
X47605D01*
X47343Y143471D01*
Y142684D01*
X48917Y145308D02*
Y144258D01*
X47868Y145308D01*
X47605D01*
X47343Y145046D01*
Y144521D01*
X47605Y144258D01*
X40748Y103183D02*
X39173D01*
Y103970D01*
X39436Y104233D01*
X39961D01*
X40223Y103970D01*
Y103183D01*
Y103708D02*
X40748Y104233D01*
Y105807D02*
Y104757D01*
X39698Y105807D01*
X39436D01*
X39173Y105544D01*
Y105020D01*
X39436Y104757D01*
X40748Y106332D02*
Y106856D01*
Y106594D01*
X39173D01*
X39436Y106332D01*
X5840Y162434D02*
X5578Y162697D01*
X5053D01*
X4790Y162434D01*
Y161385D01*
X5053Y161122D01*
X5578D01*
X5840Y161385D01*
X7414Y161122D02*
X6365D01*
X7414Y162172D01*
Y162434D01*
X7152Y162697D01*
X6627D01*
X6365Y162434D01*
X7415Y110827D02*
X6890D01*
X7152D01*
Y109515D01*
X6890Y109252D01*
X6628D01*
X6365Y109515D01*
X8989Y109252D02*
X7940D01*
X8989Y110302D01*
Y110564D01*
X8727Y110827D01*
X8202D01*
X7940Y110564D01*
X6529Y154757D02*
X6267Y155019D01*
X5742D01*
X5479Y154757D01*
Y153708D01*
X5742Y153445D01*
X6267D01*
X6529Y153708D01*
X7054Y155019D02*
X8103D01*
Y154757D01*
X7054Y153708D01*
Y153445D01*
X6332Y157021D02*
X6070Y157283D01*
X5545D01*
X5283Y157021D01*
Y155971D01*
X5545Y155709D01*
X6070D01*
X6332Y155971D01*
X7906Y157283D02*
X6857D01*
Y156496D01*
X7382Y156758D01*
X7644D01*
X7906Y156496D01*
Y155971D01*
X7644Y155709D01*
X7119D01*
X6857Y155971D01*
X6135Y159678D02*
X5873Y159941D01*
X5348D01*
X5086Y159678D01*
Y158629D01*
X5348Y158366D01*
X5873D01*
X6135Y158629D01*
X7447Y158366D02*
Y159941D01*
X6660Y159153D01*
X7710D01*
X64535Y162893D02*
X65059D01*
X64797D01*
Y161319D01*
X64535D01*
X65059D01*
X66896Y162631D02*
X66634Y162893D01*
X66109D01*
X65847Y162631D01*
Y161582D01*
X66109Y161319D01*
X66634D01*
X66896Y161582D01*
X67421Y161319D02*
X67946D01*
X67683D01*
Y162893D01*
X67421Y162631D01*
X47606Y173721D02*
Y175295D01*
X48393D01*
X48655Y175033D01*
Y174508D01*
X48393Y174246D01*
X47606D01*
X48130D02*
X48655Y173721D01*
X50230D02*
X49180D01*
X50230Y174770D01*
Y175033D01*
X49967Y175295D01*
X49442D01*
X49180Y175033D01*
X51804Y173721D02*
X50754D01*
X51804Y174770D01*
Y175033D01*
X51541Y175295D01*
X51017D01*
X50754Y175033D01*
X40027Y173524D02*
Y175098D01*
X40814D01*
X41076Y174836D01*
Y174311D01*
X40814Y174049D01*
X40027D01*
X40552D02*
X41076Y173524D01*
X42651D02*
X41601D01*
X42651Y174573D01*
Y174836D01*
X42388Y175098D01*
X41864D01*
X41601Y174836D01*
X43963Y173524D02*
Y175098D01*
X43176Y174311D01*
X44225D01*
X24377Y167520D02*
Y169094D01*
X25164D01*
X25427Y168832D01*
Y168307D01*
X25164Y168045D01*
X24377D01*
X24902D02*
X25427Y167520D01*
X27001D02*
X25952D01*
X27001Y168570D01*
Y168832D01*
X26739Y169094D01*
X26214D01*
X25952Y168832D01*
X27526D02*
X27788Y169094D01*
X28313D01*
X28575Y168832D01*
Y168570D01*
X28313Y168307D01*
X28051D01*
X28313D01*
X28575Y168045D01*
Y167782D01*
X28313Y167520D01*
X27788D01*
X27526Y167782D01*
X47441Y152068D02*
Y152592D01*
Y152330D01*
X49016D01*
Y152068D01*
Y152592D01*
X47704Y154429D02*
X47441Y154167D01*
Y153642D01*
X47704Y153379D01*
X48753D01*
X49016Y153642D01*
Y154167D01*
X48753Y154429D01*
X49016Y156003D02*
Y154954D01*
X47966Y156003D01*
X47704D01*
X47441Y155741D01*
Y155216D01*
X47704Y154954D01*
X26017Y162631D02*
X25755Y162893D01*
X25230D01*
X24968Y162631D01*
Y161582D01*
X25230Y161319D01*
X25755D01*
X26017Y161582D01*
X27592Y161319D02*
X26542D01*
X27592Y162369D01*
Y162631D01*
X27329Y162893D01*
X26805D01*
X26542Y162631D01*
X28117D02*
X28379Y162893D01*
X28904D01*
X29166Y162631D01*
Y161582D01*
X28904Y161319D01*
X28379D01*
X28117Y161582D01*
Y162631D01*
X86910Y153084D02*
X86647Y153346D01*
X86122D01*
X85860Y153084D01*
Y152034D01*
X86122Y151772D01*
X86647D01*
X86910Y152034D01*
X87434Y151772D02*
X87959D01*
X87697D01*
Y153346D01*
X87434Y153084D01*
X81332Y108104D02*
X81070Y108366D01*
X80545D01*
X80283Y108104D01*
Y107054D01*
X80545Y106792D01*
X81070D01*
X81332Y107054D01*
X81857D02*
X82119Y106792D01*
X82644D01*
X82906Y107054D01*
Y108104D01*
X82644Y108366D01*
X82119D01*
X81857Y108104D01*
Y107841D01*
X82119Y107579D01*
X82906D01*
X50197Y95145D02*
X48622D01*
Y95932D01*
X48885Y96194D01*
X49409D01*
X49672Y95932D01*
Y95145D01*
Y95670D02*
X50197Y96194D01*
Y96719D02*
Y97244D01*
Y96982D01*
X48622D01*
X48885Y96719D01*
X50197Y98031D02*
Y98556D01*
Y98294D01*
X48622D01*
X48885Y98031D01*
X45341Y95735D02*
X45079Y95473D01*
Y94948D01*
X45341Y94686D01*
X46391D01*
X46653Y94948D01*
Y95473D01*
X46391Y95735D01*
X46653Y96260D02*
Y96785D01*
Y96522D01*
X45079D01*
X45341Y96260D01*
X46391Y97572D02*
X46653Y97834D01*
Y98359D01*
X46391Y98621D01*
X45341D01*
X45079Y98359D01*
Y97834D01*
X45341Y97572D01*
X45604D01*
X45866Y97834D01*
Y98621D01*
X94029Y84449D02*
Y82874D01*
X95079D01*
X95604D02*
X96128D01*
X95866D01*
Y84449D01*
X95604Y84186D01*
X54889Y90748D02*
Y92323D01*
X55676D01*
X55938Y92060D01*
Y91535D01*
X55676Y91273D01*
X54889D01*
X55414D02*
X55938Y90748D01*
X56463Y91011D02*
X56726Y90748D01*
X57250D01*
X57513Y91011D01*
Y92060D01*
X57250Y92323D01*
X56726D01*
X56463Y92060D01*
Y91798D01*
X56726Y91535D01*
X57513D01*
X60499Y141535D02*
Y139961D01*
X61286D01*
X61549Y140223D01*
Y141273D01*
X61286Y141535D01*
X60499D01*
X63123D02*
X62073D01*
Y140748D01*
X62598Y141010D01*
X62861D01*
X63123Y140748D01*
Y140223D01*
X62861Y139961D01*
X62336D01*
X62073Y140223D01*
X69620Y137303D02*
Y138878D01*
X70407D01*
X70669Y138615D01*
Y138091D01*
X70407Y137828D01*
X69620D01*
X70144D02*
X70669Y137303D01*
X71194D02*
X71719D01*
X71456D01*
Y138878D01*
X71194Y138615D01*
X70309Y115190D02*
X70046Y115453D01*
X69521D01*
X69259Y115190D01*
Y114141D01*
X69521Y113878D01*
X70046D01*
X70309Y114141D01*
X70833Y113878D02*
X71358D01*
X71096D01*
Y115453D01*
X70833Y115190D01*
X72145Y113878D02*
X72670D01*
X72408D01*
Y115453D01*
X72145Y115190D01*
X80216Y117586D02*
Y118635D01*
X79954Y118897D01*
X79429D01*
X79167Y118635D01*
Y117586D01*
X79429Y117323D01*
X79954D01*
X79692Y117848D02*
X80216Y117323D01*
X79954D02*
X80216Y117586D01*
X80741Y117323D02*
X81266D01*
X81004D01*
Y118897D01*
X80741Y118635D01*
X73294Y141536D02*
Y143110D01*
X74081D01*
X74344Y142848D01*
Y142323D01*
X74081Y142060D01*
X73294D01*
X73819D02*
X74344Y141536D01*
X75656D02*
Y143110D01*
X74869Y142323D01*
X75918D01*
X87665Y145571D02*
Y143996D01*
X88452D01*
X88714Y144259D01*
Y145308D01*
X88452Y145571D01*
X87665D01*
X90026Y143996D02*
Y145571D01*
X89239Y144783D01*
X90288D01*
X93865Y131988D02*
Y133563D01*
X94652D01*
X94915Y133300D01*
Y132776D01*
X94652Y132513D01*
X93865D01*
X94390D02*
X94915Y131988D01*
X95439Y133563D02*
X96489D01*
Y133300D01*
X95439Y132251D01*
Y131988D01*
X89535Y117225D02*
Y118799D01*
X90322D01*
X90584Y118537D01*
Y118012D01*
X90322Y117749D01*
X89535D01*
X90059D02*
X90584Y117225D01*
X92158Y118799D02*
X91634Y118537D01*
X91109Y118012D01*
Y117487D01*
X91371Y117225D01*
X91896D01*
X92158Y117487D01*
Y117749D01*
X91896Y118012D01*
X91109D01*
X108990Y133497D02*
X108728Y133760D01*
X108203D01*
X107940Y133497D01*
Y132448D01*
X108203Y132185D01*
X108728D01*
X108990Y132448D01*
X110302Y132185D02*
Y133760D01*
X109515Y132973D01*
X110564D01*
X112138Y133760D02*
X111614Y133497D01*
X111089Y132973D01*
Y132448D01*
X111351Y132185D01*
X111876D01*
X112138Y132448D01*
Y132710D01*
X111876Y132973D01*
X111089D01*
X94029Y147474D02*
X93767Y147736D01*
X93242D01*
X92980Y147474D01*
Y146424D01*
X93242Y146162D01*
X93767D01*
X94029Y146424D01*
X95341Y146162D02*
Y147736D01*
X94554Y146949D01*
X95604D01*
X97178Y147736D02*
X96128D01*
Y146949D01*
X96653Y147211D01*
X96915D01*
X97178Y146949D01*
Y146424D01*
X96915Y146162D01*
X96391D01*
X96128Y146424D01*
X93832Y154166D02*
X93570Y154429D01*
X93045D01*
X92783Y154166D01*
Y153117D01*
X93045Y152855D01*
X93570D01*
X93832Y153117D01*
X95144Y152855D02*
Y154429D01*
X94357Y153642D01*
X95407D01*
X96981Y152855D02*
X95931D01*
X96981Y153904D01*
Y154166D01*
X96719Y154429D01*
X96194D01*
X95931Y154166D01*
X116372Y161450D02*
X116109Y161712D01*
X115585D01*
X115322Y161450D01*
Y160400D01*
X115585Y160138D01*
X116109D01*
X116372Y160400D01*
X117684Y160138D02*
Y161712D01*
X116896Y160925D01*
X117946D01*
X118471Y161450D02*
X118733Y161712D01*
X119258D01*
X119520Y161450D01*
Y161188D01*
X119258Y160925D01*
X118996D01*
X119258D01*
X119520Y160663D01*
Y160400D01*
X119258Y160138D01*
X118733D01*
X118471Y160400D01*
X149442Y62795D02*
X148918D01*
X149180D01*
Y61483D01*
X148918Y61221D01*
X148655D01*
X148393Y61483D01*
X151017Y62795D02*
X149967D01*
Y62008D01*
X150492Y62270D01*
X150754D01*
X151017Y62008D01*
Y61483D01*
X150754Y61221D01*
X150230D01*
X149967Y61483D01*
X139600Y56824D02*
X139338Y57086D01*
X138813D01*
X138551Y56824D01*
Y55774D01*
X138813Y55512D01*
X139338D01*
X139600Y55774D01*
X140912Y55512D02*
Y57086D01*
X140125Y56299D01*
X141174D01*
X141699Y57086D02*
X142749D01*
Y56824D01*
X141699Y55774D01*
Y55512D01*
X139403Y51706D02*
X139141Y51968D01*
X138616D01*
X138354Y51706D01*
Y50656D01*
X138616Y50394D01*
X139141D01*
X139403Y50656D01*
X140715Y50394D02*
Y51968D01*
X139928Y51181D01*
X140978D01*
X141502Y50656D02*
X141765Y50394D01*
X142289D01*
X142552Y50656D01*
Y51706D01*
X142289Y51968D01*
X141765D01*
X141502Y51706D01*
Y51443D01*
X141765Y51181D01*
X142552D01*
X90125Y53543D02*
Y51969D01*
X90912D01*
X91175Y52231D01*
Y53281D01*
X90912Y53543D01*
X90125D01*
X92749D02*
X92224Y53281D01*
X91699Y52756D01*
Y52231D01*
X91962Y51969D01*
X92487D01*
X92749Y52231D01*
Y52494D01*
X92487Y52756D01*
X91699D01*
X96162Y48524D02*
Y50098D01*
X96949D01*
X97212Y49836D01*
Y49311D01*
X96949Y49049D01*
X96162D01*
X96687D02*
X97212Y48524D01*
X97736D02*
X98261D01*
X97999D01*
Y50098D01*
X97736Y49836D01*
X100098Y48524D02*
X99048D01*
X100098Y49573D01*
Y49836D01*
X99835Y50098D01*
X99311D01*
X99048Y49836D01*
X106168Y75820D02*
X105906Y76082D01*
X105381D01*
X105119Y75820D01*
Y74770D01*
X105381Y74508D01*
X105906D01*
X106168Y74770D01*
X106693Y74508D02*
X107218D01*
X106955D01*
Y76082D01*
X106693Y75820D01*
X109055Y76082D02*
X108530Y75820D01*
X108005Y75295D01*
Y74770D01*
X108267Y74508D01*
X108792D01*
X109055Y74770D01*
Y75033D01*
X108792Y75295D01*
X108005D01*
X111614Y64371D02*
Y64895D01*
Y64633D01*
X113189D01*
Y64371D01*
Y64895D01*
X111877Y66732D02*
X111614Y66470D01*
Y65945D01*
X111877Y65683D01*
X112926D01*
X113189Y65945D01*
Y66470D01*
X112926Y66732D01*
X111877Y67257D02*
X111614Y67519D01*
Y68044D01*
X111877Y68306D01*
X112139D01*
X112402Y68044D01*
Y67782D01*
Y68044D01*
X112664Y68306D01*
X112926D01*
X113189Y68044D01*
Y67519D01*
X112926Y67257D01*
X122113Y60630D02*
Y59055D01*
X123163D01*
X124737D02*
X123688D01*
X124737Y60105D01*
Y60367D01*
X124475Y60630D01*
X123950D01*
X123688Y60367D01*
X107940Y42257D02*
X107678Y42519D01*
X107153D01*
X106890Y42257D01*
Y41208D01*
X107153Y40945D01*
X107678D01*
X107940Y41208D01*
X108465Y40945D02*
X108990D01*
X108727D01*
Y42519D01*
X108465Y42257D01*
X110826Y42519D02*
X109777D01*
Y41732D01*
X110301Y41995D01*
X110564D01*
X110826Y41732D01*
Y41208D01*
X110564Y40945D01*
X110039D01*
X109777Y41208D01*
X107579Y36319D02*
Y37894D01*
X108367D01*
X108629Y37631D01*
Y37106D01*
X108367Y36844D01*
X107579D01*
X108104D02*
X108629Y36319D01*
X109154D02*
X109678D01*
X109416D01*
Y37894D01*
X109154Y37631D01*
X110466D02*
X110728Y37894D01*
X111253D01*
X111515Y37631D01*
Y37369D01*
X111253Y37106D01*
X110990D01*
X111253D01*
X111515Y36844D01*
Y36582D01*
X111253Y36319D01*
X110728D01*
X110466Y36582D01*
X116503Y35663D02*
X116241Y35925D01*
X115716D01*
X115453Y35663D01*
Y34613D01*
X115716Y34351D01*
X116241D01*
X116503Y34613D01*
X117028Y34351D02*
X117552D01*
X117290D01*
Y35925D01*
X117028Y35663D01*
X118340D02*
X118602Y35925D01*
X119127D01*
X119389Y35663D01*
Y35400D01*
X119127Y35138D01*
X119389Y34875D01*
Y34613D01*
X119127Y34351D01*
X118602D01*
X118340Y34613D01*
Y34875D01*
X118602Y35138D01*
X118340Y35400D01*
Y35663D01*
X118602Y35138D02*
X119127D01*
X123590Y34678D02*
X123327Y34941D01*
X122802D01*
X122540Y34678D01*
Y33629D01*
X122802Y33366D01*
X123327D01*
X123590Y33629D01*
X124114Y33366D02*
X124639D01*
X124377D01*
Y34941D01*
X124114Y34678D01*
X125426Y34941D02*
X126476D01*
Y34678D01*
X125426Y33629D01*
Y33366D01*
X70276Y11023D02*
X69751D01*
X70013D01*
Y9712D01*
X69751Y9449D01*
X69489D01*
X69226Y9712D01*
X70800Y9449D02*
X71325D01*
X71063D01*
Y11023D01*
X70800Y10761D01*
X70505Y26509D02*
X70243Y26771D01*
X69718D01*
X69456Y26509D01*
Y25460D01*
X69718Y25197D01*
X70243D01*
X70505Y25460D01*
X71030Y26509D02*
X71293Y26771D01*
X71817D01*
X72080Y26509D01*
Y26247D01*
X71817Y25984D01*
X72080Y25722D01*
Y25460D01*
X71817Y25197D01*
X71293D01*
X71030Y25460D01*
Y25722D01*
X71293Y25984D01*
X71030Y26247D01*
Y26509D01*
X71293Y25984D02*
X71817D01*
X79298Y31398D02*
Y32972D01*
X80085D01*
X80348Y32710D01*
Y32185D01*
X80085Y31923D01*
X79298D01*
X79823D02*
X80348Y31398D01*
X81922D02*
X80873D01*
X81922Y32447D01*
Y32710D01*
X81660Y32972D01*
X81135D01*
X80873Y32710D01*
X95342Y25197D02*
Y26771D01*
X96129D01*
X96391Y26509D01*
Y25984D01*
X96129Y25722D01*
X95342D01*
X95866D02*
X96391Y25197D01*
X96916Y26509D02*
X97178Y26771D01*
X97703D01*
X97965Y26509D01*
Y26247D01*
X97703Y25984D01*
X97441D01*
X97703D01*
X97965Y25722D01*
Y25460D01*
X97703Y25197D01*
X97178D01*
X96916Y25460D01*
X83137Y48327D02*
Y46752D01*
X83924D01*
X84186Y47015D01*
Y48064D01*
X83924Y48327D01*
X83137D01*
X84711Y48064D02*
X84974Y48327D01*
X85498D01*
X85761Y48064D01*
Y47802D01*
X85498Y47539D01*
X85236D01*
X85498D01*
X85761Y47277D01*
Y47015D01*
X85498Y46752D01*
X84974D01*
X84711Y47015D01*
X68570Y57808D02*
X68308Y58071D01*
X67783D01*
X67520Y57808D01*
Y56759D01*
X67783Y56496D01*
X68308D01*
X68570Y56759D01*
X69095Y56496D02*
X69619D01*
X69357D01*
Y58071D01*
X69095Y57808D01*
X71456Y56496D02*
X70407D01*
X71456Y57546D01*
Y57808D01*
X71194Y58071D01*
X70669D01*
X70407Y57808D01*
X62172Y56430D02*
X61910Y56693D01*
X61385D01*
X61123Y56430D01*
Y55381D01*
X61385Y55118D01*
X61910D01*
X62172Y55381D01*
X62697Y55118D02*
X63222D01*
X62959D01*
Y56693D01*
X62697Y56430D01*
X64009D02*
X64271Y56693D01*
X64796D01*
X65058Y56430D01*
Y56168D01*
X64796Y55905D01*
X64534D01*
X64796D01*
X65058Y55643D01*
Y55381D01*
X64796Y55118D01*
X64271D01*
X64009Y55381D01*
X3019Y56496D02*
Y58071D01*
X3806D01*
X4069Y57808D01*
Y57284D01*
X3806Y57021D01*
X3019D01*
X3544D02*
X4069Y56496D01*
X5643D02*
X4593D01*
X5643Y57546D01*
Y57808D01*
X5381Y58071D01*
X4856D01*
X4593Y57808D01*
X6168D02*
X6430Y58071D01*
X6955D01*
X7217Y57808D01*
Y56759D01*
X6955Y56496D01*
X6430D01*
X6168Y56759D01*
Y57808D01*
X9056Y56496D02*
Y58071D01*
X9843D01*
X10105Y57808D01*
Y57284D01*
X9843Y57021D01*
X9056D01*
X9580D02*
X10105Y56496D01*
X10630D02*
X11155D01*
X10892D01*
Y58071D01*
X10630Y57808D01*
X11942Y56759D02*
X12204Y56496D01*
X12729D01*
X12991Y56759D01*
Y57808D01*
X12729Y58071D01*
X12204D01*
X11942Y57808D01*
Y57546D01*
X12204Y57284D01*
X12991D01*
X14764Y56595D02*
Y58169D01*
X15552D01*
X15814Y57907D01*
Y57382D01*
X15552Y57120D01*
X14764D01*
X15289D02*
X15814Y56595D01*
X16339D02*
X16863D01*
X16601D01*
Y58169D01*
X16339Y57907D01*
X17651D02*
X17913Y58169D01*
X18438D01*
X18700Y57907D01*
Y57644D01*
X18438Y57382D01*
X18700Y57120D01*
Y56857D01*
X18438Y56595D01*
X17913D01*
X17651Y56857D01*
Y57120D01*
X17913Y57382D01*
X17651Y57644D01*
Y57907D01*
X17913Y57382D02*
X18438D01*
X32383Y63780D02*
Y65354D01*
X33170D01*
X33432Y65092D01*
Y64567D01*
X33170Y64305D01*
X32383D01*
X32907D02*
X33432Y63780D01*
X33957D02*
X34482D01*
X34219D01*
Y65354D01*
X33957Y65092D01*
X35269Y65354D02*
X36318D01*
Y65092D01*
X35269Y64042D01*
Y63780D01*
X33072Y69685D02*
Y71260D01*
X33859D01*
X34121Y70997D01*
Y70473D01*
X33859Y70210D01*
X33072D01*
X33596D02*
X34121Y69685D01*
X34646D02*
X35171D01*
X34908D01*
Y71260D01*
X34646Y70997D01*
X37007Y71260D02*
X36483Y70997D01*
X35958Y70473D01*
Y69948D01*
X36220Y69685D01*
X36745D01*
X37007Y69948D01*
Y70210D01*
X36745Y70473D01*
X35958D01*
X40125Y79921D02*
Y78347D01*
X40912D01*
X41175Y78609D01*
Y79659D01*
X40912Y79921D01*
X40125D01*
X41699Y78609D02*
X41962Y78347D01*
X42487D01*
X42749Y78609D01*
Y79659D01*
X42487Y79921D01*
X41962D01*
X41699Y79659D01*
Y79396D01*
X41962Y79134D01*
X42749D01*
X39830Y88386D02*
Y86811D01*
X40617D01*
X40879Y87074D01*
Y88123D01*
X40617Y88386D01*
X39830D01*
X41404Y88123D02*
X41666Y88386D01*
X42191D01*
X42454Y88123D01*
Y87861D01*
X42191Y87598D01*
X42454Y87336D01*
Y87074D01*
X42191Y86811D01*
X41666D01*
X41404Y87074D01*
Y87336D01*
X41666Y87598D01*
X41404Y87861D01*
Y88123D01*
X41666Y87598D02*
X42191D01*
X39075Y96456D02*
Y94882D01*
X39862D01*
X40124Y95144D01*
Y96194D01*
X39862Y96456D01*
X39075D01*
X40649D02*
X41699D01*
Y96194D01*
X40649Y95144D01*
Y94882D01*
X45079Y112238D02*
X46653D01*
Y113025D01*
X46391Y113287D01*
X45341D01*
X45079Y113025D01*
Y112238D01*
X46653Y113812D02*
Y114337D01*
Y114075D01*
X45079D01*
X45341Y113812D01*
X44357Y120112D02*
X44095Y119849D01*
Y119325D01*
X44357Y119062D01*
X45407D01*
X45669Y119325D01*
Y119849D01*
X45407Y120112D01*
X44357Y120636D02*
X44095Y120899D01*
Y121424D01*
X44357Y121686D01*
X44620D01*
X44882Y121424D01*
Y121161D01*
Y121424D01*
X45144Y121686D01*
X45407D01*
X45669Y121424D01*
Y120899D01*
X45407Y120636D01*
X44849Y128576D02*
X44587Y128314D01*
Y127789D01*
X44849Y127527D01*
X45899D01*
X46161Y127789D01*
Y128314D01*
X45899Y128576D01*
X44587Y130150D02*
X44849Y129626D01*
X45374Y129101D01*
X45899D01*
X46161Y129363D01*
Y129888D01*
X45899Y130150D01*
X45636D01*
X45374Y129888D01*
Y129101D01*
X98524Y40945D02*
Y42519D01*
X99311D01*
X99574Y42257D01*
Y41732D01*
X99311Y41470D01*
X98524D01*
X99049D02*
X99574Y40945D01*
X100099D02*
X100623D01*
X100361D01*
Y42519D01*
X100099Y42257D01*
X102460Y42519D02*
X101410D01*
Y41732D01*
X101935Y41995D01*
X102198D01*
X102460Y41732D01*
Y41208D01*
X102198Y40945D01*
X101673D01*
X101410Y41208D01*
X56700Y111000D02*
Y112574D01*
X57487D01*
X57749Y112312D01*
Y111787D01*
X57487Y111525D01*
X56700D01*
X57225D02*
X57749Y111000D01*
X58274D02*
X58799D01*
X58537D01*
Y112574D01*
X58274Y112312D01*
X60373Y111000D02*
Y112574D01*
X59586Y111787D01*
X60636D01*
X52750Y112212D02*
X52487Y112474D01*
X51962D01*
X51700Y112212D01*
Y111162D01*
X51962Y110900D01*
X52487D01*
X52750Y111162D01*
X53274Y110900D02*
X53799D01*
X53537D01*
Y112474D01*
X53274Y112212D01*
X55373Y110900D02*
Y112474D01*
X54586Y111687D01*
X55636D01*
X60500Y122874D02*
Y121562D01*
X60762Y121300D01*
X61287D01*
X61550Y121562D01*
Y122874D01*
X62074Y121300D02*
X62599D01*
X62337D01*
Y122874D01*
X62074Y122612D01*
X52400Y119200D02*
Y120774D01*
X53187D01*
X53449Y120512D01*
Y119987D01*
X53187Y119725D01*
X52400D01*
X52925D02*
X53449Y119200D01*
X53974D02*
X54499D01*
X54237D01*
Y120774D01*
X53974Y120512D01*
X55286D02*
X55549Y120774D01*
X56073D01*
X56336Y120512D01*
Y119462D01*
X56073Y119200D01*
X55549D01*
X55286Y119462D01*
Y120512D01*
X57100Y119200D02*
Y120774D01*
X57887D01*
X58149Y120512D01*
Y119987D01*
X57887Y119725D01*
X57100D01*
X57625D02*
X58149Y119200D01*
X58674Y120512D02*
X58937Y120774D01*
X59461D01*
X59724Y120512D01*
Y120249D01*
X59461Y119987D01*
X59724Y119725D01*
Y119462D01*
X59461Y119200D01*
X58937D01*
X58674Y119462D01*
Y119725D01*
X58937Y119987D01*
X58674Y120249D01*
Y120512D01*
X58937Y119987D02*
X59461D01*
X24500Y141800D02*
Y143374D01*
X25287D01*
X25550Y143112D01*
Y142587D01*
X25287Y142325D01*
X24500D01*
X25025D02*
X25550Y141800D01*
X27124Y143374D02*
X26074D01*
Y142587D01*
X26599Y142850D01*
X26861D01*
X27124Y142587D01*
Y142062D01*
X26861Y141800D01*
X26337D01*
X26074Y142062D01*
X78149Y176112D02*
X77887Y176374D01*
X77362D01*
X77100Y176112D01*
Y175062D01*
X77362Y174800D01*
X77887D01*
X78149Y175062D01*
X79461Y174800D02*
Y176374D01*
X78674Y175587D01*
X79724D01*
X81036Y174800D02*
Y176374D01*
X80249Y175587D01*
X81298D01*
X84850Y176112D02*
X84587Y176374D01*
X84062D01*
X83800Y176112D01*
Y175062D01*
X84062Y174800D01*
X84587D01*
X84850Y175062D01*
X86161Y174800D02*
Y176374D01*
X85374Y175587D01*
X86424D01*
X86949Y174800D02*
X87473D01*
X87211D01*
Y176374D01*
X86949Y176112D01*
X92250Y176512D02*
X91987Y176774D01*
X91462D01*
X91200Y176512D01*
Y175462D01*
X91462Y175200D01*
X91987D01*
X92250Y175462D01*
X93561Y175200D02*
Y176774D01*
X92774Y175987D01*
X93824D01*
X94349Y176512D02*
X94611Y176774D01*
X95136D01*
X95398Y176512D01*
Y175462D01*
X95136Y175200D01*
X94611D01*
X94349Y175462D01*
Y176512D01*
D14*
X40506Y76481D02*
G03*
X40506Y77062I75J291D01*
G01*
X40312Y85929D02*
G03*
X40312Y86511I75J291D01*
G01*
Y95378D02*
G03*
X40312Y95959I75J291D01*
G01*
X95513Y56014D02*
Y59986D01*
X90345Y56014D02*
X95513D01*
Y64227D02*
Y68395D01*
X90345D02*
X95513D01*
X31596Y82590D02*
X37696D01*
X31596Y74890D02*
X37696D01*
X31402Y92039D02*
X37502D01*
X31402Y84339D02*
X37502D01*
X31402Y101488D02*
X37502D01*
X31402Y93788D02*
X37502D01*
D15*
X46764Y138402D02*
Y140551D01*
X46264Y138402D02*
X46764D01*
X46264D02*
Y140051D01*
X32764Y139469D02*
Y140551D01*
X46764D01*
X46264Y140051D02*
X46764Y140551D01*
Y134252D02*
Y136402D01*
X46264D02*
X46764D01*
X46264Y134752D02*
Y136402D01*
X32764Y134252D02*
Y135335D01*
Y134252D02*
X46764D01*
X46264Y134752D02*
X46764Y134252D01*
X37037Y106700D02*
Y107200D01*
X29163D02*
X37037D01*
X29163Y106700D02*
Y107200D01*
Y103200D02*
Y103700D01*
Y103200D02*
X37037D01*
Y103700D01*
X33100Y103200D02*
Y107200D01*
X45276Y166142D02*
X50787D01*
X50032Y171142D02*
X50787D01*
Y161142D02*
Y171142D01*
X50032Y161142D02*
X50787D01*
X45276D02*
X46031D01*
X45276D02*
Y171142D01*
X46031D01*
X39764Y166142D02*
X45276D01*
X39764Y161142D02*
X40520D01*
X39764D02*
Y171142D01*
X40520D01*
X44520D02*
X45276D01*
Y161142D02*
Y171142D01*
X44520Y161142D02*
X45276D01*
X40157Y169217D02*
Y169717D01*
X32283D02*
X40157D01*
X32283Y169217D02*
Y169717D01*
Y165717D02*
Y166217D01*
Y165717D02*
X40157D01*
Y166217D01*
X36220Y165717D02*
Y169717D01*
X39937Y164981D02*
Y165769D01*
X32063D02*
X39937D01*
X32063Y164981D02*
Y165769D01*
Y161831D02*
Y162619D01*
Y161831D02*
X39937D01*
Y162619D01*
X82284Y142913D02*
X83465D01*
Y153937D01*
X82284D02*
X83465D01*
X77953D02*
X79134D01*
X77953Y142913D02*
Y153937D01*
Y142913D02*
X79134D01*
X77953Y148425D02*
X83465D01*
X73632Y104463D02*
X74419D01*
X73632D02*
Y112337D01*
X74419D01*
X76781D02*
X77569D01*
Y104463D02*
Y112337D01*
X76781Y104463D02*
X77569D01*
X47606Y108268D02*
X48106D01*
X47606Y100394D02*
Y108268D01*
Y100394D02*
X48106D01*
X51106D02*
X51606D01*
Y108268D01*
X51106D02*
X51606D01*
X47606Y104331D02*
X51606D01*
X46850Y100551D02*
X47638D01*
Y108425D01*
X46850D02*
X47638D01*
X43701D02*
X44488D01*
X43701Y100551D02*
Y108425D01*
Y100551D02*
X44488D01*
X62417Y118559D02*
X65417D01*
X62417Y118059D02*
Y118559D01*
Y118059D02*
X65417D01*
Y118559D01*
X57417Y118059D02*
Y118559D01*
Y118059D02*
X60417D01*
Y118559D01*
X57417D02*
X60417D01*
X65417D02*
Y137059D01*
X57417Y118559D02*
Y137059D01*
X64075D02*
X65417D01*
X57417D02*
X58760D01*
X69291Y130677D02*
Y134677D01*
X73228Y130677D02*
Y131177D01*
X65354Y130677D02*
X73228D01*
X65354D02*
Y131177D01*
Y134177D02*
Y134677D01*
X73228D01*
Y134177D02*
Y134677D01*
X65748Y129232D02*
X66929D01*
X65748Y118209D02*
Y129232D01*
Y118209D02*
X66929D01*
X70079D02*
X71260D01*
Y129232D01*
X70079D02*
X71260D01*
X65748Y123721D02*
X71260D01*
X78315Y139370D02*
X82315D01*
X78315Y135433D02*
X78815D01*
X78315D02*
Y143307D01*
X78815D01*
X81815D02*
X82315D01*
Y135433D02*
Y143307D01*
X81815Y135433D02*
X82315D01*
X88583Y136614D02*
Y137992D01*
Y140748D02*
Y142126D01*
X94583Y141370D02*
Y142126D01*
X82677D02*
X94583D01*
X83083Y140370D02*
Y142126D01*
Y136614D02*
Y138370D01*
X82677Y136614D02*
X94583D01*
Y137370D01*
X82583Y142126D02*
X83083D01*
X82583Y140370D02*
Y142126D01*
Y140370D02*
X83083D01*
X82583Y136614D02*
X83083D01*
X82583D02*
Y138370D01*
X83083D01*
X88157Y132283D02*
X92158D01*
X88157Y128347D02*
X88657D01*
X88157D02*
Y136221D01*
X88657D01*
X91658D02*
X92158D01*
Y128347D02*
Y136221D01*
X91658Y128347D02*
X92158D01*
X88157Y124803D02*
X92158D01*
X91658Y128740D02*
X92158D01*
Y120866D02*
Y128740D01*
X91658Y120866D02*
X92158D01*
X88157D02*
X88657D01*
X88157D02*
Y128740D01*
X88657D01*
X144252Y57480D02*
Y58268D01*
X152126D01*
Y57480D02*
Y58268D01*
Y54331D02*
Y55118D01*
X144252Y54331D02*
X152126D01*
X144252D02*
Y55118D01*
X144095Y53543D02*
Y54331D01*
X151969D01*
Y53543D02*
Y54331D01*
Y50394D02*
Y51181D01*
X144095Y50394D02*
X151969D01*
X144095D02*
Y51181D01*
X99925Y52756D02*
X100425D01*
Y60630D01*
X99925D02*
X100425D01*
X96425D02*
X96925D01*
X96425Y52756D02*
Y60630D01*
Y52756D02*
X96925D01*
X96425Y56693D02*
X100425D01*
X107480Y68504D02*
Y69685D01*
X96457D02*
X107480D01*
X96457Y68504D02*
Y69685D01*
Y64173D02*
Y65354D01*
Y64173D02*
X107480D01*
Y65354D01*
X101969Y64173D02*
Y69685D01*
X115354Y53150D02*
Y60236D01*
X120473Y58661D02*
Y61024D01*
X110236D02*
X120473D01*
X110236Y58661D02*
Y61024D01*
Y52362D02*
Y54724D01*
Y52362D02*
X120473D01*
Y54724D01*
X105905Y44488D02*
Y45276D01*
Y44488D02*
X113779D01*
Y45276D01*
Y47638D02*
Y48425D01*
X105905D02*
X113779D01*
X105905Y47638D02*
Y48425D01*
Y48394D02*
Y48894D01*
Y48394D02*
X113779D01*
Y48894D01*
Y51894D02*
Y52394D01*
X105905D02*
X113779D01*
X105905Y51894D02*
Y52394D01*
X109843Y48394D02*
Y52394D01*
X75540Y2432D02*
X76918D01*
Y70D02*
Y2432D01*
X101328D02*
X102706D01*
X101328Y70D02*
Y2432D01*
X76918Y70D02*
X101328D01*
X73375Y562D02*
X74064Y70D01*
X75540Y2432D01*
X73375Y562D02*
X74556Y2432D01*
X103690D02*
X104871Y562D01*
X102706Y2432D02*
X104182Y70D01*
X104871Y562D01*
X74556Y15621D02*
Y22117D01*
Y2432D02*
Y6173D01*
Y22117D02*
X79477D01*
X98769D02*
X103690D01*
Y2432D02*
Y6173D01*
Y15621D02*
Y22117D01*
X74016Y24803D02*
Y25591D01*
Y24803D02*
X81890D01*
Y25591D01*
Y27953D02*
Y28740D01*
X74016D02*
X81890D01*
X74016Y27953D02*
Y28740D01*
X88114Y24409D02*
X88614D01*
Y32283D01*
X88114D02*
X88614D01*
X84614D02*
X85114D01*
X84614Y24409D02*
Y32283D01*
Y24409D02*
X85114D01*
X84614Y28346D02*
X88614D01*
X92051Y24409D02*
X92551D01*
Y32283D01*
X92051D02*
X92551D01*
X88551D02*
X89051D01*
X88551Y24409D02*
Y32283D01*
Y24409D02*
X89051D01*
X88551Y28346D02*
X92551D01*
X66142Y61575D02*
X66929D01*
X66142D02*
Y69449D01*
X66929D01*
X69291D02*
X70079D01*
Y61575D02*
Y69449D01*
X69291Y61575D02*
X70079D01*
X62205D02*
X62992D01*
X62205D02*
Y69449D01*
X62992D01*
X65354D02*
X66142D01*
Y61575D02*
Y69449D01*
X65354Y61575D02*
X66142D01*
X4379Y68788D02*
X4879D01*
X4379Y60914D02*
Y68788D01*
Y60914D02*
X4879D01*
X7879D02*
X8379D01*
Y68788D01*
X7879D02*
X8379D01*
X4379Y64851D02*
X8379D01*
X9279Y68725D02*
X9779D01*
X9279Y60851D02*
Y68725D01*
Y60851D02*
X9779D01*
X12779D02*
X13279D01*
Y68725D01*
X12779D02*
X13279D01*
X9279Y64788D02*
X13279D01*
X14379Y68757D02*
X14879D01*
X14379Y60883D02*
Y68757D01*
Y60883D02*
X14879D01*
X17879D02*
X18379D01*
Y68757D01*
X17879D02*
X18379D01*
X14379Y64820D02*
X18379D01*
X20873Y65832D02*
Y66332D01*
Y65832D02*
X28747D01*
Y66332D01*
Y69332D02*
Y69832D01*
X20873D02*
X28747D01*
X20873Y69332D02*
Y69832D01*
X24810Y65832D02*
Y69832D01*
X20773Y70832D02*
Y71332D01*
Y70832D02*
X28647D01*
Y71332D01*
Y74332D02*
Y74832D01*
X20773D02*
X28647D01*
X20773Y74332D02*
Y74832D01*
X24710Y70832D02*
Y74832D01*
X42965Y115650D02*
Y116992D01*
Y108992D02*
Y110335D01*
X24465Y116992D02*
X42965D01*
X24465Y108992D02*
X42965D01*
X24465Y113992D02*
Y116992D01*
X23965Y113992D02*
X24465D01*
X23965D02*
Y116992D01*
X24465D01*
X23965Y108992D02*
X24465D01*
X23965D02*
Y111992D01*
X24465D01*
Y108992D02*
Y111992D01*
X105437Y44882D02*
X105937D01*
Y52756D01*
X105437D02*
X105937D01*
X101937D02*
X102437D01*
X101937Y44882D02*
Y52756D01*
Y44882D02*
X102437D01*
X101937Y48819D02*
X105937D01*
X56661Y108268D02*
X57161D01*
X56661Y100394D02*
Y108268D01*
Y100394D02*
X57161D01*
X60161D02*
X60661D01*
Y108268D01*
X60161D02*
X60661D01*
X56661Y104331D02*
X60661D01*
X51575Y108169D02*
X52756D01*
X51575Y97146D02*
Y108169D01*
Y97146D02*
X52756D01*
X55905D02*
X57087D01*
Y108169D01*
X55905D02*
X57087D01*
X51575Y102657D02*
X57087D01*
X57055Y112598D02*
X61055D01*
X60555Y116535D02*
X61055D01*
Y108661D02*
Y116535D01*
X60555Y108661D02*
X61055D01*
X57055D02*
X57555D01*
X57055D02*
Y116535D01*
X57555D01*
X52331Y116535D02*
X52831D01*
X52331Y108661D02*
Y116535D01*
Y108661D02*
X52831D01*
X55831D02*
X56331D01*
Y116535D01*
X55831D02*
X56331D01*
X52331Y112598D02*
X56331D01*
X24409Y135008D02*
Y135508D01*
Y135008D02*
X32283D01*
Y135508D01*
Y138508D02*
Y139008D01*
X24409D02*
X32283D01*
X24409Y138508D02*
Y139008D01*
X28346Y135008D02*
Y139008D01*
D16*
X128642Y113287D02*
X142028D01*
X126673Y115256D02*
X128642Y113287D01*
X126673Y107480D02*
X130413D01*
X132776Y124311D02*
X142224D01*
X126575Y130512D02*
X132776Y124311D01*
X130020Y119095D02*
X131496D01*
X126476Y122638D02*
X130020Y119095D01*
X132874Y130315D02*
X135630D01*
X126181Y137008D02*
X132874Y130315D01*
X133366Y135827D02*
X136024D01*
X130118Y139075D02*
X133366Y135827D01*
X130118Y139075D02*
Y145571D01*
X132972Y148425D01*
X134252D01*
X138386Y140945D02*
X139469D01*
X136909Y142421D02*
X138386Y140945D01*
X136909Y142421D02*
Y143405D01*
X137894Y144390D01*
X141339D01*
X142913Y145965D01*
D17*
X82815Y38356D02*
Y44754D01*
X95138Y38356D02*
Y44754D01*
X73090Y105512D02*
Y111811D01*
X60768Y105512D02*
Y111811D01*
D18*
X159532Y163334D02*
X157533D01*
X158532D01*
Y158335D01*
X157533Y157336D01*
X156533D01*
X155533Y158335D01*
X165530Y163334D02*
X163531Y162334D01*
X161531Y160335D01*
Y158335D01*
X162531Y157336D01*
X164530D01*
X165530Y158335D01*
Y159335D01*
X164530Y160335D01*
X161531D01*
D19*
X226667Y80056D02*
Y82056D01*
Y81056D01*
X221669D01*
X220669Y82056D01*
Y83055D01*
X221669Y84055D01*
X226667Y74058D02*
X225668Y76058D01*
X223668Y78057D01*
X221669D01*
X220669Y77057D01*
Y75058D01*
X221669Y74058D01*
X222669D01*
X223668Y75058D01*
Y78057D01*
M02*
