G04*
G04 #@! TF.GenerationSoftware,Altium Limited,Altium Designer,24.10.1 (45)*
G04*
G04 Layer_Color=128*
%FSLAX25Y25*%
%MOIN*%
G70*
G04*
G04 #@! TF.SameCoordinates,1F7DBCF5-7643-4606-9888-D8ADD4ED05EF*
G04*
G04*
G04 #@! TF.FilePolarity,Positive*
G04*
G01*
G75*
%ADD17C,0.00500*%
D17*
X79576Y20542D02*
X82332D01*
X80954Y19165D02*
Y21921D01*
X95914Y20542D02*
X98670D01*
X97292Y19165D02*
Y21921D01*
X164173Y10630D02*
X171260D01*
X167717Y7087D02*
Y14173D01*
X161811Y166142D02*
X168898D01*
X165354Y162598D02*
Y169685D01*
X9055Y164567D02*
X16142D01*
X12598Y161024D02*
Y168110D01*
X9449Y13386D02*
X16535D01*
X12992Y9843D02*
Y16929D01*
X77953Y103051D02*
X79331D01*
X78642Y102362D02*
Y103740D01*
X92225Y100786D02*
X93603D01*
X92914Y100097D02*
Y101475D01*
X93911Y107800D02*
X95289D01*
X94600Y107111D02*
Y108489D01*
X48425Y78347D02*
X49803D01*
X49114Y77658D02*
Y79035D01*
X44508Y92200D02*
X45492D01*
X45000Y91708D02*
Y92692D01*
X55808Y82700D02*
X56792D01*
X56300Y82208D02*
Y83192D01*
X46608Y94400D02*
X47592D01*
X47100Y93908D02*
Y94892D01*
X56108Y85500D02*
X57092D01*
X56600Y85008D02*
Y85992D01*
X55908Y88600D02*
X56892D01*
X56400Y88108D02*
Y89092D01*
X49708Y95800D02*
X50692D01*
X50200Y95308D02*
Y96292D01*
X101211Y103100D02*
X102589D01*
X101900Y102411D02*
Y103789D01*
X88111Y108300D02*
X89489D01*
X88800Y107611D02*
Y108989D01*
X128311Y74000D02*
X129689D01*
X129000Y73311D02*
Y74689D01*
X128411Y69500D02*
X129789D01*
X129100Y68811D02*
Y70189D01*
X163811Y137300D02*
X165189D01*
X164500Y136611D02*
Y137989D01*
X132311Y110200D02*
X133689D01*
X133000Y109511D02*
Y110889D01*
X71011Y41300D02*
X72389D01*
X71700Y40611D02*
Y41989D01*
X71011Y38600D02*
X72389D01*
X71700Y37911D02*
Y39289D01*
X30706Y73600D02*
X31494D01*
X31100Y73206D02*
Y73994D01*
X89385Y52843D02*
X90763D01*
X90074Y52154D02*
Y53532D01*
X85561Y52943D02*
X86939D01*
X86250Y52254D02*
Y53632D01*
M02*
