M48
;Layer_Color=9474304
;FILE_FORMAT=2:5
INCH,TZ
;TYPE=PLATED
T01F00S00C0.00787
T02F00S00C0.00984
T03F00S00C0.01378
T04F00S00C0.07087
;TYPE=NON_PLATED
T05F00S00C0.02756
%
T01
X31100Y73600
T02
X56300Y82700
X56600Y85500
X56400Y88600
X50200Y95800
X47100Y94400
X45000Y92200
T03
X71700Y38600
Y41300
X86250Y52943
X90074Y52843
X92914Y100786
X94600Y107800
X88800Y108300
X78642Y103051
X101900Y103100
X133000Y110200
X129000Y74000
X129100Y69500
X164500Y137300
X49114Y78347
T04
X12992Y13386
X167717Y10630
X165354Y166142
X12598Y164567
T05
X80954Y20542
X97292
M30
