G04*
G04 #@! TF.GenerationSoftware,Altium Limited,Altium Designer,24.10.1 (45)*
G04*
G04 Layer_Color=32896*
%FSLAX25Y25*%
%MOIN*%
G70*
G04*
G04 #@! TF.SameCoordinates,1F7DBCF5-7643-4606-9888-D8ADD4ED05EF*
G04*
G04*
G04 #@! TF.FilePolarity,Positive*
G04*
G01*
G75*
%ADD10C,0.00787*%
%ADD13C,0.00394*%
%ADD14C,0.00600*%
%ADD15C,0.00591*%
%ADD17C,0.00500*%
%ADD18C,0.01000*%
%ADD141C,0.00300*%
G36*
X52550Y155713D02*
Y154213D01*
X53550D01*
Y155713D01*
X52550D01*
D02*
G37*
D10*
X133756Y123423D02*
G03*
X133756Y123423I-394J0D01*
G01*
X164328Y26553D02*
G03*
X164328Y26553I-394J0D01*
G01*
X74864Y126368D02*
G03*
X74864Y126368I-394J0D01*
G01*
X121985Y22723D02*
X129367D01*
X133304D01*
X132320Y3825D02*
X137241D01*
X111650D02*
Y18786D01*
Y3825D02*
X119524D01*
X115587Y22723D02*
X119524D01*
X121985D01*
X119524Y3825D02*
X132320D01*
X137241D02*
Y18786D01*
Y7762D02*
X140391D01*
Y9337D01*
Y18786D02*
Y20754D01*
X138816D02*
X140391D01*
X108501D02*
X110076D01*
X108501Y18786D02*
Y20754D01*
Y7762D02*
Y9337D01*
Y7762D02*
X111650D01*
X110076Y20754D02*
X111650D01*
Y18786D02*
Y20754D01*
Y22723D01*
X115587D01*
X137241Y18786D02*
Y20754D01*
X138816D01*
X137241D02*
Y22723D01*
X133304D02*
X137241D01*
X151691Y59935D02*
Y62935D01*
Y59935D02*
X163191D01*
X171191Y64935D02*
Y86809D01*
X151691Y91683D02*
X163191D01*
X151691Y88683D02*
Y91683D01*
X37581Y100400D02*
X38762D01*
X34038D02*
X34825D01*
X37581Y98431D02*
Y101975D01*
X34825Y100400D02*
X37581Y98431D01*
X34825Y100400D02*
X37581Y101975D01*
X34825Y98431D02*
Y102368D01*
X25000Y110581D02*
Y111762D01*
Y107038D02*
Y107825D01*
X23425Y110581D02*
X26969D01*
X25000Y107825D02*
X26969Y110581D01*
X23425D02*
X25000Y107825D01*
X23031D02*
X26969D01*
X26116Y77062D02*
Y80062D01*
X14616Y77062D02*
X26116D01*
X6616Y81968D02*
Y99873D01*
X14616Y104873D02*
X26116D01*
Y101873D02*
Y104873D01*
X37061Y90800D02*
X38242D01*
X33518D02*
X34305D01*
X37061Y88832D02*
Y92375D01*
X34305Y90800D02*
X37061Y88832D01*
X34305Y90800D02*
X37061Y92375D01*
X34305Y88832D02*
Y92769D01*
X24800Y68538D02*
Y69719D01*
Y72475D02*
Y73262D01*
X22831Y69719D02*
X26375D01*
X22831D02*
X24800Y72475D01*
X26375Y69719D01*
X22831Y72475D02*
X26768D01*
X23416Y123169D02*
Y127106D01*
X21448Y123169D02*
X23416D01*
X21448Y121595D02*
Y123169D01*
X19479D02*
X21448D01*
X23416Y144823D02*
Y148760D01*
X21448D02*
X23416D01*
X19479D02*
X21448D01*
Y150335D01*
X8456Y148760D02*
Y151909D01*
X10031D01*
X19479D02*
X21448D01*
Y150335D02*
Y151909D01*
Y120020D02*
Y121595D01*
X19479Y120020D02*
X21448D01*
X8456D02*
X10031D01*
X8456D02*
Y123169D01*
X4519D02*
X19479D01*
X4519Y128091D02*
Y140886D01*
X23416Y138425D02*
Y140886D01*
Y144823D01*
X4519Y140886D02*
Y148760D01*
X19479D01*
X4519Y123169D02*
Y128091D01*
X23416Y127106D02*
Y131043D01*
Y138425D01*
X76007Y140269D02*
X90968D01*
Y127671D02*
Y140269D01*
X75220Y139482D02*
X76007Y140269D01*
X75220Y127671D02*
Y139482D01*
Y127671D02*
X90968D01*
D13*
X75023Y140663D02*
G03*
X75023Y140663I-197J0D01*
G01*
X144051Y37674D02*
X144575D01*
X144313D01*
Y36362D01*
X144575Y36100D01*
X144838D01*
X145100Y36362D01*
X143526Y37674D02*
X142476D01*
Y37412D01*
X143526Y36362D01*
Y36100D01*
X143300Y90600D02*
Y92174D01*
X142513D01*
X142251Y91912D01*
Y91387D01*
X142513Y91125D01*
X143300D01*
X142775D02*
X142251Y90600D01*
X140676D02*
X141726D01*
X140676Y91650D01*
Y91912D01*
X140939Y92174D01*
X141463D01*
X141726Y91912D01*
X140151Y92174D02*
X139102D01*
Y91912D01*
X140151Y90862D01*
Y90600D01*
X149800Y74300D02*
Y75874D01*
X149013D01*
X148750Y75612D01*
Y75087D01*
X149013Y74825D01*
X149800D01*
X149275D02*
X148750Y74300D01*
X147176D02*
X148226D01*
X147176Y75349D01*
Y75612D01*
X147439Y75874D01*
X147963D01*
X148226Y75612D01*
X145602Y75874D02*
X146651D01*
Y75087D01*
X146127Y75349D01*
X145864D01*
X145602Y75087D01*
Y74562D01*
X145864Y74300D01*
X146389D01*
X146651Y74562D01*
X149800Y78400D02*
Y79974D01*
X149013D01*
X148750Y79712D01*
Y79187D01*
X149013Y78925D01*
X149800D01*
X149275D02*
X148750Y78400D01*
X147176D02*
X148226D01*
X147176Y79449D01*
Y79712D01*
X147439Y79974D01*
X147963D01*
X148226Y79712D01*
X145602Y79974D02*
X146127Y79712D01*
X146651Y79187D01*
Y78662D01*
X146389Y78400D01*
X145864D01*
X145602Y78662D01*
Y78925D01*
X145864Y79187D01*
X146651D01*
X173151Y100074D02*
X173675D01*
X173413D01*
Y98762D01*
X173675Y98500D01*
X173938D01*
X174200Y98762D01*
X172626Y99812D02*
X172363Y100074D01*
X171839D01*
X171576Y99812D01*
Y99550D01*
X171839Y99287D01*
X172101D01*
X171839D01*
X171576Y99025D01*
Y98762D01*
X171839Y98500D01*
X172363D01*
X172626Y98762D01*
X149000Y90600D02*
Y92174D01*
X148213D01*
X147950Y91912D01*
Y91387D01*
X148213Y91125D01*
X149000D01*
X148475D02*
X147950Y90600D01*
X146376D02*
X147426D01*
X146376Y91650D01*
Y91912D01*
X146639Y92174D01*
X147163D01*
X147426Y91912D01*
X145851D02*
X145589Y92174D01*
X145064D01*
X144802Y91912D01*
Y91650D01*
X145064Y91387D01*
X144802Y91125D01*
Y90862D01*
X145064Y90600D01*
X145589D01*
X145851Y90862D01*
Y91125D01*
X145589Y91387D01*
X145851Y91650D01*
Y91912D01*
X145589Y91387D02*
X145064D01*
X172400Y147774D02*
Y146462D01*
X172138Y146200D01*
X171613D01*
X171351Y146462D01*
Y147774D01*
X170039Y146200D02*
Y147774D01*
X170826Y146987D01*
X169776D01*
X34800Y110600D02*
Y112174D01*
X34013D01*
X33751Y111912D01*
Y111387D01*
X34013Y111125D01*
X34800D01*
X34275D02*
X33751Y110600D01*
X33226Y111912D02*
X32963Y112174D01*
X32439D01*
X32176Y111912D01*
Y111650D01*
X32439Y111387D01*
X32701D01*
X32439D01*
X32176Y111125D01*
Y110862D01*
X32439Y110600D01*
X32963D01*
X33226Y110862D01*
X30864Y110600D02*
Y112174D01*
X31651Y111387D01*
X30602D01*
X33400Y107774D02*
Y106200D01*
X32613D01*
X32351Y106462D01*
Y107512D01*
X32613Y107774D01*
X33400D01*
X31826Y106200D02*
X31301D01*
X31563D01*
Y107774D01*
X31826Y107512D01*
X29727Y106200D02*
Y107774D01*
X30514Y106987D01*
X29464D01*
X25900Y120674D02*
Y119100D01*
X25113D01*
X24850Y119362D01*
Y120412D01*
X25113Y120674D01*
X25900D01*
X24326Y119100D02*
X23801D01*
X24063D01*
Y120674D01*
X24326Y120412D01*
X23014D02*
X22751Y120674D01*
X22227D01*
X21964Y120412D01*
Y119362D01*
X22227Y119100D01*
X22751D01*
X23014Y119362D01*
Y120412D01*
X5150Y113274D02*
X5675D01*
X5413D01*
Y111962D01*
X5675Y111700D01*
X5938D01*
X6200Y111962D01*
X3839Y111700D02*
Y113274D01*
X4626Y112487D01*
X3576D01*
X32400Y98174D02*
Y96600D01*
X31613D01*
X31350Y96862D01*
Y97912D01*
X31613Y98174D01*
X32400D01*
X30826Y96600D02*
X30301D01*
X30563D01*
Y98174D01*
X30826Y97912D01*
X29514Y96600D02*
X28989D01*
X29251D01*
Y98174D01*
X29514Y97912D01*
X34200Y100100D02*
Y101674D01*
X33413D01*
X33151Y101412D01*
Y100887D01*
X33413Y100625D01*
X34200D01*
X33675D02*
X33151Y100100D01*
X32626Y101412D02*
X32363Y101674D01*
X31839D01*
X31576Y101412D01*
Y101149D01*
X31839Y100887D01*
X32101D01*
X31839D01*
X31576Y100625D01*
Y100362D01*
X31839Y100100D01*
X32363D01*
X32626Y100362D01*
X30002Y101674D02*
X31051D01*
Y100887D01*
X30527Y101149D01*
X30264D01*
X30002Y100887D01*
Y100362D01*
X30264Y100100D01*
X30789D01*
X31051Y100362D01*
X33900Y90200D02*
Y91774D01*
X33113D01*
X32851Y91512D01*
Y90987D01*
X33113Y90725D01*
X33900D01*
X33375D02*
X32851Y90200D01*
X32326Y91512D02*
X32063Y91774D01*
X31539D01*
X31276Y91512D01*
Y91250D01*
X31539Y90987D01*
X31801D01*
X31539D01*
X31276Y90725D01*
Y90462D01*
X31539Y90200D01*
X32063D01*
X32326Y90462D01*
X30751Y91774D02*
X29702D01*
Y91512D01*
X30751Y90462D01*
Y90200D01*
X25700Y82174D02*
Y80600D01*
X24913D01*
X24651Y80862D01*
Y81912D01*
X24913Y82174D01*
X25700D01*
X24126Y80600D02*
X23601D01*
X23863D01*
Y82174D01*
X24126Y81912D01*
X21764Y80600D02*
X22814D01*
X21764Y81650D01*
Y81912D01*
X22027Y82174D01*
X22551D01*
X22814Y81912D01*
X91100Y145074D02*
Y144812D01*
X90575Y144287D01*
X90051Y144812D01*
Y145074D01*
X90575Y144287D02*
Y143500D01*
X89526D02*
X89001D01*
X89263D01*
Y145074D01*
X89526Y144812D01*
X115100Y131074D02*
Y129762D01*
X114838Y129500D01*
X114313D01*
X114050Y129762D01*
Y131074D01*
X113526Y130812D02*
X113263Y131074D01*
X112739D01*
X112476Y130812D01*
Y130550D01*
X112739Y130287D01*
X113001D01*
X112739D01*
X112476Y130025D01*
Y129762D01*
X112739Y129500D01*
X113263D01*
X113526Y129762D01*
X53200Y166274D02*
Y164962D01*
X52938Y164700D01*
X52413D01*
X52150Y164962D01*
Y166274D01*
X50576Y164700D02*
X51626D01*
X50576Y165750D01*
Y166012D01*
X50839Y166274D01*
X51363D01*
X51626Y166012D01*
X99450Y176012D02*
X99713Y176274D01*
X100238D01*
X100500Y176012D01*
Y175750D01*
X100238Y175487D01*
X99713D01*
X99450Y175225D01*
Y174962D01*
X99713Y174700D01*
X100238D01*
X100500Y174962D01*
X97876Y174700D02*
X98926D01*
X97876Y175750D01*
Y176012D01*
X98139Y176274D01*
X98663D01*
X98926Y176012D01*
X172100Y121000D02*
Y122574D01*
X171313D01*
X171051Y122312D01*
Y121787D01*
X171313Y121525D01*
X172100D01*
X171575D02*
X171051Y121000D01*
X170526Y122312D02*
X170263Y122574D01*
X169739D01*
X169476Y122312D01*
Y122049D01*
X169739Y121787D01*
X170001D01*
X169739D01*
X169476Y121525D01*
Y121262D01*
X169739Y121000D01*
X170263D01*
X170526Y121262D01*
X167902Y121000D02*
X168951D01*
X167902Y122049D01*
Y122312D01*
X168164Y122574D01*
X168689D01*
X168951Y122312D01*
X134900Y143800D02*
Y145374D01*
X134113D01*
X133851Y145112D01*
Y144587D01*
X134113Y144325D01*
X134900D01*
X134375D02*
X133851Y143800D01*
X133326Y145112D02*
X133063Y145374D01*
X132539D01*
X132276Y145112D01*
Y144850D01*
X132539Y144587D01*
X132801D01*
X132539D01*
X132276Y144325D01*
Y144062D01*
X132539Y143800D01*
X133063D01*
X133326Y144062D01*
X131751Y143800D02*
X131227D01*
X131489D01*
Y145374D01*
X131751Y145112D01*
X51400Y153700D02*
Y155274D01*
X50613D01*
X50350Y155012D01*
Y154487D01*
X50613Y154225D01*
X51400D01*
X50875D02*
X50350Y153700D01*
X49826Y155012D02*
X49563Y155274D01*
X49039D01*
X48776Y155012D01*
Y154750D01*
X49039Y154487D01*
X49301D01*
X49039D01*
X48776Y154225D01*
Y153962D01*
X49039Y153700D01*
X49563D01*
X49826Y153962D01*
X48251Y155012D02*
X47989Y155274D01*
X47464D01*
X47202Y155012D01*
Y153962D01*
X47464Y153700D01*
X47989D01*
X48251Y153962D01*
Y155012D01*
X41900Y164000D02*
Y165574D01*
X41113D01*
X40850Y165312D01*
Y164787D01*
X41113Y164525D01*
X41900D01*
X41375D02*
X40850Y164000D01*
X39276D02*
X40326D01*
X39276Y165050D01*
Y165312D01*
X39539Y165574D01*
X40063D01*
X40326Y165312D01*
X38751Y164262D02*
X38489Y164000D01*
X37964D01*
X37702Y164262D01*
Y165312D01*
X37964Y165574D01*
X38489D01*
X38751Y165312D01*
Y165050D01*
X38489Y164787D01*
X37702D01*
X32950Y160974D02*
X33475D01*
X33213D01*
Y159662D01*
X33475Y159400D01*
X33738D01*
X34000Y159662D01*
X32426Y160712D02*
X32163Y160974D01*
X31639D01*
X31376Y160712D01*
Y160450D01*
X31639Y160187D01*
X31376Y159925D01*
Y159662D01*
X31639Y159400D01*
X32163D01*
X32426Y159662D01*
Y159925D01*
X32163Y160187D01*
X32426Y160450D01*
Y160712D01*
X32163Y160187D02*
X31639D01*
X168000Y48374D02*
X167475D01*
X167738D01*
Y46800D01*
X168000D01*
X167475D01*
X165639Y48112D02*
X165901Y48374D01*
X166426D01*
X166688Y48112D01*
Y47062D01*
X166426Y46800D01*
X165901D01*
X165639Y47062D01*
X164327Y46800D02*
Y48374D01*
X165114Y47587D01*
X164064D01*
X29151Y157612D02*
X29413Y157874D01*
X29938D01*
X30200Y157612D01*
Y156562D01*
X29938Y156300D01*
X29413D01*
X29151Y156562D01*
X27576Y157874D02*
X28626D01*
Y157087D01*
X28101Y157350D01*
X27839D01*
X27576Y157087D01*
Y156562D01*
X27839Y156300D01*
X28363D01*
X28626Y156562D01*
X26002Y157874D02*
X27051D01*
Y157087D01*
X26527Y157350D01*
X26264D01*
X26002Y157087D01*
Y156562D01*
X26264Y156300D01*
X26789D01*
X27051Y156562D01*
X105450Y33012D02*
X105713Y33274D01*
X106238D01*
X106500Y33012D01*
Y31962D01*
X106238Y31700D01*
X105713D01*
X105450Y31962D01*
X103876Y33274D02*
X104926D01*
Y32487D01*
X104401Y32750D01*
X104139D01*
X103876Y32487D01*
Y31962D01*
X104139Y31700D01*
X104663D01*
X104926Y31962D01*
X102302Y31700D02*
X103351D01*
X102302Y32750D01*
Y33012D01*
X102564Y33274D01*
X103089D01*
X103351Y33012D01*
X99050Y154012D02*
X99313Y154274D01*
X99838D01*
X100100Y154012D01*
Y152962D01*
X99838Y152700D01*
X99313D01*
X99050Y152962D01*
X98526Y154012D02*
X98263Y154274D01*
X97739D01*
X97476Y154012D01*
Y153750D01*
X97739Y153487D01*
X98001D01*
X97739D01*
X97476Y153225D01*
Y152962D01*
X97739Y152700D01*
X98263D01*
X98526Y152962D01*
X96951Y154012D02*
X96689Y154274D01*
X96164D01*
X95902Y154012D01*
Y153750D01*
X96164Y153487D01*
X95902Y153225D01*
Y152962D01*
X96164Y152700D01*
X96689D01*
X96951Y152962D01*
Y153225D01*
X96689Y153487D01*
X96951Y153750D01*
Y154012D01*
X96689Y153487D02*
X96164D01*
X122050Y90612D02*
X122313Y90874D01*
X122838D01*
X123100Y90612D01*
Y89562D01*
X122838Y89300D01*
X122313D01*
X122050Y89562D01*
X121526Y90612D02*
X121263Y90874D01*
X120739D01*
X120476Y90612D01*
Y90350D01*
X120739Y90087D01*
X121001D01*
X120739D01*
X120476Y89825D01*
Y89562D01*
X120739Y89300D01*
X121263D01*
X121526Y89562D01*
X119951Y90874D02*
X118902D01*
Y90612D01*
X119951Y89562D01*
Y89300D01*
X87850Y152012D02*
X88113Y152274D01*
X88638D01*
X88900Y152012D01*
Y150962D01*
X88638Y150700D01*
X88113D01*
X87850Y150962D01*
X87326Y152012D02*
X87063Y152274D01*
X86539D01*
X86276Y152012D01*
Y151750D01*
X86539Y151487D01*
X86801D01*
X86539D01*
X86276Y151225D01*
Y150962D01*
X86539Y150700D01*
X87063D01*
X87326Y150962D01*
X84702Y152274D02*
X85227Y152012D01*
X85751Y151487D01*
Y150962D01*
X85489Y150700D01*
X84964D01*
X84702Y150962D01*
Y151225D01*
X84964Y151487D01*
X85751D01*
X80351Y151912D02*
X80613Y152174D01*
X81138D01*
X81400Y151912D01*
Y150862D01*
X81138Y150600D01*
X80613D01*
X80351Y150862D01*
X79826Y151912D02*
X79563Y152174D01*
X79039D01*
X78776Y151912D01*
Y151649D01*
X79039Y151387D01*
X79301D01*
X79039D01*
X78776Y151125D01*
Y150862D01*
X79039Y150600D01*
X79563D01*
X79826Y150862D01*
X77202Y152174D02*
X78251D01*
Y151387D01*
X77727Y151649D01*
X77464D01*
X77202Y151387D01*
Y150862D01*
X77464Y150600D01*
X77989D01*
X78251Y150862D01*
X170950Y115812D02*
X171213Y116074D01*
X171738D01*
X172000Y115812D01*
Y114762D01*
X171738Y114500D01*
X171213D01*
X170950Y114762D01*
X170426Y115812D02*
X170163Y116074D01*
X169639D01*
X169376Y115812D01*
Y115550D01*
X169639Y115287D01*
X169901D01*
X169639D01*
X169376Y115025D01*
Y114762D01*
X169639Y114500D01*
X170163D01*
X170426Y114762D01*
X168064Y114500D02*
Y116074D01*
X168851Y115287D01*
X167802D01*
X119051Y118212D02*
X119313Y118474D01*
X119838D01*
X120100Y118212D01*
Y117162D01*
X119838Y116900D01*
X119313D01*
X119051Y117162D01*
X118526Y118212D02*
X118263Y118474D01*
X117739D01*
X117476Y118212D01*
Y117949D01*
X117739Y117687D01*
X118001D01*
X117739D01*
X117476Y117425D01*
Y117162D01*
X117739Y116900D01*
X118263D01*
X118526Y117162D01*
X115902Y116900D02*
X116951D01*
X115902Y117949D01*
Y118212D01*
X116164Y118474D01*
X116689D01*
X116951Y118212D01*
X98950Y136312D02*
X99213Y136574D01*
X99738D01*
X100000Y136312D01*
Y135262D01*
X99738Y135000D01*
X99213D01*
X98950Y135262D01*
X98426Y136312D02*
X98163Y136574D01*
X97639D01*
X97376Y136312D01*
Y136049D01*
X97639Y135787D01*
X97901D01*
X97639D01*
X97376Y135525D01*
Y135262D01*
X97639Y135000D01*
X98163D01*
X98426Y135262D01*
X96851Y135000D02*
X96327D01*
X96589D01*
Y136574D01*
X96851Y136312D01*
X64951Y121012D02*
X65213Y121274D01*
X65738D01*
X66000Y121012D01*
Y119962D01*
X65738Y119700D01*
X65213D01*
X64951Y119962D01*
X64426Y121012D02*
X64163Y121274D01*
X63639D01*
X63376Y121012D01*
Y120749D01*
X63639Y120487D01*
X63901D01*
X63639D01*
X63376Y120225D01*
Y119962D01*
X63639Y119700D01*
X64163D01*
X64426Y119962D01*
X62851Y121012D02*
X62589Y121274D01*
X62064D01*
X61802Y121012D01*
Y119962D01*
X62064Y119700D01*
X62589D01*
X62851Y119962D01*
Y121012D01*
X74850Y131412D02*
X75113Y131674D01*
X75638D01*
X75900Y131412D01*
Y130362D01*
X75638Y130100D01*
X75113D01*
X74850Y130362D01*
X73276Y130100D02*
X74326D01*
X73276Y131149D01*
Y131412D01*
X73539Y131674D01*
X74063D01*
X74326Y131412D01*
X72751Y130362D02*
X72489Y130100D01*
X71964D01*
X71702Y130362D01*
Y131412D01*
X71964Y131674D01*
X72489D01*
X72751Y131412D01*
Y131149D01*
X72489Y130887D01*
X71702D01*
X113550Y85312D02*
X113813Y85574D01*
X114338D01*
X114600Y85312D01*
Y84262D01*
X114338Y84000D01*
X113813D01*
X113550Y84262D01*
X111976Y84000D02*
X113026D01*
X111976Y85049D01*
Y85312D01*
X112239Y85574D01*
X112763D01*
X113026Y85312D01*
X111451D02*
X111189Y85574D01*
X110664D01*
X110402Y85312D01*
Y85049D01*
X110664Y84787D01*
X110402Y84525D01*
Y84262D01*
X110664Y84000D01*
X111189D01*
X111451Y84262D01*
Y84525D01*
X111189Y84787D01*
X111451Y85049D01*
Y85312D01*
X111189Y84787D02*
X110664D01*
X71250Y77312D02*
X71513Y77574D01*
X72038D01*
X72300Y77312D01*
Y76262D01*
X72038Y76000D01*
X71513D01*
X71250Y76262D01*
X69676Y76000D02*
X70726D01*
X69676Y77049D01*
Y77312D01*
X69939Y77574D01*
X70463D01*
X70726Y77312D01*
X69151Y77574D02*
X68102D01*
Y77312D01*
X69151Y76262D01*
Y76000D01*
X66650Y77312D02*
X66913Y77574D01*
X67438D01*
X67700Y77312D01*
Y76262D01*
X67438Y76000D01*
X66913D01*
X66650Y76262D01*
X65076Y76000D02*
X66126D01*
X65076Y77049D01*
Y77312D01*
X65339Y77574D01*
X65863D01*
X66126Y77312D01*
X63502Y77574D02*
X64027Y77312D01*
X64551Y76787D01*
Y76262D01*
X64289Y76000D01*
X63764D01*
X63502Y76262D01*
Y76525D01*
X63764Y76787D01*
X64551D01*
X47451Y177212D02*
X47713Y177474D01*
X48238D01*
X48500Y177212D01*
Y176162D01*
X48238Y175900D01*
X47713D01*
X47451Y176162D01*
X45876Y175900D02*
X46926D01*
X45876Y176950D01*
Y177212D01*
X46139Y177474D01*
X46663D01*
X46926Y177212D01*
X44302Y177474D02*
X45351D01*
Y176687D01*
X44827Y176950D01*
X44564D01*
X44302Y176687D01*
Y176162D01*
X44564Y175900D01*
X45089D01*
X45351Y176162D01*
X47550Y171312D02*
X47813Y171574D01*
X48338D01*
X48600Y171312D01*
Y170262D01*
X48338Y170000D01*
X47813D01*
X47550Y170262D01*
X45976Y170000D02*
X47026D01*
X45976Y171049D01*
Y171312D01*
X46239Y171574D01*
X46763D01*
X47026Y171312D01*
X44664Y170000D02*
Y171574D01*
X45451Y170787D01*
X44402D01*
X149951Y50912D02*
X150213Y51174D01*
X150738D01*
X151000Y50912D01*
Y49862D01*
X150738Y49600D01*
X150213D01*
X149951Y49862D01*
X148376Y49600D02*
X149426D01*
X148376Y50649D01*
Y50912D01*
X148639Y51174D01*
X149163D01*
X149426Y50912D01*
X147851D02*
X147589Y51174D01*
X147064D01*
X146802Y50912D01*
Y50649D01*
X147064Y50387D01*
X147327D01*
X147064D01*
X146802Y50125D01*
Y49862D01*
X147064Y49600D01*
X147589D01*
X147851Y49862D01*
X150751Y37912D02*
X151013Y38174D01*
X151538D01*
X151800Y37912D01*
Y36862D01*
X151538Y36600D01*
X151013D01*
X150751Y36862D01*
X149176Y36600D02*
X150226D01*
X149176Y37650D01*
Y37912D01*
X149439Y38174D01*
X149963D01*
X150226Y37912D01*
X147602Y36600D02*
X148651D01*
X147602Y37650D01*
Y37912D01*
X147864Y38174D01*
X148389D01*
X148651Y37912D01*
X164151Y55012D02*
X164413Y55274D01*
X164938D01*
X165200Y55012D01*
Y53962D01*
X164938Y53700D01*
X164413D01*
X164151Y53962D01*
X162576Y53700D02*
X163626D01*
X162576Y54750D01*
Y55012D01*
X162839Y55274D01*
X163363D01*
X163626Y55012D01*
X162051Y53700D02*
X161527D01*
X161789D01*
Y55274D01*
X162051Y55012D01*
D14*
X56139Y142215D02*
G03*
X56139Y142215I-557J0D01*
G01*
X52450Y152382D02*
Y153511D01*
X43350Y152382D02*
Y153511D01*
Y161481D02*
X45464D01*
X52450Y160352D02*
Y161481D01*
X50336Y152382D02*
X52450D01*
X43350D02*
X45464D01*
X43350Y160352D02*
Y161481D01*
X50336D02*
X52450D01*
D15*
X142800Y87937D02*
X143300D01*
Y80063D02*
Y87937D01*
X142800Y80063D02*
X143300D01*
X139300D02*
X139800D01*
X139300D02*
Y87937D01*
X139800D01*
X139300Y84000D02*
X143300D01*
X142063Y71000D02*
Y71500D01*
X149937D01*
Y71000D02*
Y71500D01*
Y67500D02*
Y68000D01*
X142063Y67500D02*
X149937D01*
X142063D02*
Y68000D01*
X146000Y67500D02*
Y71500D01*
X142063Y75100D02*
Y75600D01*
X149937D01*
Y75100D02*
Y75600D01*
Y71600D02*
Y72100D01*
X142063Y71600D02*
X149937D01*
X142063D02*
Y72100D01*
X146000Y71600D02*
Y75600D01*
X148500Y87937D02*
X149000D01*
Y80063D02*
Y87937D01*
X148500Y80063D02*
X149000D01*
X145000D02*
X145500D01*
X145000D02*
Y87937D01*
X145500D01*
X145000Y84000D02*
X149000D01*
X30463Y107300D02*
Y107800D01*
X38337D01*
Y107300D02*
Y107800D01*
Y103800D02*
Y104300D01*
X30463Y103800D02*
X38337D01*
X30463D02*
Y104300D01*
X34400Y103800D02*
Y107800D01*
X29400Y101400D02*
Y103550D01*
Y101400D02*
X29900D01*
Y103050D01*
X43400Y102467D02*
Y103550D01*
X29400D02*
X43400D01*
X29400D02*
X29900Y103050D01*
X29400Y97250D02*
Y99400D01*
X29900D01*
Y97750D02*
Y99400D01*
X43400Y97250D02*
Y98333D01*
X29400Y97250D02*
X43400D01*
X29400D02*
X29900Y97750D01*
X21850Y102400D02*
X24000D01*
Y102900D01*
X22350D02*
X24000D01*
X21850Y116400D02*
X22933D01*
X21850Y102400D02*
Y116400D01*
Y102400D02*
X22350Y102900D01*
X26000Y102400D02*
X28150D01*
X26000D02*
Y102900D01*
X27650D01*
X27067Y116400D02*
X28150D01*
Y102400D02*
Y116400D01*
X27650Y102900D02*
X28150Y102400D01*
X28880Y91800D02*
Y93950D01*
Y91800D02*
X29380D01*
Y93450D01*
X42880Y92867D02*
Y93950D01*
X28880D02*
X42880D01*
X28880D02*
X29380Y93450D01*
X28880Y87650D02*
Y89800D01*
X29380D01*
Y88150D02*
Y89800D01*
X42880Y87650D02*
Y88733D01*
X28880Y87650D02*
X42880D01*
X28880D02*
X29380Y88150D01*
X29932Y96800D02*
Y97300D01*
X37806D01*
Y96800D02*
Y97300D01*
Y93300D02*
Y93800D01*
X29932Y93300D02*
X37806D01*
X29932D02*
Y93800D01*
X33869Y93300D02*
Y97300D01*
X29563Y86900D02*
Y87400D01*
X37437D01*
Y86900D02*
Y87400D01*
Y83400D02*
Y83900D01*
X29563Y83400D02*
X37437D01*
X29563D02*
Y83900D01*
X33500Y83400D02*
Y87400D01*
X25800Y77900D02*
X27950D01*
X25800Y77400D02*
Y77900D01*
Y77400D02*
X27450D01*
X26867Y63900D02*
X27950D01*
Y77900D01*
X27450Y77400D02*
X27950Y77900D01*
X21650D02*
X23800D01*
Y77400D02*
Y77900D01*
X22150Y77400D02*
X23800D01*
X21650Y63900D02*
X22733D01*
X21650D02*
Y77900D01*
X22150Y77400D01*
X107132Y21163D02*
X107919D01*
X107132D02*
Y29037D01*
X107919D01*
X110281D02*
X111068D01*
Y21163D02*
Y29037D01*
X110281Y21163D02*
X111068D01*
X146344Y28400D02*
X151856D01*
X150675Y22888D02*
X151856D01*
Y33912D01*
X150675D02*
X151856D01*
X146344D02*
X147525D01*
X146344Y22888D02*
Y33912D01*
Y22888D02*
X147525D01*
X159820Y45450D02*
Y50962D01*
X165331Y49781D02*
Y50962D01*
X154308D02*
X165331D01*
X154308Y49781D02*
Y50962D01*
Y45450D02*
Y46632D01*
Y45450D02*
X165331D01*
Y46632D01*
X145544Y41400D02*
X151056D01*
X145544Y46912D02*
X146725D01*
X145544Y35888D02*
Y46912D01*
Y35888D02*
X146725D01*
X149875D02*
X151056D01*
Y46912D01*
X149875D02*
X151056D01*
X34381Y153837D02*
X35168D01*
Y145963D02*
Y153837D01*
X34381Y145963D02*
X35168D01*
X31231D02*
X32019D01*
X31231D02*
Y153837D01*
X32019D01*
X105781Y21163D02*
X106569D01*
Y29037D01*
X105781D02*
X106569D01*
X102631D02*
X103419D01*
X102631Y21163D02*
Y29037D01*
Y21163D02*
X103419D01*
X55863Y172400D02*
Y172900D01*
X63737D01*
Y172400D02*
Y172900D01*
Y168900D02*
Y169400D01*
X55863Y168900D02*
X63737D01*
X55863D02*
Y169400D01*
X59800Y168900D02*
Y172900D01*
X88215Y148007D02*
X89002D01*
Y140133D02*
Y148007D01*
X88215Y140133D02*
X89002D01*
X85065D02*
X85853D01*
X85065D02*
Y148007D01*
X85853D01*
X80715Y147939D02*
X81502D01*
Y140065D02*
Y147939D01*
X80715Y140065D02*
X81502D01*
X77565D02*
X78353D01*
X77565D02*
Y147939D01*
X78353D01*
X166600Y106344D02*
Y111856D01*
X161088Y106344D02*
Y107525D01*
Y106344D02*
X172112D01*
Y107525D01*
Y110675D02*
Y111856D01*
X161088D02*
X172112D01*
X161088Y110675D02*
Y111856D01*
X129444Y131000D02*
X130200D01*
X129444D02*
Y141000D01*
X130200D01*
X134200D02*
X134956D01*
Y131000D02*
Y141000D01*
X134200Y131000D02*
X134956D01*
X129444Y136000D02*
X134956D01*
X162100Y117600D02*
Y118356D01*
X172100D01*
Y117600D02*
Y118356D01*
Y112844D02*
Y113600D01*
X162100Y112844D02*
X172100D01*
X162100D02*
Y113600D01*
X167100Y112844D02*
Y118356D01*
X116265Y114207D02*
X117053D01*
X116265Y106333D02*
Y114207D01*
Y106333D02*
X117053D01*
X119415D02*
X120202D01*
Y114207D01*
X119415D02*
X120202D01*
X96131Y132337D02*
X96919D01*
X96131Y124463D02*
Y132337D01*
Y124463D02*
X96919D01*
X99281D02*
X100068D01*
Y132337D01*
X99281D02*
X100068D01*
X58263Y113031D02*
Y113819D01*
Y113031D02*
X66137D01*
Y113819D01*
Y116181D02*
Y116969D01*
X58263D02*
X66137D01*
X58263Y116181D02*
Y116969D01*
X68163Y123432D02*
Y124219D01*
Y123432D02*
X76037D01*
Y124219D01*
Y126581D02*
Y127368D01*
X68163D02*
X76037D01*
X68163Y126581D02*
Y127368D01*
X113881Y73463D02*
X114669D01*
Y81337D01*
X113881D02*
X114669D01*
X110731D02*
X111519D01*
X110731Y73463D02*
Y81337D01*
Y73463D02*
X111519D01*
X71615Y65401D02*
X72402D01*
Y73275D01*
X71615D02*
X72402D01*
X68465D02*
X69253D01*
X68465Y65401D02*
Y73275D01*
Y65401D02*
X69253D01*
X67015Y65433D02*
X67802D01*
Y73307D01*
X67015D02*
X67802D01*
X63865D02*
X64653D01*
X63865Y65433D02*
Y73307D01*
Y65433D02*
X64653D01*
X43200Y161844D02*
Y167356D01*
X37688Y161844D02*
Y163025D01*
Y161844D02*
X48712D01*
Y163025D01*
Y166175D02*
Y167356D01*
X37688D02*
X48712D01*
X37688Y166175D02*
Y167356D01*
X37924Y157341D02*
X41924D01*
X41424Y153404D02*
X41924D01*
Y161278D01*
X41424D02*
X41924D01*
X37924D02*
X38424D01*
X37924Y153404D02*
Y161278D01*
Y153404D02*
X38424D01*
X92301Y146057D02*
Y146844D01*
Y146057D02*
X100175D01*
Y146844D01*
Y149206D02*
Y149994D01*
X92301D02*
X100175D01*
X92301Y149206D02*
Y149994D01*
X119231Y86637D02*
X120019D01*
X119231Y78763D02*
Y86637D01*
Y78763D02*
X120019D01*
X122381D02*
X123169D01*
Y86637D01*
X122381D02*
X123169D01*
X47556Y146972D02*
Y150972D01*
X43619Y146972D02*
Y147472D01*
Y146972D02*
X51493D01*
Y147472D01*
Y150472D02*
Y150972D01*
X43619D02*
X51493D01*
X43619Y150472D02*
Y150972D01*
X43100Y167744D02*
Y173256D01*
X37588Y167744D02*
Y168925D01*
Y167744D02*
X48612D01*
Y168925D01*
Y172075D02*
Y173256D01*
X37588D02*
X48612D01*
X37588Y172075D02*
Y173256D01*
X26393Y153602D02*
X27180D01*
X26393Y145728D02*
Y153602D01*
Y145728D02*
X27180D01*
X29542D02*
X30330D01*
Y153602D01*
X29542D02*
X30330D01*
D17*
X138736Y142734D02*
X170232D01*
X138736Y119112D02*
X170232D01*
X138736Y140549D02*
Y142734D01*
Y119112D02*
Y121297D01*
X170232Y140549D02*
Y142734D01*
Y119112D02*
Y121297D01*
X165902Y41631D02*
Y41907D01*
X165627D02*
X165902D01*
X154091D02*
X154367D01*
X154091Y41631D02*
Y41907D01*
Y30096D02*
Y30372D01*
Y30096D02*
X154367D01*
X165627D02*
X165902D01*
Y30372D01*
X87891Y153143D02*
Y169679D01*
X100647Y153143D02*
Y169679D01*
X72511Y135325D02*
Y148593D01*
Y155522D02*
Y168790D01*
X58338Y135325D02*
X72511D01*
X58338Y168790D02*
X72511D01*
X58338Y145522D02*
Y158593D01*
X108919Y77785D02*
Y80895D01*
X69549Y77785D02*
Y80895D01*
X108919Y114045D02*
Y117155D01*
X69549Y114045D02*
Y117155D01*
X105809Y77785D02*
X108919D01*
X69549D02*
X72659D01*
X105809Y117155D02*
X108919D01*
X69549D02*
X72659D01*
D18*
X30501Y162098D02*
X31501Y163098D01*
X33500D01*
X34500Y162098D01*
Y158100D01*
X33500Y157100D01*
X31501D01*
X30501Y158100D01*
X28502Y162098D02*
X27502Y163098D01*
X25503D01*
X24503Y162098D01*
Y161099D01*
X25503Y160099D01*
X26503D01*
X25503D01*
X24503Y159099D01*
Y158100D01*
X25503Y157100D01*
X27502D01*
X28502Y158100D01*
X22504D02*
X21504Y157100D01*
X19505D01*
X18505Y158100D01*
Y162098D01*
X19505Y163098D01*
X21504D01*
X22504Y162098D01*
Y161099D01*
X21504Y160099D01*
X18505D01*
X106401Y37298D02*
X107401Y38298D01*
X109400D01*
X110400Y37298D01*
Y33300D01*
X109400Y32300D01*
X107401D01*
X106401Y33300D01*
X104402Y37298D02*
X103402Y38298D01*
X101403D01*
X100403Y37298D01*
Y36299D01*
X101403Y35299D01*
X102403D01*
X101403D01*
X100403Y34299D01*
Y33300D01*
X101403Y32300D01*
X103402D01*
X104402Y33300D01*
X98404Y37298D02*
X97404Y38298D01*
X95405D01*
X94405Y37298D01*
Y36299D01*
X95405Y35299D01*
X96404D01*
X95405D01*
X94405Y34299D01*
Y33300D01*
X95405Y32300D01*
X97404D01*
X98404Y33300D01*
X63000Y176300D02*
Y182298D01*
X60001D01*
X59001Y181298D01*
Y179299D01*
X60001Y178299D01*
X63000D01*
X61001D02*
X59001Y176300D01*
X57002Y181298D02*
X56002Y182298D01*
X54003D01*
X53003Y181298D01*
Y180299D01*
X54003Y179299D01*
X55003D01*
X54003D01*
X53003Y178299D01*
Y177300D01*
X54003Y176300D01*
X56002D01*
X57002Y177300D01*
X51004Y181298D02*
X50004Y182298D01*
X48005D01*
X47005Y181298D01*
Y180299D01*
X48005Y179299D01*
X47005Y178299D01*
Y177300D01*
X48005Y176300D01*
X50004D01*
X51004Y177300D01*
Y178299D01*
X50004Y179299D01*
X51004Y180299D01*
Y181298D01*
X50004Y179299D02*
X48005D01*
X69401Y177898D02*
X70401Y178898D01*
X72400D01*
X73400Y177898D01*
Y176899D01*
X72400Y175899D01*
X70401D01*
X69401Y174899D01*
Y173900D01*
X70401Y172900D01*
X72400D01*
X73400Y173900D01*
X67402Y172900D02*
X65403D01*
X66402D01*
Y178898D01*
X67402Y177898D01*
D141*
X50550Y148932D02*
X47217Y152264D01*
Y148932D02*
X50550Y152264D01*
X48883Y148932D02*
Y152264D01*
X47217Y150598D02*
X50550D01*
M02*
