M48
;Layer_Color=9474304
;FILE_FORMAT=2:5
INCH,TZ
;TYPE=PLATED
T01F00S00C0.00787
T03F00S00C0.01378
;TYPE=NON_PLATED
%
T01
X134547Y54823
X170300Y41900
X161000Y103100
X139000Y104500
X153600Y147600
X83604Y111396
X77756Y94095
X62600Y71100
X35000Y67800
X35200Y62900
X29100Y165900
T03
X99300Y29200
X143700Y30600
X153100Y48600
X151279Y61713
X141500Y88800
X116068Y79132
X122933Y110630
X102756Y126772
X72933Y129528
X61900Y118600
X132200Y144000
X168800Y102300
X27900Y110000
X24508Y147933
X49400Y145100
X54181Y142490
X51200Y170000
M30
