G04*
G04 #@! TF.GenerationSoftware,Altium Limited,Altium Designer,24.10.1 (45)*
G04*
G04 Layer_Physical_Order=1*
G04 Layer_Color=255*
%FSLAX25Y25*%
%MOIN*%
G70*
G04*
G04 #@! TF.SameCoordinates,1F7DBCF5-7643-4606-9888-D8ADD4ED05EF*
G04*
G04*
G04 #@! TF.FilePolarity,Positive*
G04*
G01*
G75*
%ADD18C,0.01000*%
%ADD20R,0.06299X0.04134*%
%ADD21R,0.02461X0.03268*%
%ADD22R,0.01968X0.02362*%
%ADD23R,0.04134X0.06299*%
%ADD24R,0.06102X0.02362*%
%ADD25R,0.07087X0.04724*%
%ADD26O,0.03150X0.08661*%
%ADD27R,0.03740X0.03347*%
%ADD28O,0.08661X0.03150*%
%ADD29R,0.02362X0.02520*%
%ADD30R,0.03937X0.03543*%
%ADD31R,0.02520X0.02362*%
%ADD32R,0.02362X0.01968*%
%ADD33R,0.10630X0.08661*%
%ADD34R,0.01575X0.01378*%
%ADD35R,0.04724X0.04724*%
%ADD36R,0.04724X0.04724*%
%ADD37R,0.03543X0.03150*%
%ADD38R,0.03150X0.03150*%
%ADD39R,0.03937X0.04724*%
%ADD40O,0.05906X0.07874*%
%ADD41O,0.07874X0.05906*%
G04:AMPARAMS|DCode=42|XSize=27.56mil|YSize=70.87mil|CornerRadius=4.13mil|HoleSize=0mil|Usage=FLASHONLY|Rotation=90.000|XOffset=0mil|YOffset=0mil|HoleType=Round|Shape=RoundedRectangle|*
%AMROUNDEDRECTD42*
21,1,0.02756,0.06260,0,0,90.0*
21,1,0.01929,0.07087,0,0,90.0*
1,1,0.00827,0.03130,0.00965*
1,1,0.00827,0.03130,-0.00965*
1,1,0.00827,-0.03130,-0.00965*
1,1,0.00827,-0.03130,0.00965*
%
%ADD42ROUNDEDRECTD42*%
G04:AMPARAMS|DCode=43|XSize=62.99mil|YSize=78.74mil|CornerRadius=15.75mil|HoleSize=0mil|Usage=FLASHONLY|Rotation=90.000|XOffset=0mil|YOffset=0mil|HoleType=Round|Shape=RoundedRectangle|*
%AMROUNDEDRECTD43*
21,1,0.06299,0.04724,0,0,90.0*
21,1,0.03150,0.07874,0,0,90.0*
1,1,0.03150,0.02362,0.01575*
1,1,0.03150,0.02362,-0.01575*
1,1,0.03150,-0.02362,-0.01575*
1,1,0.03150,-0.02362,0.01575*
%
%ADD43ROUNDEDRECTD43*%
%ADD44R,0.02756X0.02362*%
%ADD45R,0.03543X0.03937*%
%ADD46O,0.02362X0.00984*%
%ADD47O,0.03937X0.00787*%
%ADD48R,0.02362X0.07087*%
%ADD49R,0.04724X0.03937*%
%ADD50R,0.07480X0.07480*%
%ADD51R,0.07087X0.07480*%
%ADD52R,0.01575X0.05315*%
%ADD53R,0.02362X0.04724*%
%ADD54R,0.02400X0.00900*%
G04:AMPARAMS|DCode=55|XSize=49.21mil|YSize=23.23mil|CornerRadius=2.9mil|HoleSize=0mil|Usage=FLASHONLY|Rotation=270.000|XOffset=0mil|YOffset=0mil|HoleType=Round|Shape=RoundedRectangle|*
%AMROUNDEDRECTD55*
21,1,0.04921,0.01742,0,0,270.0*
21,1,0.04341,0.02323,0,0,270.0*
1,1,0.00581,-0.00871,-0.02170*
1,1,0.00581,-0.00871,0.02170*
1,1,0.00581,0.00871,0.02170*
1,1,0.00581,0.00871,-0.02170*
%
%ADD55ROUNDEDRECTD55*%
%ADD95C,0.01500*%
%ADD96C,0.03000*%
%ADD97C,0.02000*%
%ADD98C,0.02500*%
%ADD99C,0.01681*%
%ADD100C,0.02756*%
%ADD101C,0.11811*%
%ADD102C,0.01575*%
%ADD103C,0.02362*%
G36*
X176452Y168449D02*
Y7045D01*
X170604Y1197D01*
X9703D01*
X714Y10187D01*
Y68800D01*
X983Y68900D01*
X1714Y68967D01*
X1815Y68815D01*
X4495Y66135D01*
X4810Y65925D01*
X4998Y65887D01*
Y65635D01*
X7760D01*
Y68004D01*
X5366D01*
X4097Y69273D01*
X4512Y70272D01*
X10488D01*
X10903Y69273D01*
X10594Y68964D01*
X10384Y68649D01*
X10310Y68279D01*
Y67941D01*
X9898D01*
Y65572D01*
X12660D01*
Y67941D01*
X12660Y67941D01*
X12660D01*
X13115Y68745D01*
X13431Y69062D01*
X14431Y68703D01*
X14431Y68703D01*
Y67767D01*
X14505Y67396D01*
X14715Y67082D01*
X14998Y66799D01*
Y65604D01*
X17760D01*
Y67256D01*
X18760Y67670D01*
X19283Y67147D01*
X19597Y66937D01*
X19968Y66864D01*
X21657D01*
Y66451D01*
X24026D01*
Y69213D01*
X21657D01*
Y68801D01*
X20369D01*
X18769Y70401D01*
Y76125D01*
X19583Y76572D01*
X19769Y76572D01*
X21773D01*
Y74213D01*
X21557D01*
Y71451D01*
X23926D01*
Y74213D01*
X23710D01*
Y76572D01*
X26086D01*
Y76984D01*
X29713D01*
X29896Y76802D01*
Y76122D01*
X30576D01*
X30611Y76087D01*
X30925Y75877D01*
X31296Y75803D01*
X31666Y75877D01*
X31981Y76087D01*
X32004Y76122D01*
X32696D01*
Y77422D01*
X32004D01*
X31981Y77457D01*
X30799Y78638D01*
X30485Y78848D01*
X30115Y78921D01*
X26086D01*
Y79334D01*
X20614D01*
X19993Y80334D01*
X20079Y80509D01*
X26086D01*
Y80921D01*
X29713D01*
X29896Y80739D01*
Y80059D01*
X30576D01*
X30611Y80024D01*
X30925Y79814D01*
X31296Y79740D01*
X31666Y79814D01*
X31981Y80024D01*
X32004Y80059D01*
X32696D01*
Y81359D01*
X32004D01*
X31981Y81394D01*
X30799Y82575D01*
X30485Y82785D01*
X30115Y82858D01*
X26086D01*
Y83271D01*
X19583D01*
Y82858D01*
X19490D01*
X19119Y82785D01*
X18805Y82575D01*
X17369Y81138D01*
X16369Y81497D01*
X16369Y81497D01*
Y82599D01*
X18584Y84814D01*
X19583Y84789D01*
Y84446D01*
X26086D01*
Y84858D01*
X30709D01*
X31079Y84932D01*
X31394Y85142D01*
X31787Y85536D01*
X31811Y85571D01*
X32502D01*
Y86870D01*
X31811D01*
X31787Y86905D01*
X31473Y87115D01*
X31102Y87189D01*
X30732Y87115D01*
X30417Y86905D01*
X30382Y86870D01*
X29702D01*
Y86795D01*
X26086D01*
Y87208D01*
X19583D01*
Y86769D01*
X18200D01*
X17829Y86695D01*
X17515Y86485D01*
X14969Y83938D01*
X13969Y84297D01*
X13969Y84297D01*
Y86799D01*
X15965Y88795D01*
X19583D01*
Y88383D01*
X26086D01*
Y88795D01*
X30709D01*
X31079Y88869D01*
X31394Y89079D01*
X31787Y89473D01*
X31811Y89508D01*
X32502D01*
Y90807D01*
X31811D01*
X31787Y90842D01*
X31473Y91052D01*
X31102Y91126D01*
X30732Y91052D01*
X30417Y90842D01*
X30382Y90807D01*
X29702D01*
Y90732D01*
X26086D01*
Y91145D01*
X19583D01*
Y90732D01*
X15564D01*
X15193Y90659D01*
X14879Y90449D01*
X12315Y87885D01*
X12105Y87571D01*
X12031Y87200D01*
Y76099D01*
X11322Y75397D01*
X11031Y75397D01*
X4469D01*
X3835Y75397D01*
X3469Y76245D01*
Y86799D01*
X9402Y92732D01*
X19583D01*
Y92320D01*
X26086D01*
Y92732D01*
X29134D01*
X29504Y92806D01*
X29819Y93016D01*
X31787Y94984D01*
X31811Y95019D01*
X32502D01*
Y96319D01*
X31811D01*
X31787Y96354D01*
X31473Y96564D01*
X31102Y96638D01*
X30732Y96564D01*
X30417Y96354D01*
X30382Y96319D01*
X29702D01*
Y95639D01*
X28733Y94669D01*
X26086D01*
Y95082D01*
X19583D01*
Y94669D01*
X9001D01*
X8630Y94596D01*
X8316Y94386D01*
X1815Y87885D01*
X1714Y87733D01*
X983Y87800D01*
X714Y87900D01*
Y170507D01*
X5703Y175497D01*
X169404D01*
X176452Y168449D01*
D02*
G37*
%LPC*%
G36*
X50102Y170574D02*
X45961D01*
Y170179D01*
X44590D01*
Y170574D01*
X40450D01*
Y169924D01*
X39173D01*
X38705Y169831D01*
X38308Y169566D01*
X37840Y169098D01*
X37005D01*
Y167914D01*
X36966Y167717D01*
X37005Y167519D01*
Y167080D01*
X36005Y166477D01*
X35498Y166745D01*
X35476Y167028D01*
Y167717D01*
X35436Y167914D01*
Y169098D01*
X33068D01*
Y167914D01*
X33029Y167717D01*
Y165260D01*
X32887D01*
Y165024D01*
X31707D01*
X29965Y166765D01*
X29568Y167030D01*
X29100Y167123D01*
X28632Y167030D01*
X28235Y166765D01*
X27970Y166368D01*
X27876Y165900D01*
X27970Y165432D01*
X28235Y165035D01*
X30335Y162935D01*
X30732Y162670D01*
X31200Y162576D01*
X32887D01*
Y162340D01*
X35551D01*
Y161540D01*
X37232D01*
Y163800D01*
X38232D01*
Y161540D01*
X39650D01*
Y160909D01*
X42020D01*
Y163583D01*
X43020D01*
Y160909D01*
X45390D01*
Y160946D01*
X45961Y161709D01*
X46390Y161709D01*
X47732D01*
X48338Y160962D01*
X47968Y160097D01*
X47520D01*
X46827Y159959D01*
X46240Y159567D01*
X45848Y158980D01*
X45710Y158287D01*
X45848Y157595D01*
X46240Y157008D01*
X46827Y156616D01*
X47520Y156478D01*
X48797D01*
Y155097D01*
X47520D01*
X46827Y154959D01*
X46240Y154567D01*
X45848Y153980D01*
X45710Y153287D01*
X45848Y152595D01*
X46240Y152008D01*
X46827Y151616D01*
X47520Y151478D01*
X48797D01*
Y150097D01*
X47520D01*
X46827Y149959D01*
X46240Y149567D01*
X45848Y148980D01*
X45710Y148287D01*
X45848Y147595D01*
X46240Y147008D01*
X46827Y146616D01*
X47520Y146478D01*
X48797D01*
Y145097D01*
X47520D01*
X46827Y144959D01*
X46240Y144567D01*
X45848Y143980D01*
X45710Y143287D01*
X45848Y142595D01*
X46240Y142008D01*
X46827Y141616D01*
X47314Y141519D01*
X47606Y140963D01*
X47687Y140478D01*
X46536Y139327D01*
X45574Y139235D01*
Y139235D01*
X42713D01*
Y137643D01*
X42665Y137402D01*
X42713Y137160D01*
Y135568D01*
X45574D01*
Y135923D01*
X46702D01*
X47267Y136036D01*
X47650Y136292D01*
X48024Y136200D01*
X48650Y135845D01*
Y134007D01*
X52300D01*
Y136574D01*
X49379D01*
X48965Y137574D01*
X51045Y139655D01*
X51366Y140134D01*
X51478Y140700D01*
Y141478D01*
X53031D01*
X53415Y141554D01*
X56507D01*
X56970Y141091D01*
Y138976D01*
X57046Y138593D01*
Y137534D01*
X56950Y136574D01*
X56046Y136574D01*
X53300D01*
Y133507D01*
Y130440D01*
X56950D01*
Y133791D01*
X57950Y134205D01*
X58855Y133300D01*
Y130627D01*
X63980D01*
Y130699D01*
X64031Y130791D01*
X64923Y131454D01*
X66139D01*
Y131296D01*
X68507D01*
Y132480D01*
X68546Y132677D01*
X68507Y132875D01*
Y134058D01*
X66139D01*
X66139Y134058D01*
X65167Y134127D01*
X64879Y134319D01*
X64411Y134413D01*
X63980D01*
Y135751D01*
X61306D01*
X60513Y136545D01*
Y138593D01*
X60589Y138976D01*
Y139999D01*
X61970D01*
Y138976D01*
X62108Y138284D01*
X62500Y137697D01*
X63087Y137304D01*
X63779Y137167D01*
X64472Y137304D01*
X65059Y137697D01*
X65451Y138284D01*
X65589Y138976D01*
Y139999D01*
X66970D01*
Y138976D01*
X67108Y138284D01*
X67500Y137697D01*
X68087Y137304D01*
X68779Y137167D01*
X69472Y137304D01*
X70059Y137697D01*
X70451Y138284D01*
X70589Y138976D01*
Y144488D01*
X70451Y145181D01*
X70059Y145768D01*
X69472Y146160D01*
X68779Y146298D01*
X68087Y146160D01*
X67500Y145768D01*
X67108Y145181D01*
X66970Y144488D01*
Y143466D01*
X65589D01*
Y144488D01*
X65451Y145181D01*
X65059Y145768D01*
X64472Y146160D01*
X63779Y146298D01*
X63087Y146160D01*
X62500Y145768D01*
X62108Y145181D01*
X61970Y144488D01*
Y143466D01*
X60589D01*
Y144488D01*
X60451Y145181D01*
X60059Y145768D01*
X59472Y146160D01*
X58780Y146298D01*
X58087Y146160D01*
X57500Y145768D01*
X57108Y145181D01*
X57076Y145021D01*
X53415D01*
X53031Y145097D01*
X51754D01*
Y146478D01*
X53031D01*
X53724Y146616D01*
X54311Y147008D01*
X54703Y147595D01*
X54841Y148287D01*
X54703Y148980D01*
X54311Y149567D01*
X53724Y149959D01*
X53031Y150097D01*
X51754D01*
Y151478D01*
X53031D01*
X53724Y151616D01*
X54311Y152008D01*
X54703Y152595D01*
X54841Y153287D01*
X54703Y153980D01*
X54311Y154567D01*
X53724Y154959D01*
X53031Y155097D01*
X51754D01*
Y156478D01*
X53031D01*
X53724Y156616D01*
X54311Y157008D01*
X54703Y157595D01*
X54841Y158287D01*
X54703Y158980D01*
X54311Y159567D01*
X53724Y159959D01*
X53031Y160097D01*
X51754D01*
Y161339D01*
X51641Y161904D01*
X51321Y162384D01*
X50102Y163603D01*
Y165456D01*
X46102Y165456D01*
X45750Y165994D01*
X46400Y166828D01*
X50102D01*
Y170574D01*
D02*
G37*
G36*
X94988Y172260D02*
Y169791D01*
X97850D01*
Y172260D01*
X94988D01*
D02*
G37*
G36*
X79815Y171866D02*
X76953D01*
Y169398D01*
X79815D01*
Y171866D01*
D02*
G37*
G36*
X166034Y173047D02*
X165854D01*
Y166642D01*
X172260D01*
Y166822D01*
X171994Y168156D01*
X171474Y169413D01*
X170718Y170544D01*
X169756Y171506D01*
X168625Y172261D01*
X167369Y172782D01*
X166034Y173047D01*
D02*
G37*
G36*
X164854D02*
X164674D01*
X163340Y172782D01*
X162083Y172261D01*
X160952Y171506D01*
X159991Y170544D01*
X159235Y169413D01*
X158714Y168156D01*
X158449Y166822D01*
Y166642D01*
X164854D01*
Y173047D01*
D02*
G37*
G36*
X97850Y168791D02*
X94988D01*
Y166323D01*
X97850D01*
Y168791D01*
D02*
G37*
G36*
X73779Y168896D02*
X73087Y168758D01*
X72500Y168366D01*
X72108Y167779D01*
X71970Y167087D01*
Y166064D01*
X70589D01*
Y167087D01*
X70451Y167779D01*
X70059Y168366D01*
X69472Y168758D01*
X68779Y168896D01*
X68087Y168758D01*
X67500Y168366D01*
X67108Y167779D01*
X66970Y167087D01*
Y166064D01*
X65589D01*
Y167087D01*
X65451Y167779D01*
X65059Y168366D01*
X64472Y168758D01*
X63779Y168896D01*
X63087Y168758D01*
X62500Y168366D01*
X62108Y167779D01*
X61970Y167087D01*
Y166064D01*
X60589D01*
Y167087D01*
X60451Y167779D01*
X60059Y168366D01*
X59472Y168758D01*
X58780Y168896D01*
X58087Y168758D01*
X57500Y168366D01*
X57108Y167779D01*
X56970Y167087D01*
Y161575D01*
X57108Y160882D01*
X57500Y160295D01*
X58087Y159903D01*
X58780Y159765D01*
X59472Y159903D01*
X60059Y160295D01*
X60451Y160882D01*
X60589Y161575D01*
Y162597D01*
X61970D01*
Y161575D01*
X62108Y160882D01*
X62500Y160295D01*
X63087Y159903D01*
X63779Y159765D01*
X64472Y159903D01*
X65059Y160295D01*
X65451Y160882D01*
X65589Y161575D01*
Y162597D01*
X66970D01*
Y161575D01*
X67108Y160882D01*
X67500Y160295D01*
X68087Y159903D01*
X68779Y159765D01*
X69472Y159903D01*
X70059Y160295D01*
X70451Y160882D01*
X70589Y161575D01*
Y162597D01*
X71970D01*
Y161575D01*
X72108Y160882D01*
X72500Y160295D01*
X73087Y159903D01*
X73779Y159765D01*
X74472Y159903D01*
X75059Y160295D01*
X75451Y160882D01*
X75589Y161575D01*
Y161884D01*
X76589Y162298D01*
X77753Y161135D01*
Y158855D01*
X78582D01*
Y153054D01*
X78540D01*
Y149111D01*
X82877D01*
Y153054D01*
X82048D01*
Y158855D01*
X82877D01*
Y159290D01*
X84446D01*
Y158855D01*
X89570D01*
Y159290D01*
X91926D01*
Y159249D01*
X97050D01*
Y159290D01*
X100194D01*
Y158068D01*
X100629D01*
Y156499D01*
X100194D01*
Y151375D01*
X100629D01*
Y149019D01*
X100194D01*
Y143895D01*
X100629D01*
Y141539D01*
X100194D01*
Y136414D01*
X100629D01*
Y122238D01*
X100761Y121574D01*
X101137Y121012D01*
X115500Y106648D01*
X116063Y106273D01*
X116726Y106141D01*
X118419D01*
X118814Y105625D01*
X119473Y105120D01*
X120240Y104802D01*
X121063Y104694D01*
X123031D01*
X123854Y104802D01*
X124621Y105120D01*
X125280Y105625D01*
X125785Y106284D01*
X126103Y107051D01*
X126211Y107874D01*
X126103Y108697D01*
X125785Y109464D01*
X125280Y110123D01*
X124621Y110628D01*
X124010Y110881D01*
X123998Y110955D01*
X124063Y111897D01*
X125025Y112295D01*
X125851Y112929D01*
X126484Y113755D01*
X126883Y114716D01*
X126953Y115248D01*
X122047D01*
X117142D01*
X117212Y114716D01*
X117610Y113755D01*
X118244Y112929D01*
X119070Y112295D01*
X120031Y111897D01*
X120096Y110955D01*
X120085Y110881D01*
X119473Y110628D01*
X118814Y110123D01*
X118419Y109607D01*
X117444D01*
X104095Y122956D01*
Y136414D01*
X104531D01*
Y141539D01*
X104095D01*
Y143895D01*
X104531D01*
Y149019D01*
X104095D01*
Y151375D01*
X104531D01*
Y156499D01*
X104095D01*
Y158068D01*
X104531D01*
Y163192D01*
X100194D01*
Y162757D01*
X97050D01*
Y163586D01*
X91926D01*
Y162757D01*
X89570D01*
Y163192D01*
X84446D01*
Y162757D01*
X82877D01*
Y163192D01*
X80598D01*
X78861Y164929D01*
X79275Y165929D01*
X79815D01*
Y168398D01*
X76953D01*
X76953Y166064D01*
X76731Y166064D01*
X75589D01*
Y167087D01*
X75451Y167779D01*
X75059Y168366D01*
X74472Y168758D01*
X73779Y168896D01*
D02*
G37*
G36*
X86508Y171866D02*
X80815D01*
Y168898D01*
Y165929D01*
X86508D01*
Y168898D01*
Y171866D01*
D02*
G37*
G36*
X91126Y172260D02*
X90289Y171866D01*
X90126Y171866D01*
X87508D01*
Y168898D01*
Y165929D01*
X90289D01*
X90370Y165929D01*
X91207Y166323D01*
X91370Y166323D01*
X93988D01*
Y169291D01*
Y172260D01*
X91207D01*
X91126Y172260D01*
D02*
G37*
G36*
X13279Y171472D02*
X13098D01*
Y165067D01*
X19504D01*
Y165247D01*
X19239Y166581D01*
X18718Y167838D01*
X17962Y168969D01*
X17000Y169931D01*
X15869Y170686D01*
X14613Y171207D01*
X13279Y171472D01*
D02*
G37*
G36*
X12098D02*
X11918D01*
X10584Y171207D01*
X9328Y170686D01*
X8196Y169931D01*
X7235Y168969D01*
X6479Y167838D01*
X5958Y166581D01*
X5693Y165247D01*
Y165067D01*
X12098D01*
Y171472D01*
D02*
G37*
G36*
X113205Y163992D02*
X110736D01*
Y161130D01*
X113205D01*
Y163992D01*
D02*
G37*
G36*
X109736D02*
X107268D01*
Y161130D01*
X109736D01*
Y163992D01*
D02*
G37*
G36*
X172260Y165642D02*
X165854D01*
Y159236D01*
X166034D01*
X167369Y159502D01*
X168625Y160022D01*
X169756Y160778D01*
X170718Y161740D01*
X171474Y162871D01*
X171994Y164128D01*
X172260Y165462D01*
Y165642D01*
D02*
G37*
G36*
X164854D02*
X158449D01*
Y165462D01*
X158714Y164128D01*
X159235Y162871D01*
X159991Y161740D01*
X160952Y160778D01*
X162083Y160022D01*
X163340Y159502D01*
X164674Y159236D01*
X164854D01*
Y165642D01*
D02*
G37*
G36*
X19504Y164067D02*
X13098D01*
Y157661D01*
X13279D01*
X14613Y157927D01*
X15869Y158447D01*
X17000Y159203D01*
X17962Y160165D01*
X18718Y161296D01*
X19239Y162553D01*
X19504Y163887D01*
Y164067D01*
D02*
G37*
G36*
X12098D02*
X5693D01*
Y163887D01*
X5958Y162553D01*
X6479Y161296D01*
X7235Y160165D01*
X8196Y159203D01*
X9328Y158447D01*
X10584Y157927D01*
X11918Y157661D01*
X12098D01*
Y164067D01*
D02*
G37*
G36*
X113205Y160130D02*
X110236D01*
X107268D01*
Y157268D01*
Y154437D01*
X110236D01*
X113205D01*
Y157268D01*
Y160130D01*
D02*
G37*
G36*
Y153437D02*
X110236D01*
X107268D01*
Y150819D01*
X107268Y149819D01*
X107268Y149575D01*
Y146957D01*
X110236D01*
X113205D01*
Y149575D01*
X113205Y150575D01*
X113205Y150819D01*
Y153437D01*
D02*
G37*
G36*
X145669Y153180D02*
X144846Y153072D01*
X144079Y152754D01*
X143421Y152249D01*
X142915Y151590D01*
X142598Y150823D01*
X142489Y150000D01*
Y148031D01*
X142598Y147208D01*
X142915Y146441D01*
X143421Y145783D01*
X144079Y145278D01*
X144846Y144960D01*
X145669Y144852D01*
X146492Y144960D01*
X147259Y145278D01*
X147918Y145783D01*
X148423Y146441D01*
X148741Y147208D01*
X148849Y148031D01*
Y148302D01*
X151889D01*
X152613Y147578D01*
Y147404D01*
X152763Y147041D01*
X153041Y146763D01*
X153404Y146613D01*
X153796D01*
X154159Y146763D01*
X154437Y147041D01*
X154587Y147404D01*
Y147796D01*
X154437Y148159D01*
X154159Y148437D01*
X153796Y148587D01*
X153622D01*
X152689Y149520D01*
X152457Y149675D01*
X152184Y149730D01*
X148849D01*
Y150000D01*
X148741Y150823D01*
X148423Y151590D01*
X147918Y152249D01*
X147259Y152754D01*
X146492Y153072D01*
X145669Y153180D01*
D02*
G37*
G36*
X30433Y160097D02*
X24921D01*
X24229Y159959D01*
X23642Y159567D01*
X23249Y158980D01*
X23112Y158287D01*
X23249Y157595D01*
X23642Y157008D01*
X24229Y156616D01*
X24921Y156478D01*
X26199D01*
Y155097D01*
X24921D01*
X24229Y154959D01*
X23642Y154567D01*
X23249Y153980D01*
X23112Y153287D01*
X23249Y152595D01*
X23642Y152008D01*
X24229Y151616D01*
X24921Y151478D01*
X26199D01*
Y150097D01*
X24921D01*
X24229Y149959D01*
X23939Y149766D01*
X22598D01*
X22033Y149653D01*
X21553Y149333D01*
X20452Y148231D01*
X16926D01*
Y141532D01*
X17715D01*
Y139964D01*
X16926D01*
Y133265D01*
X17715D01*
Y131302D01*
X16926D01*
Y124603D01*
X17715D01*
Y123035D01*
X16926D01*
Y116335D01*
X21460D01*
Y119781D01*
X25390D01*
Y117910D01*
X26356D01*
Y115554D01*
X25273D01*
Y110430D01*
X25272D01*
X25387Y110154D01*
X22125Y106893D01*
X19583D01*
X19583Y104239D01*
X18783Y103756D01*
X18783Y103648D01*
X18783Y103648D01*
Y102075D01*
X22835D01*
X26886D01*
Y103648D01*
X26886Y103648D01*
Y103756D01*
X26086Y104239D01*
X26086Y104756D01*
Y106672D01*
X28880Y109466D01*
X29201Y109946D01*
X29297Y110430D01*
X30397D01*
Y115554D01*
X29313D01*
Y117910D01*
X29924D01*
Y124609D01*
X29136D01*
Y126965D01*
X29924D01*
Y133665D01*
X25390D01*
Y126965D01*
X26179D01*
Y124609D01*
X25390D01*
Y122738D01*
X21460D01*
Y123035D01*
X20671D01*
Y124603D01*
X21460D01*
Y131302D01*
X20671D01*
Y133265D01*
X21460D01*
Y139964D01*
X20671D01*
Y141532D01*
X21460D01*
Y145058D01*
X23211Y146809D01*
X23939D01*
X24229Y146616D01*
X24921Y146478D01*
X30433D01*
X31126Y146616D01*
X31713Y147008D01*
X32105Y147595D01*
X32243Y148287D01*
X32105Y148980D01*
X31713Y149567D01*
X31126Y149959D01*
X30433Y150097D01*
X29156D01*
Y151478D01*
X30433D01*
X31126Y151616D01*
X31713Y152008D01*
X32105Y152595D01*
X32243Y153287D01*
X32105Y153980D01*
X31713Y154567D01*
X31126Y154959D01*
X30433Y155097D01*
X29156D01*
Y156478D01*
X30433D01*
X31126Y156616D01*
X31713Y157008D01*
X32105Y157595D01*
X32243Y158287D01*
X32105Y158980D01*
X31713Y159567D01*
X31126Y159959D01*
X30433Y160097D01*
D02*
G37*
G36*
X10646Y149031D02*
X8079D01*
Y145382D01*
X10646D01*
Y149031D01*
D02*
G37*
G36*
X7079D02*
X4512D01*
Y145382D01*
X7079D01*
Y149031D01*
D02*
G37*
G36*
X82877Y147739D02*
X78540D01*
Y143796D01*
X78154Y142956D01*
X75589D01*
Y144488D01*
X75451Y145181D01*
X75059Y145768D01*
X74472Y146160D01*
X73779Y146298D01*
X73087Y146160D01*
X72500Y145768D01*
X72108Y145181D01*
X71970Y144488D01*
Y138976D01*
X72108Y138284D01*
X72500Y137697D01*
X72556Y137659D01*
Y135704D01*
X70911Y134058D01*
X70076D01*
Y132875D01*
X70036Y132677D01*
X70076Y132480D01*
Y131296D01*
X72444D01*
Y132131D01*
X74645Y134332D01*
X74910Y134729D01*
X75003Y135197D01*
Y137659D01*
X75059Y137697D01*
X75451Y138284D01*
X75589Y138976D01*
Y140509D01*
X78934D01*
Y140154D01*
X80118D01*
X80315Y140115D01*
X80512Y140154D01*
X81696D01*
Y142523D01*
X81538D01*
Y143796D01*
X82877D01*
Y147739D01*
D02*
G37*
G36*
X88205Y141945D02*
X86130D01*
Y139870D01*
X88205D01*
Y141945D01*
D02*
G37*
G36*
X85130D02*
X83055D01*
Y139870D01*
X85130D01*
Y141945D01*
D02*
G37*
G36*
X113205Y145957D02*
X110236D01*
X107268D01*
Y143339D01*
X107268Y143095D01*
Y142339D01*
X107268Y142095D01*
Y139476D01*
X110236D01*
X113205D01*
Y142095D01*
X113205Y142339D01*
Y143095D01*
X113205Y143339D01*
Y145957D01*
D02*
G37*
G36*
X25878Y139189D02*
X24394D01*
Y137508D01*
X25878D01*
Y139189D01*
D02*
G37*
G36*
X10646Y144382D02*
X4512D01*
Y140732D01*
Y137114D01*
X10646D01*
Y140732D01*
Y144382D01*
D02*
G37*
G36*
X88205Y138870D02*
X86130D01*
Y136795D01*
X88205D01*
Y138870D01*
D02*
G37*
G36*
X85130D02*
X83055D01*
Y136795D01*
X85130D01*
Y138870D01*
D02*
G37*
G36*
X80315Y138625D02*
X80118Y138586D01*
X78934D01*
Y136217D01*
X78934Y136217D01*
X78934D01*
X78357Y135487D01*
X75513Y132643D01*
X75248Y132246D01*
X75154Y131778D01*
Y130515D01*
X74406D01*
Y126965D01*
X78350D01*
Y130515D01*
X78190D01*
X77845Y131515D01*
X80480Y134150D01*
X81480Y133736D01*
Y132980D01*
X83752D01*
Y135055D01*
X82427D01*
X82025Y135354D01*
X81696Y136217D01*
X81696Y136217D01*
Y138586D01*
X80512D01*
X80315Y138625D01*
D02*
G37*
G36*
X164775Y138681D02*
X164225D01*
X163718Y138471D01*
X163329Y138082D01*
X163119Y137575D01*
Y137025D01*
X163147Y136957D01*
X160495Y134305D01*
X160341Y134073D01*
X160286Y133800D01*
Y103783D01*
X160163Y103659D01*
X160013Y103296D01*
Y102904D01*
X160163Y102541D01*
X160441Y102263D01*
X160804Y102113D01*
X161196D01*
X161559Y102263D01*
X161837Y102541D01*
X161987Y102904D01*
Y103296D01*
X161837Y103659D01*
X161714Y103783D01*
Y133504D01*
X164157Y135947D01*
X164225Y135919D01*
X164775D01*
X165282Y136129D01*
X165671Y136518D01*
X165881Y137025D01*
Y137575D01*
X165671Y138082D01*
X165282Y138471D01*
X164775Y138681D01*
D02*
G37*
G36*
X113205Y138476D02*
X110736D01*
Y135614D01*
X113205D01*
Y138476D01*
D02*
G37*
G36*
X109736D02*
X107268D01*
Y135614D01*
X109736D01*
Y138476D01*
D02*
G37*
G36*
X30433Y145097D02*
X24921D01*
X24229Y144959D01*
X23642Y144567D01*
X23249Y143980D01*
X23112Y143287D01*
X23249Y142595D01*
X23642Y142008D01*
X24229Y141616D01*
X24921Y141478D01*
X27756D01*
X28589Y140645D01*
X28558Y139364D01*
X28362Y139189D01*
X28091Y139189D01*
X26878D01*
Y137008D01*
Y134827D01*
X28362D01*
Y135068D01*
X29131Y135627D01*
X29362Y135627D01*
X31499D01*
Y135784D01*
X33954D01*
Y135568D01*
X36814D01*
Y139235D01*
X33954D01*
Y138231D01*
X31539D01*
Y140650D01*
X31445Y141118D01*
X31713Y142008D01*
X32105Y142595D01*
X32243Y143287D01*
X32105Y143980D01*
X31713Y144567D01*
X31126Y144959D01*
X30433Y145097D01*
D02*
G37*
G36*
X25878Y136508D02*
X24394D01*
Y134827D01*
X25878D01*
Y136508D01*
D02*
G37*
G36*
X93310Y141145D02*
X89761D01*
Y137595D01*
X89761D01*
X89865Y136595D01*
X89292Y136023D01*
X89027Y135626D01*
X88989Y135436D01*
X88776D01*
Y133068D01*
X89960D01*
X90158Y133028D01*
X90355Y133068D01*
X91539D01*
Y134808D01*
X92265Y135535D01*
X92530Y135932D01*
X92624Y136400D01*
Y137595D01*
X93310D01*
Y141145D01*
D02*
G37*
G36*
X87024Y135055D02*
X84752D01*
Y132980D01*
X87024D01*
Y135055D01*
D02*
G37*
G36*
X42339Y134465D02*
X39772D01*
Y130815D01*
X42339D01*
Y134465D01*
D02*
G37*
G36*
X38772D02*
X36205D01*
Y130815D01*
X38772D01*
Y134465D01*
D02*
G37*
G36*
X52300Y133007D02*
X48650D01*
Y130440D01*
X52300D01*
Y133007D01*
D02*
G37*
G36*
X87024Y131980D02*
X84752D01*
Y129905D01*
X87024D01*
Y131980D01*
D02*
G37*
G36*
X83752D02*
X81480D01*
Y129905D01*
X83752D01*
Y131980D01*
D02*
G37*
G36*
X10646Y136114D02*
X4512D01*
Y133102D01*
X4512Y132465D01*
X4512Y131465D01*
Y128453D01*
X10646D01*
Y131465D01*
X10646Y132102D01*
X10646Y133102D01*
Y136114D01*
D02*
G37*
G36*
X71472Y129150D02*
X69004D01*
Y126878D01*
X71472D01*
Y129150D01*
D02*
G37*
G36*
X68004D02*
X65535D01*
Y126878D01*
X68004D01*
Y129150D01*
D02*
G37*
G36*
X90158Y131538D02*
X89960Y131499D01*
X88776D01*
Y129131D01*
X88934D01*
Y127956D01*
X88776D01*
Y125587D01*
X89960D01*
X90158Y125548D01*
X90355Y125587D01*
X91373D01*
X91878Y125042D01*
X92067Y124741D01*
X91864Y124062D01*
X91539Y124019D01*
X91486Y124019D01*
X90355D01*
X90158Y124058D01*
X86924D01*
X86224Y124759D01*
Y126775D01*
X82280D01*
Y123225D01*
X84297D01*
X85552Y121969D01*
X85949Y121704D01*
X86417Y121611D01*
X90158D01*
X90355Y121650D01*
X91486D01*
X91539Y121650D01*
X91616Y121640D01*
X91974Y120583D01*
X88232Y116841D01*
X88087Y116813D01*
X87856Y116658D01*
X83582Y112384D01*
X83407D01*
X83044Y112233D01*
X82767Y111955D01*
X82616Y111593D01*
Y111200D01*
X82767Y110837D01*
X83044Y110559D01*
X83407Y110409D01*
X83800D01*
X84163Y110559D01*
X84441Y110837D01*
X84591Y111200D01*
Y111374D01*
X88682Y115465D01*
X88826Y115494D01*
X89058Y115648D01*
X93705Y120295D01*
X93859Y120527D01*
X93914Y120800D01*
Y125100D01*
X93859Y125373D01*
X93705Y125605D01*
X92033Y127276D01*
X91802Y127431D01*
X91539Y127483D01*
Y127956D01*
X91381D01*
Y129131D01*
X91539D01*
Y131499D01*
X90355D01*
X90158Y131538D01*
D02*
G37*
G36*
X71472Y125878D02*
X65535D01*
Y124402D01*
X64685Y123778D01*
X63980Y124097D01*
Y124491D01*
X58855D01*
Y123371D01*
X56150D01*
Y124160D01*
X49450D01*
Y119626D01*
X56150D01*
Y120414D01*
X58855D01*
Y119367D01*
X60217D01*
X60287Y119015D01*
X60552Y118617D01*
X61966Y117204D01*
Y116157D01*
X61943Y116148D01*
X61795Y115790D01*
X59055D01*
X58858Y115751D01*
X57674D01*
Y113383D01*
X58858D01*
X59055Y113343D01*
X61718D01*
X61787Y113274D01*
Y111432D01*
X61943Y111057D01*
X62318Y110901D01*
X64060D01*
X64435Y111057D01*
X65432Y110851D01*
X65706Y110571D01*
X65799Y110103D01*
X66064Y109706D01*
X67835Y107935D01*
X68232Y107670D01*
X68700Y107577D01*
X72000D01*
X72468Y107670D01*
X72865Y107935D01*
X73133Y108202D01*
X74010Y107734D01*
X74074Y106872D01*
X73071Y105869D01*
X72766Y105876D01*
X71956Y106168D01*
X71916Y106266D01*
X71540Y106421D01*
X69798D01*
X69423Y106266D01*
X69267Y105891D01*
X68331D01*
X68176Y106266D01*
X67800Y106421D01*
X67488D01*
X65055Y108854D01*
X64741Y109064D01*
X64370Y109138D01*
X61917D01*
X60436Y110619D01*
Y111814D01*
X59253D01*
X59055Y111853D01*
X57165D01*
X56512Y112583D01*
Y114067D01*
X54331D01*
Y114567D01*
X53831D01*
Y116551D01*
X52150D01*
X52150Y116551D01*
X51150Y116533D01*
X50697Y116721D01*
Y114567D01*
X50197D01*
Y114067D01*
X48043D01*
X48348Y113331D01*
X48961Y112718D01*
X49483Y112502D01*
Y110138D01*
X49538Y109865D01*
X49692Y109633D01*
X50803Y108523D01*
X50388Y107523D01*
X49606D01*
X49409Y107483D01*
X48225Y107483D01*
X47929Y108361D01*
Y108402D01*
X46169D01*
Y106220D01*
X45669D01*
Y105720D01*
X43297D01*
X42486Y105384D01*
X41985Y105885D01*
X41671Y106095D01*
X41300Y106169D01*
X36253D01*
Y106581D01*
X33884D01*
Y103819D01*
X36253D01*
Y104231D01*
X40899D01*
X43059Y102071D01*
X43373Y101861D01*
X43744Y101787D01*
X44209D01*
Y101375D01*
X44956D01*
Y97835D01*
X41621Y94501D01*
X41467Y94269D01*
X41412Y93996D01*
Y90653D01*
X40412Y90238D01*
X39988Y90663D01*
X39757Y90817D01*
X39483Y90872D01*
X37802D01*
X37529Y90817D01*
X37515Y90808D01*
X36402D01*
Y89639D01*
X35602D01*
Y88689D01*
X37802D01*
Y87689D01*
X35602D01*
Y86739D01*
X36402D01*
Y85570D01*
X37515D01*
X37529Y85561D01*
X37802Y85506D01*
X39610D01*
X39729Y85218D01*
X40118Y84829D01*
X40625Y84619D01*
X41175D01*
X41682Y84829D01*
X42071Y85218D01*
X42281Y85725D01*
Y86275D01*
X42071Y86782D01*
X41682Y87171D01*
X41666Y87178D01*
Y88123D01*
X42614Y88516D01*
X45414Y85716D01*
X45414Y85716D01*
X48401Y82729D01*
Y79546D01*
X48332Y79517D01*
X47943Y79129D01*
X47733Y78621D01*
Y78072D01*
X47943Y77564D01*
X48332Y77176D01*
X48839Y76965D01*
X49389D01*
X49896Y77176D01*
X50285Y77564D01*
X50495Y78072D01*
Y78621D01*
X50285Y79129D01*
X49896Y79517D01*
X49828Y79546D01*
Y83025D01*
X49774Y83298D01*
X49619Y83529D01*
X46423Y86725D01*
X46423Y86725D01*
X42903Y90245D01*
X42930Y90477D01*
X44000Y91015D01*
X44341Y90827D01*
X44495Y90595D01*
X52895Y82195D01*
X53127Y82041D01*
X53400Y81986D01*
X55101D01*
X55129Y81918D01*
X55518Y81529D01*
X56025Y81319D01*
X56575D01*
X57082Y81529D01*
X57471Y81918D01*
X57681Y82425D01*
Y82975D01*
X57512Y83383D01*
X57468Y83703D01*
X57460Y84349D01*
X57678Y84624D01*
X57771Y84718D01*
X57981Y85225D01*
Y85775D01*
X57771Y86282D01*
X57553Y86500D01*
X57400Y86883D01*
X57470Y87717D01*
X57571Y87818D01*
X57781Y88325D01*
Y88875D01*
X57571Y89382D01*
X57182Y89771D01*
X56675Y89981D01*
X56125D01*
X55618Y89771D01*
X54521Y90088D01*
X50933Y93677D01*
X50982Y94629D01*
X51371Y95018D01*
X51581Y95525D01*
Y96075D01*
X51371Y96582D01*
X50982Y96971D01*
X50475Y97181D01*
X49925D01*
X49418Y96971D01*
X49029Y96582D01*
X48819Y96075D01*
Y96048D01*
X47882Y95571D01*
X47375Y95781D01*
X46825D01*
X46318Y95571D01*
X45929Y95182D01*
X45719Y94675D01*
Y94480D01*
X45464Y93963D01*
X44862Y93581D01*
X44725D01*
X44500Y93488D01*
X43582Y93758D01*
X43339Y93906D01*
X43273Y94134D01*
X46174Y97035D01*
X46329Y97266D01*
X46383Y97539D01*
Y101375D01*
X47129D01*
Y103049D01*
X47194Y103091D01*
X47216Y103095D01*
X47441Y103074D01*
X47986Y102809D01*
X48225Y102449D01*
Y101178D01*
X49421D01*
X51284Y99315D01*
X51598Y99105D01*
X51968Y99031D01*
X52162D01*
Y98028D01*
X56499D01*
Y98028D01*
X56503Y98031D01*
X57670Y97602D01*
X57674Y97595D01*
X57674Y97441D01*
Y95961D01*
X57693D01*
Y91929D01*
X57766Y91558D01*
X57977Y91244D01*
X60430Y88791D01*
Y80115D01*
X64976D01*
Y72946D01*
X63488Y71458D01*
X63278Y71144D01*
X63205Y70773D01*
Y68625D01*
X62713D01*
Y65961D01*
X61913D01*
Y64280D01*
X64173D01*
Y63779D01*
X64673D01*
Y61598D01*
X67610D01*
Y63779D01*
X68110D01*
Y64280D01*
X70370D01*
Y65961D01*
X71240Y66276D01*
X87276D01*
X87398Y66153D01*
Y64564D01*
X90554D01*
Y67326D01*
X88965D01*
X88362Y67929D01*
X88048Y68139D01*
X87677Y68213D01*
X69570D01*
Y68625D01*
X66650D01*
Y68213D01*
X65633D01*
Y68625D01*
X65142D01*
Y70372D01*
X66630Y71860D01*
X66840Y72174D01*
X66913Y72545D01*
Y80115D01*
X71460D01*
Y89176D01*
X62784D01*
X59630Y92330D01*
Y95961D01*
X59649D01*
Y97521D01*
X59649Y97739D01*
Y98520D01*
X59649Y98739D01*
Y100298D01*
X60034Y101139D01*
X61831D01*
X61965Y101165D01*
X62318Y101019D01*
X64060D01*
X64435Y101175D01*
X64591Y101550D01*
X65527D01*
X65683Y101175D01*
X66058Y101019D01*
X67800D01*
X68176Y101175D01*
X68331Y101550D01*
X69267D01*
X69423Y101175D01*
X69798Y101019D01*
X71540D01*
X71916Y101175D01*
X72071Y101550D01*
Y102497D01*
X72653D01*
X73121Y102590D01*
X73518Y102855D01*
X75949Y105287D01*
X77060D01*
Y107735D01*
X77989Y108221D01*
X84545Y101664D01*
Y89176D01*
X80509D01*
Y80115D01*
X91539D01*
Y89176D01*
X87502D01*
Y102276D01*
X87389Y102842D01*
X87069Y103322D01*
X79213Y111178D01*
X78733Y111498D01*
X78168Y111611D01*
X75600D01*
X75111Y111513D01*
X74140D01*
X74140Y111513D01*
X73190Y111633D01*
X72856Y112281D01*
Y113102D01*
X70669D01*
Y113602D01*
X70169D01*
Y117088D01*
X69798D01*
X69295Y116988D01*
X68868Y116703D01*
X68346Y116284D01*
X67800Y116303D01*
X66058D01*
X65683Y116148D01*
X64698Y116384D01*
X64412Y116699D01*
Y117711D01*
X64319Y118179D01*
X64183Y118383D01*
X64262Y118839D01*
X65077Y119426D01*
X65600Y119322D01*
X66335D01*
Y119091D01*
X70672D01*
Y122606D01*
X70673Y123035D01*
X71436Y123606D01*
X71472D01*
Y125878D01*
D02*
G37*
G36*
X42339Y129815D02*
X39272D01*
X36205D01*
Y126409D01*
X36205Y126165D01*
Y125409D01*
X36205Y125165D01*
Y121760D01*
X39272D01*
X42339D01*
Y125165D01*
X42339Y125409D01*
Y126165D01*
X42339Y126409D01*
Y129815D01*
D02*
G37*
G36*
X10646Y127453D02*
X4512D01*
Y123803D01*
Y120185D01*
X10646D01*
Y123803D01*
Y127453D01*
D02*
G37*
G36*
Y119185D02*
X8079D01*
Y115535D01*
X10646D01*
Y119185D01*
D02*
G37*
G36*
X7079D02*
X4512D01*
Y115535D01*
X7079D01*
Y119185D01*
D02*
G37*
G36*
X49697Y116721D02*
X48961Y116416D01*
X48348Y115802D01*
X48043Y115067D01*
X49697D01*
Y116721D01*
D02*
G37*
G36*
X56512Y116551D02*
X54831D01*
Y115067D01*
X56512D01*
Y116551D01*
D02*
G37*
G36*
X71540Y117088D02*
X71169D01*
Y114102D01*
X72856D01*
Y115773D01*
X72756Y116276D01*
X72471Y116703D01*
X72044Y116988D01*
X71540Y117088D01*
D02*
G37*
G36*
X42339Y120760D02*
X39272D01*
X36205D01*
Y117354D01*
X36205Y117159D01*
X35732Y116354D01*
X35732Y116306D01*
Y113492D01*
X39094D01*
X42457D01*
Y116159D01*
X42457Y116354D01*
X42339Y117305D01*
Y120760D01*
D02*
G37*
G36*
X42457Y112492D02*
X39595D01*
Y109630D01*
X42457D01*
Y112492D01*
D02*
G37*
G36*
X38594D02*
X35732D01*
Y109630D01*
X38594D01*
Y112492D01*
D02*
G37*
G36*
X11322Y113192D02*
X3835D01*
Y108068D01*
X11322D01*
Y113192D01*
D02*
G37*
G36*
X45169Y108402D02*
X43409D01*
Y106720D01*
X45169D01*
Y108402D01*
D02*
G37*
G36*
X133275Y111581D02*
X132725D01*
X132218Y111371D01*
X131829Y110982D01*
X131619Y110475D01*
Y109925D01*
X131829Y109418D01*
X132218Y109029D01*
X132725Y108819D01*
X133275D01*
X133343Y108847D01*
X138101Y104089D01*
X138163Y103941D01*
X138441Y103663D01*
X138712Y103551D01*
X138727Y103541D01*
X138744Y103537D01*
X138804Y103513D01*
X138868D01*
X139000Y103486D01*
X139100D01*
X139373Y103541D01*
X139551Y103659D01*
X139559Y103663D01*
X139566Y103669D01*
X139605Y103695D01*
X139631Y103734D01*
X139837Y103941D01*
X139987Y104304D01*
Y104696D01*
X139837Y105059D01*
X139559Y105337D01*
X139196Y105487D01*
X138804D01*
X138746Y105464D01*
X134353Y109857D01*
X134381Y109925D01*
Y110475D01*
X134171Y110982D01*
X133782Y111371D01*
X133275Y111581D01*
D02*
G37*
G36*
X32316Y106581D02*
X29947D01*
Y103819D01*
X30134D01*
Y100575D01*
X28406D01*
X28036Y100501D01*
X27886Y100401D01*
X26886Y100704D01*
Y101075D01*
X22835D01*
X18783D01*
Y99394D01*
X19583Y99019D01*
Y96257D01*
X26086D01*
Y96669D01*
X26438D01*
X26808Y96743D01*
X27123Y96953D01*
X28808Y98638D01*
X31102D01*
X31473Y98711D01*
X31787Y98921D01*
X31811Y98956D01*
X32502D01*
Y100256D01*
X32071D01*
Y103819D01*
X32316D01*
Y106581D01*
D02*
G37*
G36*
X89075Y109681D02*
X88525D01*
X88018Y109471D01*
X87629Y109082D01*
X87419Y108575D01*
Y108025D01*
X87629Y107518D01*
X88018Y107129D01*
X88525Y106919D01*
X89075D01*
X89143Y106947D01*
X92186Y103904D01*
Y101979D01*
X92132Y101956D01*
X91743Y101568D01*
X91533Y101060D01*
Y100511D01*
X91743Y100003D01*
X92132Y99615D01*
X92640Y99405D01*
X93189D01*
X93697Y99615D01*
X94085Y100003D01*
X94296Y100511D01*
Y101060D01*
X94085Y101568D01*
X93697Y101956D01*
X93614Y101991D01*
Y104200D01*
X93559Y104473D01*
X93405Y104705D01*
X90153Y107957D01*
X90181Y108025D01*
Y108575D01*
X89971Y109082D01*
X89582Y109471D01*
X89075Y109681D01*
D02*
G37*
G36*
X41075Y100781D02*
X40525D01*
X40018Y100571D01*
X39767Y100320D01*
X37802D01*
X37529Y100266D01*
X37515Y100257D01*
X36402D01*
Y99088D01*
X35602D01*
Y98138D01*
X37802D01*
Y97138D01*
X35602D01*
Y96188D01*
X36402D01*
Y95019D01*
X37515D01*
X37529Y95009D01*
X37802Y94955D01*
X39769D01*
X40042Y95009D01*
X40273Y95164D01*
X41405Y96295D01*
X41559Y96527D01*
X41614Y96800D01*
Y98260D01*
X41971Y98618D01*
X42181Y99125D01*
Y99675D01*
X41971Y100182D01*
X41582Y100571D01*
X41075Y100781D01*
D02*
G37*
G36*
X78916Y104432D02*
X78367D01*
X77859Y104222D01*
X77471Y103833D01*
X77261Y103326D01*
Y102777D01*
X77289Y102708D01*
X77251Y102670D01*
X77096Y102438D01*
X77042Y102165D01*
Y94777D01*
X76919Y94654D01*
X76768Y94291D01*
Y93898D01*
X76919Y93535D01*
X77197Y93257D01*
X77560Y93107D01*
X77952D01*
X78315Y93257D01*
X78593Y93535D01*
X78743Y93898D01*
Y94291D01*
X78593Y94654D01*
X78470Y94777D01*
Y101670D01*
X78916D01*
X79424Y101880D01*
X79813Y102269D01*
X80023Y102777D01*
Y103326D01*
X79813Y103833D01*
X79424Y104222D01*
X78916Y104432D01*
D02*
G37*
G36*
X39891Y81423D02*
X37996D01*
X37723Y81368D01*
X37709Y81359D01*
X36596D01*
Y80190D01*
X35796D01*
Y79240D01*
X37996D01*
Y78240D01*
X35796D01*
Y77290D01*
X36596D01*
Y76121D01*
X37709D01*
X37723Y76112D01*
X37996Y76057D01*
X40030D01*
X40129Y75818D01*
X40518Y75429D01*
X41025Y75219D01*
X41575D01*
X42082Y75429D01*
X42471Y75818D01*
X42681Y76325D01*
Y76875D01*
X42471Y77382D01*
X42214Y77640D01*
Y79100D01*
X42159Y79373D01*
X42005Y79605D01*
X40396Y81214D01*
X40164Y81368D01*
X39891Y81423D01*
D02*
G37*
G36*
X31296Y74587D02*
X30904D01*
X30541Y74437D01*
X30263Y74159D01*
X30113Y73796D01*
Y73622D01*
X30037Y73546D01*
X27863D01*
Y74213D01*
X25495D01*
Y71451D01*
X27863D01*
Y72119D01*
X30332D01*
X30605Y72173D01*
X30837Y72328D01*
X31122Y72613D01*
X31296D01*
X31659Y72763D01*
X31937Y73041D01*
X32087Y73404D01*
Y73796D01*
X31937Y74159D01*
X31659Y74437D01*
X31296Y74587D01*
D02*
G37*
G36*
X102175Y104481D02*
X101625D01*
X101118Y104271D01*
X100729Y103882D01*
X100519Y103375D01*
Y102825D01*
X100729Y102318D01*
X101118Y101929D01*
X101186Y101901D01*
Y92100D01*
X101241Y91827D01*
X101395Y91595D01*
X119695Y73295D01*
X119927Y73141D01*
X120200Y73086D01*
X127961D01*
X128218Y72829D01*
X128725Y72619D01*
X129275D01*
X129782Y72829D01*
X130171Y73218D01*
X130381Y73725D01*
Y74275D01*
X130171Y74782D01*
X129782Y75171D01*
X129275Y75381D01*
X128725D01*
X128218Y75171D01*
X127829Y74782D01*
X127718Y74514D01*
X120496D01*
X102614Y92396D01*
Y101901D01*
X102682Y101929D01*
X103071Y102318D01*
X103281Y102825D01*
Y103375D01*
X103071Y103882D01*
X102682Y104271D01*
X102175Y104481D01*
D02*
G37*
G36*
X94875Y109181D02*
X94325D01*
X93818Y108971D01*
X93429Y108582D01*
X93219Y108075D01*
Y107525D01*
X93429Y107018D01*
X93818Y106629D01*
X94325Y106419D01*
X94875D01*
X94943Y106447D01*
X97686Y103704D01*
Y90900D01*
X97741Y90627D01*
X97895Y90395D01*
X119295Y68995D01*
X119527Y68841D01*
X119800Y68786D01*
X127901D01*
X127929Y68718D01*
X128318Y68329D01*
X128825Y68119D01*
X129375D01*
X129882Y68329D01*
X130271Y68718D01*
X130481Y69225D01*
Y69775D01*
X130271Y70282D01*
X129882Y70671D01*
X129375Y70881D01*
X128825D01*
X128318Y70671D01*
X127929Y70282D01*
X127901Y70214D01*
X120096D01*
X99114Y91196D01*
Y104000D01*
X99059Y104273D01*
X98905Y104505D01*
X95953Y107457D01*
X95981Y107525D01*
Y108075D01*
X95771Y108582D01*
X95382Y108971D01*
X94875Y109181D01*
D02*
G37*
G36*
X107398Y69898D02*
X105126D01*
Y67429D01*
X107398D01*
Y69898D01*
D02*
G37*
G36*
X27963Y69213D02*
X25594D01*
Y66451D01*
X27963D01*
Y67119D01*
X34285D01*
X34441Y66963D01*
X34804Y66813D01*
X35196D01*
X35559Y66963D01*
X35837Y67241D01*
X35987Y67604D01*
Y67996D01*
X35837Y68359D01*
X35559Y68637D01*
X35196Y68787D01*
X34804D01*
X34441Y68637D01*
X34350Y68546D01*
X27963D01*
Y69213D01*
D02*
G37*
G36*
X99575Y72681D02*
X99025D01*
X98518Y72471D01*
X98129Y72082D01*
X97919Y71575D01*
Y71025D01*
X98129Y70518D01*
X98518Y70129D01*
X98597Y70096D01*
Y69098D01*
X97339D01*
Y64761D01*
X97339D01*
X97451Y64491D01*
X96769Y63586D01*
X95272D01*
Y60824D01*
X96137D01*
Y60236D01*
X96191Y59963D01*
X96346Y59732D01*
X97044Y59033D01*
Y57477D01*
X99466D01*
X99894Y56643D01*
X99304Y55909D01*
X97044D01*
Y53540D01*
X99806D01*
Y53812D01*
X99895Y53829D01*
X100209Y54040D01*
X101136Y54966D01*
X101178Y54949D01*
X101917Y54409D01*
X101952Y54331D01*
X101952Y54331D01*
X102006Y54061D01*
X102158Y53832D01*
X102387Y53679D01*
X102657Y53625D01*
X102682D01*
X102968Y53339D01*
Y51972D01*
X102556D01*
Y49835D01*
X102556Y49603D01*
X101997Y48835D01*
X101756D01*
Y47350D01*
X103937D01*
Y46850D01*
X104437D01*
Y44866D01*
X105783D01*
X106118Y44866D01*
X107064Y44997D01*
X110194Y44997D01*
X110491Y44997D01*
X112956D01*
Y47916D01*
X112780D01*
Y49013D01*
X112995D01*
Y49425D01*
X114761D01*
Y47438D01*
X119885D01*
Y48638D01*
X121060D01*
Y47438D01*
X126184D01*
Y48638D01*
X129509D01*
X129818Y48329D01*
X130325Y48119D01*
X130875D01*
X131382Y48329D01*
X131771Y48718D01*
X131981Y49225D01*
Y49775D01*
X131771Y50282D01*
X131382Y50671D01*
X130875Y50881D01*
X130325D01*
X129818Y50671D01*
X129722Y50575D01*
X126184D01*
Y51775D01*
X121060D01*
Y50575D01*
X119885D01*
Y51775D01*
X119885D01*
X119797Y52775D01*
X119885Y52950D01*
X119885D01*
Y60436D01*
X117123D01*
Y53493D01*
X116315Y52685D01*
X116105Y52371D01*
X116031Y52000D01*
Y51775D01*
X114761D01*
Y51362D01*
X112995D01*
Y51775D01*
X110627D01*
Y49013D01*
X110627D01*
X110359Y48164D01*
X109304Y48218D01*
X109058Y49013D01*
X109058D01*
Y51775D01*
X106690D01*
Y51775D01*
X105913Y51989D01*
X105861Y52106D01*
X105867Y52128D01*
X106583Y52910D01*
X107177D01*
Y54331D01*
X108177D01*
Y52910D01*
X109252D01*
X109796Y53018D01*
X109824Y53036D01*
X110824Y52950D01*
X110824Y52950D01*
X113586D01*
Y60436D01*
X110824D01*
Y58658D01*
X110743Y58624D01*
X109707Y58722D01*
X109706Y58722D01*
X109252Y58910D01*
X109231Y58910D01*
X109231Y58910D01*
X108772Y58910D01*
X107975D01*
X107950Y58927D01*
X107677Y58981D01*
X103642D01*
X103457Y59166D01*
X103226Y59321D01*
X102953Y59375D01*
X99806D01*
Y59846D01*
X98482D01*
X98428Y60824D01*
X98428D01*
Y62773D01*
X99816Y64161D01*
X99970Y64392D01*
X100025Y64665D01*
X100120Y64761D01*
X101283Y64761D01*
X101854Y63997D01*
Y63961D01*
X104126D01*
Y66929D01*
Y69898D01*
X101854D01*
Y69861D01*
X101283Y69098D01*
X101025Y69098D01*
X100552Y69292D01*
X100506Y69373D01*
X100387Y70434D01*
X100471Y70518D01*
X100681Y71025D01*
Y71575D01*
X100471Y72082D01*
X100082Y72471D01*
X99575Y72681D01*
D02*
G37*
G36*
X107398Y66429D02*
X105126D01*
Y63961D01*
X107398D01*
Y66429D01*
D02*
G37*
G36*
X17760Y64035D02*
X14998D01*
Y61667D01*
X17760D01*
Y62138D01*
X34566D01*
X34641Y62063D01*
X35004Y61913D01*
X35396D01*
X35759Y62063D01*
X36037Y62341D01*
X36187Y62704D01*
Y63096D01*
X36037Y63459D01*
X35759Y63737D01*
X35396Y63887D01*
X35004D01*
X34641Y63737D01*
X34468Y63565D01*
X17760D01*
Y64035D01*
D02*
G37*
G36*
X70370Y63279D02*
X68610D01*
Y61598D01*
X70370D01*
Y63279D01*
D02*
G37*
G36*
X63673D02*
X61913D01*
Y61598D01*
X63673D01*
Y63279D01*
D02*
G37*
G36*
X86441Y61969D02*
X81000D01*
X80629Y61895D01*
X80315Y61685D01*
X76915Y58285D01*
X76705Y57971D01*
X76631Y57600D01*
Y45400D01*
X76705Y45029D01*
X76915Y44715D01*
X79630Y42000D01*
X79000Y41370D01*
X78790Y41056D01*
X78716Y40685D01*
Y29901D01*
X78402Y29032D01*
X76720D01*
Y26772D01*
Y24512D01*
X78402D01*
Y25312D01*
X81066D01*
Y25312D01*
X81994Y25137D01*
X83017Y24113D01*
Y22549D01*
X82017Y22135D01*
X81327Y22421D01*
X80580D01*
X79890Y22135D01*
X79361Y21606D01*
X79076Y20916D01*
Y20169D01*
X79361Y19479D01*
X79890Y18950D01*
X80580Y18665D01*
X81327D01*
X82017Y18950D01*
X83017Y18571D01*
X83052Y18571D01*
X85576Y18571D01*
X85992Y18571D01*
X88135Y18571D01*
X88551Y18571D01*
X90694Y18571D01*
X91110Y18571D01*
X92453D01*
Y17771D01*
X93741D01*
Y21428D01*
Y25086D01*
X92888D01*
X92418Y25139D01*
X91932Y25870D01*
Y27562D01*
X89170D01*
Y27202D01*
X88995Y27085D01*
X87995Y27562D01*
Y27562D01*
X85233D01*
Y26051D01*
X84233Y25637D01*
X82413Y27457D01*
X82099Y27667D01*
X81728Y27740D01*
X81066D01*
Y28231D01*
X80654D01*
Y40284D01*
X81401Y41031D01*
X88000D01*
X88371Y41105D01*
X88685Y41315D01*
X89661Y42292D01*
X89871Y42606D01*
X89945Y42976D01*
Y43096D01*
X90358Y43934D01*
X91335D01*
X91357Y43934D01*
X94098D01*
Y49058D01*
X93430D01*
Y50884D01*
X93376Y51157D01*
X93221Y51388D01*
X91429Y53180D01*
X91245Y53625D01*
X90856Y54014D01*
X90349Y54224D01*
X89799D01*
X89292Y54014D01*
X88903Y53625D01*
X88693Y53118D01*
Y52568D01*
X88903Y52061D01*
X89292Y51672D01*
X89799Y51462D01*
X90349D01*
X90856Y51672D01*
X90887Y51703D01*
X92003Y50588D01*
Y49791D01*
X91335Y49058D01*
X90358D01*
X90335Y49058D01*
X87617D01*
X87595Y49058D01*
X86617D01*
X85950Y49791D01*
Y50941D01*
X86604Y51595D01*
X87032Y51772D01*
X87420Y52161D01*
X87631Y52668D01*
Y53218D01*
X87420Y53725D01*
X87032Y54114D01*
X86524Y54324D01*
X85975D01*
X85467Y54114D01*
X85079Y53725D01*
X84868Y53218D01*
Y52668D01*
X85079Y52161D01*
X85115Y52124D01*
X84732Y51741D01*
X84577Y51509D01*
X84522Y51236D01*
Y49058D01*
X83855D01*
Y43969D01*
X83855Y43934D01*
X83771Y42969D01*
X81401D01*
X78569Y45801D01*
Y57199D01*
X81401Y60031D01*
X86040D01*
X87398Y58673D01*
Y57083D01*
X90554D01*
Y59846D01*
X88965D01*
X87126Y61685D01*
X86812Y61895D01*
X86441Y61969D01*
D02*
G37*
G36*
X145957Y58559D02*
X144276D01*
Y56799D01*
X145957D01*
Y58559D01*
D02*
G37*
G36*
X166142Y59388D02*
X161417D01*
X160725Y59251D01*
X160138Y58858D01*
X159746Y58271D01*
X159608Y57579D01*
Y54429D01*
X159746Y53737D01*
X160138Y53150D01*
X160725Y52757D01*
X161417Y52620D01*
X166142D01*
X166834Y52757D01*
X167421Y53150D01*
X167814Y53737D01*
X167951Y54429D01*
Y57579D01*
X167814Y58271D01*
X167421Y58858D01*
X166834Y59251D01*
X166142Y59388D01*
D02*
G37*
G36*
X145799Y51862D02*
X144118D01*
Y50102D01*
X145799D01*
Y51862D01*
D02*
G37*
G36*
X137795Y153180D02*
X136972Y153072D01*
X136205Y152754D01*
X135547Y152249D01*
X135041Y151590D01*
X134724Y150823D01*
X134615Y150000D01*
Y148031D01*
X134724Y147208D01*
X135041Y146441D01*
X135547Y145783D01*
X136205Y145278D01*
X136972Y144960D01*
X137131Y144939D01*
Y125200D01*
X137205Y124829D01*
X137415Y124515D01*
X155431Y106499D01*
Y48727D01*
X155263Y48604D01*
X154359Y48159D01*
X154157Y48294D01*
X153917Y48342D01*
X151756D01*
Y51339D01*
X151682Y51709D01*
X151472Y52024D01*
X151145Y52351D01*
Y53822D01*
X150732D01*
Y54839D01*
X151302D01*
Y57759D01*
X150890D01*
Y103679D01*
X150816Y104049D01*
X150606Y104364D01*
X130663Y124307D01*
X130349Y124517D01*
X129978Y124591D01*
X126043D01*
X125785Y125212D01*
X125280Y125871D01*
X124621Y126376D01*
X124010Y126629D01*
X123998Y126703D01*
X124063Y127645D01*
X125025Y128043D01*
X125851Y128677D01*
X126484Y129503D01*
X126883Y130464D01*
X126953Y130996D01*
X122047D01*
X117142D01*
X117212Y130464D01*
X117610Y129503D01*
X118244Y128677D01*
X119070Y128043D01*
X120031Y127645D01*
X120096Y126703D01*
X120085Y126629D01*
X119473Y126376D01*
X118814Y125871D01*
X118309Y125212D01*
X117991Y124445D01*
X117883Y123622D01*
X117991Y122799D01*
X118309Y122032D01*
X118814Y121373D01*
X119473Y120868D01*
X120085Y120615D01*
X120096Y120541D01*
X120031Y119599D01*
X119070Y119201D01*
X118244Y118567D01*
X117610Y117742D01*
X117212Y116780D01*
X117142Y116248D01*
X122047D01*
X126953D01*
X126883Y116780D01*
X126484Y117742D01*
X125851Y118567D01*
X125025Y119201D01*
X124063Y119599D01*
X123998Y120541D01*
X124010Y120615D01*
X124621Y120868D01*
X125280Y121373D01*
X125785Y122032D01*
X126043Y122653D01*
X129577D01*
X148953Y103278D01*
Y59429D01*
X148638Y58559D01*
X146957D01*
Y56299D01*
X146457D01*
Y55799D01*
X144276D01*
Y54622D01*
X144118D01*
Y52862D01*
X146299D01*
Y52362D01*
X146799D01*
Y50102D01*
X148480D01*
Y50902D01*
X149819D01*
Y48342D01*
X147658D01*
X147418Y48294D01*
X147215Y48159D01*
X147080Y47956D01*
X147032Y47717D01*
Y45787D01*
X147080Y45548D01*
X147215Y45345D01*
X147418Y45210D01*
X147658Y45162D01*
X153917D01*
X154157Y45210D01*
X154359Y45345D01*
X155263Y44900D01*
X155323Y44856D01*
X155371Y43841D01*
X155244Y43714D01*
X154359Y43238D01*
X154157Y43373D01*
X153917Y43421D01*
X147658D01*
X147418Y43373D01*
X147215Y43238D01*
X147080Y43035D01*
X147032Y42795D01*
Y40866D01*
X147080Y40627D01*
X147215Y40424D01*
X147418Y40288D01*
X147658Y40241D01*
X153917D01*
X154157Y40288D01*
X154359Y40424D01*
X154495Y40627D01*
X154542Y40862D01*
X154731D01*
X155101Y40936D01*
X155416Y41146D01*
X157085Y42815D01*
X157295Y43129D01*
X157369Y43500D01*
Y106900D01*
X157295Y107271D01*
X157085Y107585D01*
X139069Y125601D01*
Y145146D01*
X139385Y145278D01*
X140044Y145783D01*
X140549Y146441D01*
X140867Y147208D01*
X140975Y148031D01*
Y150000D01*
X140867Y150823D01*
X140549Y151590D01*
X140044Y152249D01*
X139385Y152754D01*
X138618Y153072D01*
X137795Y153180D01*
D02*
G37*
G36*
X103437Y46350D02*
X101756D01*
Y44866D01*
X103437D01*
Y46350D01*
D02*
G37*
G36*
X116823Y44701D02*
X113961D01*
Y42232D01*
X116823D01*
Y44701D01*
D02*
G37*
G36*
X126984D02*
X124122D01*
Y42232D01*
X126984D01*
Y44701D01*
D02*
G37*
G36*
Y41232D02*
X124122D01*
Y38764D01*
X126984D01*
Y41232D01*
D02*
G37*
G36*
X123122Y44701D02*
X117823D01*
Y41732D01*
Y38764D01*
X123122D01*
Y41732D01*
Y44701D01*
D02*
G37*
G36*
X116823Y41232D02*
X113961D01*
Y38764D01*
X116823D01*
Y41232D01*
D02*
G37*
G36*
X161600Y156769D02*
X128600D01*
X128229Y156695D01*
X127915Y156485D01*
X121362Y149932D01*
X121152Y149618D01*
X121079Y149247D01*
Y142550D01*
X121063D01*
X120240Y142442D01*
X119473Y142124D01*
X118814Y141619D01*
X118309Y140960D01*
X117991Y140193D01*
X117883Y139370D01*
X117991Y138547D01*
X118309Y137780D01*
X118814Y137121D01*
X119473Y136616D01*
X120085Y136363D01*
X120096Y136289D01*
X120031Y135347D01*
X119070Y134949D01*
X118244Y134315D01*
X117610Y133490D01*
X117212Y132528D01*
X117142Y131996D01*
X122047D01*
X126953D01*
X126883Y132528D01*
X126484Y133490D01*
X125851Y134315D01*
X125025Y134949D01*
X124063Y135347D01*
X123998Y136289D01*
X124010Y136363D01*
X124621Y136616D01*
X125280Y137121D01*
X125785Y137780D01*
X126103Y138547D01*
X126211Y139370D01*
X126103Y140193D01*
X125785Y140960D01*
X125280Y141619D01*
X124621Y142124D01*
X123854Y142442D01*
X123031Y142550D01*
X123016D01*
Y148846D01*
X129001Y154831D01*
X161199D01*
X169031Y146999D01*
Y46701D01*
X160208Y37878D01*
X154542D01*
X154495Y38113D01*
X154359Y38316D01*
X154157Y38452D01*
X153917Y38499D01*
X147658D01*
X147418Y38452D01*
X147215Y38316D01*
X147080Y38113D01*
X147032Y37874D01*
Y35945D01*
X147080Y35706D01*
X147215Y35503D01*
X147418Y35367D01*
X147421Y35366D01*
X147421Y34347D01*
X147106Y34284D01*
X146639Y33972D01*
X146326Y33504D01*
X146216Y32953D01*
Y32488D01*
X150787D01*
X155358D01*
Y32953D01*
X155249Y33504D01*
X154936Y33972D01*
X154517Y34252D01*
X154429Y34657D01*
X154357Y35326D01*
X154915Y35941D01*
X160609D01*
X160980Y36015D01*
X161294Y36224D01*
X170685Y45615D01*
X170895Y45929D01*
X170969Y46300D01*
Y147400D01*
X170895Y147771D01*
X170685Y148085D01*
X162285Y156485D01*
X161971Y156695D01*
X161600Y156769D01*
D02*
G37*
G36*
X7760Y64067D02*
X4998D01*
Y61698D01*
X5665D01*
Y56421D01*
X5719Y56148D01*
X5874Y55917D01*
X23695Y38095D01*
X23927Y37941D01*
X24200Y37886D01*
X70501D01*
X70529Y37818D01*
X70918Y37429D01*
X71425Y37219D01*
X71975D01*
X72482Y37429D01*
X72871Y37818D01*
X73081Y38325D01*
Y38875D01*
X72871Y39382D01*
X72575Y39950D01*
X72871Y40518D01*
X73081Y41025D01*
Y41575D01*
X72871Y42082D01*
X72482Y42471D01*
X71975Y42681D01*
X71425D01*
X70918Y42471D01*
X70529Y42082D01*
X70501Y42014D01*
X29396D01*
X11814Y59596D01*
Y61635D01*
X12660D01*
Y64004D01*
X9898D01*
Y61635D01*
X10386D01*
Y59300D01*
X10441Y59027D01*
X10595Y58795D01*
X28595Y40795D01*
X28827Y40641D01*
X29100Y40586D01*
X69847D01*
X70252Y39950D01*
X69847Y39314D01*
X24496D01*
X7092Y56717D01*
Y61698D01*
X7760D01*
Y64067D01*
D02*
G37*
G36*
X91158Y39976D02*
X90853Y39976D01*
X90853Y39976D01*
X89476D01*
Y36614D01*
Y33252D01*
X90574D01*
X90988Y32252D01*
X90235Y31499D01*
X89170D01*
Y29131D01*
X91932D01*
Y30196D01*
X93467Y31730D01*
X93697Y32074D01*
X93777Y32480D01*
Y34052D01*
X94098D01*
Y39176D01*
X91640Y39176D01*
X91158Y39976D01*
D02*
G37*
G36*
X86795D02*
X86312Y39176D01*
X85795Y39176D01*
X83855D01*
Y34052D01*
X84175D01*
Y31693D01*
X84256Y31287D01*
X84486Y30943D01*
X85233Y30196D01*
Y29131D01*
X87995D01*
Y31499D01*
X86930D01*
X86297Y32132D01*
Y32458D01*
X86795Y33252D01*
X87297Y33252D01*
X88476D01*
Y36614D01*
Y39976D01*
X87100D01*
X87100Y39976D01*
X86795Y39976D01*
D02*
G37*
G36*
X134744Y55810D02*
X134351D01*
X133988Y55660D01*
X133710Y55382D01*
X133560Y55019D01*
Y54626D01*
X133710Y54264D01*
X133786Y54187D01*
Y36600D01*
X133841Y36327D01*
X133995Y36095D01*
X142395Y27695D01*
X142627Y27541D01*
X142900Y27486D01*
X162100D01*
X162373Y27541D01*
X162605Y27695D01*
X170805Y35895D01*
X170959Y36127D01*
X171014Y36400D01*
Y41217D01*
X171137Y41341D01*
X171287Y41704D01*
Y42096D01*
X171137Y42459D01*
X170859Y42737D01*
X170496Y42887D01*
X170104D01*
X169741Y42737D01*
X169463Y42459D01*
X169313Y42096D01*
Y41704D01*
X169463Y41341D01*
X169586Y41217D01*
Y36696D01*
X161804Y28914D01*
X155104D01*
X154800Y29914D01*
X154936Y30005D01*
X155249Y30472D01*
X155358Y31024D01*
Y31488D01*
X150787D01*
X146216D01*
Y31024D01*
X146326Y30472D01*
X146639Y30005D01*
X146775Y29914D01*
X146471Y28914D01*
X143196D01*
X135214Y36896D01*
Y54093D01*
X135384Y54264D01*
X135535Y54626D01*
Y55019D01*
X135384Y55382D01*
X135107Y55660D01*
X134744Y55810D01*
D02*
G37*
G36*
X75721Y29032D02*
X74039D01*
Y27272D01*
X75721D01*
Y29032D01*
D02*
G37*
G36*
Y26272D02*
X74039D01*
Y24512D01*
X75721D01*
Y26272D01*
D02*
G37*
G36*
X166142Y26121D02*
X161417D01*
X160725Y25983D01*
X160138Y25591D01*
X159746Y25003D01*
X159608Y24311D01*
Y21161D01*
X159746Y20469D01*
X160138Y19882D01*
X160725Y19490D01*
X161417Y19352D01*
X166142D01*
X166834Y19490D01*
X167421Y19882D01*
X167814Y20469D01*
X167951Y21161D01*
Y24311D01*
X167814Y25003D01*
X167421Y25591D01*
X166834Y25983D01*
X166142Y26121D01*
D02*
G37*
G36*
X96028Y25086D02*
X94741D01*
Y21428D01*
Y17771D01*
X96028D01*
Y17951D01*
X96919Y18665D01*
X97666D01*
X98356Y18950D01*
X98884Y19479D01*
X99170Y20169D01*
Y20916D01*
X98884Y21606D01*
X98356Y22135D01*
X97666Y22421D01*
X96919D01*
X96028Y23134D01*
Y25086D01*
D02*
G37*
G36*
X13672Y20291D02*
X13492D01*
Y13886D01*
X19898D01*
Y14066D01*
X19632Y15400D01*
X19112Y16657D01*
X18356Y17788D01*
X17394Y18750D01*
X16263Y19505D01*
X15006Y20026D01*
X13672Y20291D01*
D02*
G37*
G36*
X12492D02*
X12312D01*
X10978Y20026D01*
X9721Y19505D01*
X8590Y18750D01*
X7628Y17788D01*
X6872Y16657D01*
X6352Y15400D01*
X6087Y14066D01*
Y13886D01*
X12492D01*
Y20291D01*
D02*
G37*
G36*
X109414Y15637D02*
X105371D01*
Y11397D01*
X109414D01*
Y15637D01*
D02*
G37*
G36*
X104371D02*
X100328D01*
Y11397D01*
X104371D01*
Y15637D01*
D02*
G37*
G36*
X98587D02*
X94347D01*
Y11397D01*
X98587D01*
Y15637D01*
D02*
G37*
G36*
X83898D02*
X79658D01*
Y11397D01*
X83898D01*
Y15637D01*
D02*
G37*
G36*
X77918D02*
X73875D01*
Y11397D01*
X77918D01*
Y15637D01*
D02*
G37*
G36*
X72875D02*
X68831D01*
Y11397D01*
X72875D01*
Y15637D01*
D02*
G37*
G36*
X168397Y17535D02*
X168217D01*
Y11130D01*
X174622D01*
Y11310D01*
X174357Y12644D01*
X173836Y13901D01*
X173080Y15032D01*
X172118Y15994D01*
X170987Y16749D01*
X169731Y17270D01*
X168397Y17535D01*
D02*
G37*
G36*
X167217D02*
X167036D01*
X165702Y17270D01*
X164446Y16749D01*
X163314Y15994D01*
X162353Y15032D01*
X161597Y13901D01*
X161076Y12644D01*
X160811Y11310D01*
Y11130D01*
X167217D01*
Y17535D01*
D02*
G37*
G36*
X19898Y12886D02*
X13492D01*
Y6480D01*
X13672D01*
X15006Y6746D01*
X16263Y7266D01*
X17394Y8022D01*
X18356Y8984D01*
X19112Y10115D01*
X19632Y11372D01*
X19898Y12706D01*
Y12886D01*
D02*
G37*
G36*
X12492D02*
X6087D01*
Y12706D01*
X6352Y11372D01*
X6872Y10115D01*
X7628Y8984D01*
X8590Y8022D01*
X9721Y7266D01*
X10978Y6746D01*
X12312Y6480D01*
X12492D01*
Y12886D01*
D02*
G37*
G36*
X109414Y10397D02*
X105371D01*
Y6157D01*
X109414D01*
Y10397D01*
D02*
G37*
G36*
X104371D02*
X100328D01*
Y6157D01*
X104371D01*
Y10397D01*
D02*
G37*
G36*
X98587D02*
X94347D01*
Y6157D01*
X98587D01*
Y10397D01*
D02*
G37*
G36*
X93347Y15637D02*
X84898D01*
Y10897D01*
Y6157D01*
X93347D01*
Y10897D01*
Y15637D01*
D02*
G37*
G36*
X83898Y10397D02*
X79658D01*
Y6157D01*
X83898D01*
Y10397D01*
D02*
G37*
G36*
X77918D02*
X73875D01*
Y6157D01*
X77918D01*
Y10397D01*
D02*
G37*
G36*
X72875D02*
X68831D01*
Y6157D01*
X72875D01*
Y10397D01*
D02*
G37*
G36*
X174622Y10130D02*
X168217D01*
Y3724D01*
X168397D01*
X169731Y3990D01*
X170987Y4510D01*
X172118Y5266D01*
X173080Y6228D01*
X173836Y7359D01*
X174357Y8616D01*
X174622Y9950D01*
Y10130D01*
D02*
G37*
G36*
X167217D02*
X160811D01*
Y9950D01*
X161076Y8616D01*
X161597Y7359D01*
X162353Y6228D01*
X163314Y5266D01*
X164446Y4510D01*
X165702Y3990D01*
X167036Y3724D01*
X167217D01*
Y10130D01*
D02*
G37*
%LPD*%
D18*
X134500Y54776D02*
X134547Y54823D01*
X134500Y36600D02*
Y54776D01*
X50197Y110138D02*
X51772Y108563D01*
X50197Y110138D02*
Y114567D01*
X51772Y108563D02*
X56398D01*
X58661Y106299D01*
X54331Y114567D02*
X54331Y114567D01*
X50197Y114567D02*
X54331D01*
X77756Y102165D02*
X78642Y103051D01*
X77756Y94095D02*
Y102165D01*
X88553Y116153D02*
X93200Y120800D01*
X83604Y111396D02*
X88361Y116153D01*
X88553D01*
X92900Y100800D02*
Y104200D01*
Y100800D02*
X92914Y100786D01*
X94600Y107800D02*
X98400Y104000D01*
X49114Y78347D02*
Y83025D01*
X45918Y86221D02*
X49114Y83025D01*
X45918Y86221D02*
X45918D01*
X42126Y90013D02*
X45918Y86221D01*
X42126Y90013D02*
Y93996D01*
X45669Y97539D01*
Y102756D01*
X99300Y71300D02*
X99311Y71289D01*
Y66929D02*
Y71289D01*
X41300Y76600D02*
X41500Y76800D01*
Y79100D01*
X39891Y80709D02*
X41500Y79100D01*
X37996Y80709D02*
X39891D01*
X41129Y76771D02*
X41300Y76600D01*
X37996Y76771D02*
X41129D01*
X37802Y90158D02*
X39483D01*
X40900Y88741D01*
Y86000D02*
Y88741D01*
X40680Y86220D02*
X40900Y86000D01*
X37802Y86220D02*
X40680D01*
X40800Y99400D02*
X40900Y99300D01*
Y96800D02*
Y99300D01*
X39769Y95669D02*
X40900Y96800D01*
X37802Y95669D02*
X39769D01*
X40593Y99607D02*
X40800Y99400D01*
X37802Y99607D02*
X40593D01*
X45000Y91100D02*
X53400Y82700D01*
X45000Y91100D02*
Y92200D01*
X47100Y92800D02*
X54400Y85500D01*
X47100Y92800D02*
Y94400D01*
X50200Y93400D02*
Y95800D01*
Y93400D02*
X55000Y88600D01*
X88800Y108300D02*
X92900Y104200D01*
X98400Y90900D02*
X119800Y69500D01*
X98400Y90900D02*
Y104000D01*
X101900Y92100D02*
X120200Y73800D01*
X101900Y92100D02*
Y103100D01*
X26779Y67832D02*
X34968D01*
X35000Y67800D01*
X16379Y62851D02*
X35151D01*
X35200Y62900D01*
X53400Y82700D02*
X56300D01*
X54400Y85500D02*
X56600D01*
X120200Y73800D02*
X128800D01*
X129000Y74000D01*
X119800Y69500D02*
X129100D01*
X134500Y36600D02*
X142900Y28200D01*
X162100D01*
X170300Y36400D02*
Y41900D01*
X162100Y28200D02*
X170300Y36400D01*
X90158Y126772D02*
X91528D01*
X93200Y125100D01*
Y120800D02*
Y125100D01*
X152184Y149016D02*
X153600Y147600D01*
X145669Y149016D02*
X152184D01*
X161000Y103100D02*
Y133800D01*
X164500Y137300D01*
X139000Y104200D02*
X139100D01*
X133000Y110200D02*
X139000Y104200D01*
Y104300D02*
Y104500D01*
Y104300D02*
X139100Y104200D01*
X55000Y88600D02*
X56400D01*
X11100Y59300D02*
X29100Y41300D01*
X71700D01*
X6379Y56421D02*
X24200Y38600D01*
X6379Y56421D02*
Y62883D01*
X24200Y38600D02*
X71700D01*
X11100Y62641D02*
X11279Y62820D01*
X11100Y59300D02*
Y62641D01*
X26679Y72832D02*
X30332D01*
X31100Y73600D01*
X85236Y51236D02*
X86250Y52249D01*
Y52943D01*
X90074Y52843D02*
X90757D01*
X92716Y50884D01*
Y46496D02*
Y50884D01*
X85236Y46496D02*
Y51236D01*
X102953Y58661D02*
X103347Y58268D01*
X98425Y58661D02*
X102953D01*
X103347Y58268D02*
X107677D01*
X96850Y60236D02*
X98425Y58661D01*
X96850Y60236D02*
Y62205D01*
X99311Y64665D02*
Y66929D01*
X96850Y62205D02*
X99311Y64665D01*
D20*
X52800Y121893D02*
D03*
Y133507D02*
D03*
D21*
X44144Y137402D02*
D03*
X35384D02*
D03*
D22*
X35069Y105200D02*
D03*
X31132D02*
D03*
X38189Y167717D02*
D03*
X34252D02*
D03*
X67323Y132677D02*
D03*
X71260D02*
D03*
X107874Y50394D02*
D03*
X111811D02*
D03*
X22842Y67832D02*
D03*
X26779D02*
D03*
X22742Y72832D02*
D03*
X26679D02*
D03*
X26378Y137008D02*
D03*
X30315D02*
D03*
D23*
X19193Y144882D02*
D03*
X7579D02*
D03*
X19193Y119685D02*
D03*
X7579D02*
D03*
X19193Y127953D02*
D03*
X7579D02*
D03*
X19193Y136614D02*
D03*
X7579D02*
D03*
X27657Y121260D02*
D03*
X39272D02*
D03*
X27657Y130315D02*
D03*
X39272D02*
D03*
D24*
X22835Y101575D02*
D03*
Y97638D02*
D03*
Y93701D02*
D03*
Y85827D02*
D03*
Y81890D02*
D03*
Y77953D02*
D03*
Y89764D02*
D03*
Y105512D02*
D03*
D25*
X7579Y110630D02*
D03*
Y72835D02*
D03*
D26*
X58780Y141732D02*
D03*
X63779D02*
D03*
X68779D02*
D03*
X73779D02*
D03*
X58780Y164331D02*
D03*
X63779D02*
D03*
X68779D02*
D03*
X73779D02*
D03*
D27*
X48031Y168701D02*
D03*
Y163583D02*
D03*
X42520Y163583D02*
D03*
Y168701D02*
D03*
D28*
X27677Y158287D02*
D03*
Y153287D02*
D03*
Y148287D02*
D03*
Y143287D02*
D03*
X50276Y158287D02*
D03*
Y153287D02*
D03*
Y148287D02*
D03*
Y143287D02*
D03*
D29*
X34268Y163800D02*
D03*
X37732D02*
D03*
X146457Y56299D02*
D03*
X149921D02*
D03*
X146299Y52362D02*
D03*
X149764D02*
D03*
X111575Y46457D02*
D03*
X108110D02*
D03*
X79685Y26772D02*
D03*
X76221D02*
D03*
D30*
X80709Y145768D02*
D03*
Y151083D02*
D03*
X68504Y126378D02*
D03*
Y121063D02*
D03*
X54331Y105315D02*
D03*
Y100000D02*
D03*
D31*
X75600Y106668D02*
D03*
Y110132D02*
D03*
X45669Y106220D02*
D03*
Y102756D02*
D03*
X68110Y63779D02*
D03*
Y67244D02*
D03*
X64173Y63779D02*
D03*
Y67244D02*
D03*
D32*
X49606Y106299D02*
D03*
Y102362D02*
D03*
X80315Y141339D02*
D03*
Y137402D02*
D03*
X90158Y134252D02*
D03*
Y130315D02*
D03*
Y122835D02*
D03*
Y126772D02*
D03*
X98425Y54724D02*
D03*
Y58661D02*
D03*
X86614Y26378D02*
D03*
Y30315D02*
D03*
X90551Y26378D02*
D03*
Y30315D02*
D03*
X6379Y66820D02*
D03*
Y62883D02*
D03*
X11279Y66757D02*
D03*
Y62820D02*
D03*
X16379Y66788D02*
D03*
Y62851D02*
D03*
X103937Y46850D02*
D03*
Y50787D02*
D03*
X58661Y106299D02*
D03*
Y102362D02*
D03*
X59055Y110630D02*
D03*
Y114567D02*
D03*
X54331Y114567D02*
D03*
Y110630D02*
D03*
D33*
X65945Y84646D02*
D03*
X86024D02*
D03*
D34*
X58661Y99410D02*
D03*
Y96850D02*
D03*
D35*
X61417Y133189D02*
D03*
X27835Y112992D02*
D03*
D36*
X61417Y121929D02*
D03*
X39094Y112992D02*
D03*
D37*
X76378Y128740D02*
D03*
X84252Y132480D02*
D03*
Y125000D02*
D03*
D38*
X85630Y139370D02*
D03*
X91535D02*
D03*
D39*
X110236Y138976D02*
D03*
X102362D02*
D03*
X110236Y146457D02*
D03*
X102362D02*
D03*
X110236Y153937D02*
D03*
X102362D02*
D03*
X110236Y160630D02*
D03*
X102362D02*
D03*
D40*
X137795Y149016D02*
D03*
X145669D02*
D03*
D41*
X122047Y139370D02*
D03*
Y131496D02*
D03*
Y123622D02*
D03*
Y115748D02*
D03*
Y107874D02*
D03*
D42*
X150787Y41831D02*
D03*
Y31988D02*
D03*
Y46752D02*
D03*
Y36909D02*
D03*
D43*
X163779Y22736D02*
D03*
Y56004D02*
D03*
D44*
X96850Y62205D02*
D03*
X88976Y58465D02*
D03*
Y65945D02*
D03*
D45*
X104626Y66929D02*
D03*
X99311D02*
D03*
D46*
X103347Y58268D02*
D03*
Y56299D02*
D03*
Y54331D02*
D03*
D47*
X107677Y58268D02*
D03*
Y56299D02*
D03*
Y54331D02*
D03*
D48*
X112205Y56693D02*
D03*
X118504D02*
D03*
D49*
X117323Y41732D02*
D03*
Y49606D02*
D03*
X123622Y41732D02*
D03*
Y49606D02*
D03*
X80315Y161024D02*
D03*
Y168898D02*
D03*
X87008Y161024D02*
D03*
Y168898D02*
D03*
X94488Y161417D02*
D03*
Y169291D02*
D03*
D50*
X84398Y10897D02*
D03*
X93847D02*
D03*
D51*
X73375D02*
D03*
X104871D02*
D03*
D52*
X84005Y21428D02*
D03*
X94241D02*
D03*
X86564D02*
D03*
X89123D02*
D03*
X91682D02*
D03*
D53*
X85236Y36614D02*
D03*
X88976D02*
D03*
X92716D02*
D03*
X85236Y46496D02*
D03*
X88976D02*
D03*
X92716D02*
D03*
D54*
X37996Y76771D02*
D03*
Y78740D02*
D03*
Y80709D02*
D03*
X31296Y80709D02*
D03*
Y76772D02*
D03*
X37802Y86220D02*
D03*
Y88189D02*
D03*
Y90158D02*
D03*
X31102Y90158D02*
D03*
Y86221D02*
D03*
X37802Y95669D02*
D03*
Y97638D02*
D03*
Y99607D02*
D03*
X31102Y99606D02*
D03*
Y95669D02*
D03*
D55*
X70669Y113602D02*
D03*
X66929D02*
D03*
X63189D02*
D03*
Y103720D02*
D03*
X66929D02*
D03*
X70669D02*
D03*
D95*
X66929D02*
Y105610D01*
X64370Y108169D02*
X66929Y105610D01*
X61516Y108169D02*
X64370D01*
X59055Y110630D02*
X61516Y108169D01*
X43744Y102756D02*
X45669D01*
X87677Y67244D02*
X88976Y65945D01*
X82156Y67244D02*
X87677D01*
X41300Y105200D02*
X43744Y102756D01*
X35069Y105200D02*
X41300D01*
X130494Y49606D02*
X130600Y49500D01*
X117323Y49606D02*
X130494D01*
X161600Y155800D02*
X170000Y147400D01*
X128600Y155800D02*
X161600D01*
X170000Y46300D02*
Y147400D01*
X160609Y36909D02*
X170000Y46300D01*
X122047Y149247D02*
X128600Y155800D01*
X22742Y77860D02*
X22835Y77953D01*
X22742Y72832D02*
Y77860D01*
X19968Y67832D02*
X22842D01*
X17800Y70000D02*
X19968Y67832D01*
X17800Y70000D02*
Y80200D01*
X19490Y81890D01*
X22835D01*
X15400Y83000D02*
X18200Y85800D01*
X15400Y67767D02*
Y83000D01*
Y67767D02*
X16379Y66788D01*
X22808Y85800D02*
X22835Y85827D01*
X18200Y85800D02*
X22808D01*
X13000Y70000D02*
Y87200D01*
X15564Y89764D01*
X22835D01*
X11279Y68279D02*
X13000Y70000D01*
X11279Y66757D02*
Y68279D01*
X9001Y93701D02*
X22835D01*
X2500Y87200D02*
X9001Y93701D01*
X2500Y69500D02*
Y87200D01*
Y69500D02*
X5180Y66820D01*
X6379D01*
X30115Y77953D02*
X31296Y76772D01*
X22835Y77953D02*
X30115D01*
Y81890D02*
X31296Y80709D01*
X22835Y81890D02*
X30115D01*
X30709Y85827D02*
X31102Y86221D01*
X22835Y85827D02*
X30709D01*
Y89764D02*
X31102Y90158D01*
X22835Y89764D02*
X30709D01*
X29134Y93701D02*
X31102Y95669D01*
X22835Y93701D02*
X29134D01*
X86441Y61000D02*
X88976Y58465D01*
X81000Y61000D02*
X86441D01*
X84005Y21428D02*
Y24495D01*
X81728Y26772D02*
X84005Y24495D01*
X79685Y26772D02*
X81728D01*
X79685Y40685D02*
X81000Y42000D01*
X79685Y26772D02*
Y40685D01*
X77600Y57600D02*
X81000Y61000D01*
X77600Y45400D02*
Y57600D01*
Y45400D02*
X81000Y42000D01*
X88000D01*
X88976Y42976D01*
Y46496D01*
X122047Y139370D02*
Y149247D01*
X150787Y36909D02*
X160609D01*
X156400Y43500D02*
Y106900D01*
X154731Y41831D02*
X156400Y43500D01*
X138100Y125200D02*
X156400Y106900D01*
X137795Y149016D02*
X138100Y148711D01*
Y125200D02*
Y148711D01*
X150787Y41831D02*
X154731D01*
X122047Y123622D02*
X129978D01*
X149921Y103679D01*
Y56299D02*
Y103679D01*
X149764Y56142D02*
X149921Y56299D01*
X149764Y52362D02*
Y56142D01*
Y52362D02*
X150787Y51339D01*
Y46752D02*
Y51339D01*
X116535Y50394D02*
X117000Y49929D01*
X117323Y49606D01*
X117000Y49929D02*
Y52000D01*
X118504Y53504D01*
Y56693D01*
X111811Y56299D02*
X112205Y56693D01*
X107677Y56299D02*
X111811D01*
Y50394D02*
X116535D01*
X111575Y46457D02*
X111811Y46693D01*
Y50394D01*
X107874Y46693D02*
X108110Y46457D01*
X107874Y46693D02*
Y50394D01*
X107480Y50787D02*
X107874Y50394D01*
X103937Y50787D02*
X107480D01*
X103937D02*
Y53740D01*
X103347Y54331D02*
X103937Y53740D01*
X103346Y56300D02*
X103347Y56299D01*
X101100Y56300D02*
X103346D01*
X99524Y54724D02*
X101100Y56300D01*
X98425Y54724D02*
X99524D01*
X89123Y21428D02*
X89200Y21506D01*
Y25027D01*
X90551Y26378D01*
X86564Y21428D02*
X86614Y21479D01*
Y26378D01*
X68110Y67244D02*
X82156D01*
X64173D02*
X68110D01*
X64173D02*
Y70773D01*
X65945Y72545D01*
Y84646D01*
X58661Y91929D02*
X65945Y84646D01*
X58661Y91929D02*
Y96850D01*
X57191Y99410D02*
X58661D01*
X56600Y100000D02*
X57191Y99410D01*
X54331Y100000D02*
X56600D01*
X49606Y102362D02*
X51968Y100000D01*
X54331D01*
X31102Y105171D02*
X31132Y105200D01*
X31102Y99606D02*
Y105171D01*
X28406Y99606D02*
X31102D01*
X26438Y97638D02*
X28406Y99606D01*
X22835Y97638D02*
X26438D01*
D96*
X116726Y107874D02*
X122047D01*
X102362Y122238D02*
X116726Y107874D01*
X102362Y122238D02*
Y138976D01*
X102362Y146457D02*
Y153937D01*
Y138976D02*
Y146457D01*
X87008Y161024D02*
X101969D01*
X102362Y153937D02*
Y160630D01*
X102362Y138976D02*
X102362Y138976D01*
X80315Y161024D02*
X87008D01*
X101969D02*
X102362Y160630D01*
X80315Y151476D02*
X80709Y151083D01*
X80315Y151476D02*
Y161024D01*
X77008Y164331D02*
X80315Y161024D01*
X73779Y164331D02*
X77008D01*
X68779D02*
X73779D01*
X63779D02*
X68779D01*
X58780D02*
X63779D01*
X58780Y135827D02*
X61417Y133189D01*
X58780Y135827D02*
Y141732D01*
X63779D02*
X68779D01*
X58780D02*
X63779D01*
X57224Y143287D02*
X58780Y141732D01*
X50276Y143287D02*
X57224D01*
D97*
X29100Y165900D02*
X31200Y163800D01*
X34268D01*
X56674Y102972D02*
X56796D01*
X57406Y102362D02*
X58661D01*
X56796Y102972D02*
X57406Y102362D01*
X54331Y105315D02*
X56674Y102972D01*
X61831Y102362D02*
X63189Y103720D01*
X58661Y102362D02*
X61831D01*
X49606Y106299D02*
X53347D01*
X54331Y105315D01*
X59055Y110630D02*
X59055Y110630D01*
X54331Y110630D02*
X59055D01*
X68700Y108800D02*
X72000D01*
X66929Y110571D02*
Y113602D01*
Y110571D02*
X68700Y108800D01*
X70669Y103720D02*
X72653D01*
X75600Y106668D01*
X72000Y108800D02*
X73332Y110132D01*
X75600D01*
X62224Y114567D02*
X63189Y113602D01*
X59055Y114567D02*
X62224D01*
X63189Y113602D02*
Y117711D01*
X61417Y119483D02*
X63189Y117711D01*
X61417Y119483D02*
Y121929D01*
X91400Y139235D02*
X91535Y139370D01*
X91400Y136400D02*
Y139235D01*
X90158Y135158D02*
X91400Y136400D01*
X90158Y134252D02*
Y135158D01*
Y126772D02*
Y130315D01*
X84252Y125000D02*
X86417Y122835D01*
X90158D01*
X76378Y131778D02*
X80315Y135715D01*
X76378Y128740D02*
Y131778D01*
X80315Y135715D02*
Y137402D01*
Y145374D02*
X80709Y145768D01*
X80315Y141339D02*
Y145374D01*
X79921Y141732D02*
X80315Y141339D01*
X73779Y141732D02*
X79921D01*
X73779Y135197D02*
Y141732D01*
X71260Y132677D02*
X73779Y135197D01*
X64923Y132677D02*
X67323D01*
X64411Y133189D02*
X64923Y132677D01*
X61417Y133189D02*
X64411D01*
X34252Y164016D02*
Y167717D01*
X38189D02*
X39173Y168701D01*
X42520D01*
X34990Y137008D02*
X35384Y137402D01*
X30315Y137008D02*
X34990D01*
X27677Y143287D02*
X30315Y140650D01*
Y137008D02*
Y140650D01*
D98*
X75600Y110132D02*
X78168D01*
X86024Y102276D01*
Y84646D02*
Y102276D01*
X22835Y105512D02*
X27835Y110512D01*
Y112992D01*
X68241Y120800D02*
X68504Y121063D01*
X65600Y120800D02*
X68241D01*
X64471Y121929D02*
X65600Y120800D01*
X61417Y121929D02*
X64471D01*
X61381Y121893D02*
X61417Y121929D01*
X52800Y121893D02*
X61381D01*
X42520Y168701D02*
X42520Y168701D01*
X48031D01*
Y163583D02*
X50276Y161339D01*
Y158287D02*
Y161339D01*
Y153287D02*
Y158287D01*
Y148287D02*
Y153287D01*
Y143287D02*
Y148287D01*
X50000Y143012D02*
X50276Y143287D01*
X50000Y140700D02*
Y143012D01*
X46702Y137402D02*
X50000Y140700D01*
X44144Y137402D02*
X46702D01*
X27677Y153287D02*
Y158287D01*
Y148287D02*
Y153287D01*
X22598Y148287D02*
X27677D01*
X19193Y144882D02*
X22598Y148287D01*
X19193Y136614D02*
Y144882D01*
Y127953D02*
Y136614D01*
Y119685D02*
Y127953D01*
Y119685D02*
X20768Y121260D01*
X27657D01*
Y130315D01*
Y121260D02*
X27835Y121083D01*
Y112992D02*
Y121083D01*
D99*
X85236Y31693D02*
X86614Y30315D01*
X85236Y31693D02*
Y36614D01*
X90551Y30315D02*
X92716Y32480D01*
Y36614D01*
D100*
X80954Y20542D02*
D03*
X97292D02*
D03*
D101*
X167717Y10630D02*
D03*
X165354Y166142D02*
D03*
X12598Y164567D02*
D03*
X12992Y13386D02*
D03*
D102*
X134547Y54823D02*
D03*
X77756Y94095D02*
D03*
X83604Y111396D02*
D03*
X35000Y67800D02*
D03*
X35200Y62900D02*
D03*
X170300Y41900D02*
D03*
X29100Y165900D02*
D03*
X153600Y147600D02*
D03*
X161000Y103100D02*
D03*
X139000Y104500D02*
D03*
X31100Y73600D02*
D03*
D103*
X50197Y114567D02*
D03*
X78642Y103051D02*
D03*
X92914Y100786D02*
D03*
X94600Y107800D02*
D03*
X49114Y78347D02*
D03*
X40800Y99400D02*
D03*
X45000Y92200D02*
D03*
X56300Y82700D02*
D03*
X47100Y94400D02*
D03*
X56600Y85500D02*
D03*
X56400Y88600D02*
D03*
X50200Y95800D02*
D03*
X40900Y86000D02*
D03*
X41300Y76600D02*
D03*
X99300Y71300D02*
D03*
X101900Y103100D02*
D03*
X88800Y108300D02*
D03*
X129000Y74000D02*
D03*
X129100Y69500D02*
D03*
X130600Y49500D02*
D03*
X164500Y137300D02*
D03*
X133000Y110200D02*
D03*
X71700Y41300D02*
D03*
Y38600D02*
D03*
X90074Y52843D02*
D03*
X86250Y52943D02*
D03*
M02*
