G04*
G04 #@! TF.GenerationSoftware,Altium Limited,Altium Designer,24.10.1 (45)*
G04*
G04 Layer_Physical_Order=2*
G04 Layer_Color=32768*
%FSLAX25Y25*%
%MOIN*%
G70*
G04*
G04 #@! TF.SameCoordinates,1F7DBCF5-7643-4606-9888-D8ADD4ED05EF*
G04*
G04*
G04 #@! TF.FilePolarity,Negative*
G04*
G01*
G75*
%ADD104C,0.04000*%
%ADD105C,0.06756*%
G04:AMPARAMS|DCode=106|XSize=130.866mil|YSize=130.866mil|CornerRadius=0mil|HoleSize=0mil|Usage=FLASHONLY|Rotation=0.000|XOffset=0mil|YOffset=0mil|HoleType=Round|Shape=Relief|Width=10mil|Gap=10mil|Entries=4|*
%AMTHD106*
7,0,0,0.13087,0.11087,0.01000,45*
%
%ADD106THD106*%
G04:AMPARAMS|DCode=107|XSize=73.779mil|YSize=73.779mil|CornerRadius=0mil|HoleSize=0mil|Usage=FLASHONLY|Rotation=0.000|XOffset=0mil|YOffset=0mil|HoleType=Round|Shape=Relief|Width=10mil|Gap=10mil|Entries=4|*
%AMTHD107*
7,0,0,0.07378,0.05378,0.01000,45*
%
%ADD107THD107*%
%ADD108C,0.04787*%
%ADD109C,0.05378*%
%ADD110C,0.04984*%
D104*
X172165Y0D02*
G03*
X177165Y5000I0J5000D01*
G01*
Y172165D02*
G03*
X172165Y177165I-5000J0D01*
G01*
X5000D02*
G03*
X0Y172165I0J-5000D01*
G01*
Y5000D02*
G03*
X5000Y0I5000J0D01*
G01*
X172165D01*
X5000Y177165D02*
X172165D01*
X177165Y5000D02*
Y172165D01*
X0Y5000D02*
Y172165D01*
D105*
X80954Y20542D02*
D03*
X97292D02*
D03*
D106*
X167717Y10630D02*
D03*
X165354Y166142D02*
D03*
X12598Y164567D02*
D03*
X12992Y13386D02*
D03*
D107*
X70079Y138189D02*
D03*
X131595Y17618D02*
D03*
X30217Y65453D02*
D03*
X33169Y112894D02*
D03*
X39469Y122441D02*
D03*
X57677Y101378D02*
D03*
X50197Y114567D02*
D03*
X167126Y47047D02*
D03*
X141929Y44291D02*
D03*
X167126Y43209D02*
D03*
X143898Y25197D02*
D03*
D108*
X134547Y54823D02*
D03*
X77756Y94095D02*
D03*
X83604Y111396D02*
D03*
X35000Y67800D02*
D03*
X35200Y62900D02*
D03*
X170300Y41900D02*
D03*
X29100Y165900D02*
D03*
X153600Y147600D02*
D03*
X161000Y103100D02*
D03*
X139000Y104500D02*
D03*
X31100Y73600D02*
D03*
D109*
X78642Y103051D02*
D03*
X92914Y100786D02*
D03*
X94600Y107800D02*
D03*
X49114Y78347D02*
D03*
X40800Y99400D02*
D03*
X40900Y86000D02*
D03*
X41300Y76600D02*
D03*
X99300Y71300D02*
D03*
X101900Y103100D02*
D03*
X88800Y108300D02*
D03*
X129000Y74000D02*
D03*
X129100Y69500D02*
D03*
X130600Y49500D02*
D03*
X164500Y137300D02*
D03*
X133000Y110200D02*
D03*
X71700Y41300D02*
D03*
Y38600D02*
D03*
X90074Y52843D02*
D03*
X86250Y52943D02*
D03*
D110*
X45000Y92200D02*
D03*
X56300Y82700D02*
D03*
X47100Y94400D02*
D03*
X56600Y85500D02*
D03*
X56400Y88600D02*
D03*
X50200Y95800D02*
D03*
M02*
