G04*
G04 #@! TF.GenerationSoftware,Altium Limited,Altium Designer,24.10.1 (45)*
G04*
G04 Layer_Color=16711935*
%FSLAX25Y25*%
%MOIN*%
G70*
G04*
G04 #@! TF.SameCoordinates,1F7DBCF5-7643-4606-9888-D8ADD4ED05EF*
G04*
G04*
G04 #@! TF.FilePolarity,Positive*
G04*
G01*
G75*
%ADD10C,0.00787*%
%ADD13C,0.00394*%
%ADD14C,0.00600*%
%ADD17C,0.00500*%
%ADD141C,0.00300*%
%ADD142C,0.00000*%
%ADD143C,0.00100*%
G36*
X87807Y65005D02*
Y66811D01*
X90113D01*
Y65005D01*
X87807D01*
D02*
G37*
G36*
X87813Y57605D02*
Y59404D01*
X90113D01*
Y57605D01*
X87813D01*
D02*
G37*
G36*
X95714Y61305D02*
Y63105D01*
X98013D01*
Y61305D01*
X95714D01*
D02*
G37*
D10*
X133756Y123423D02*
G03*
X133756Y123423I-394J0D01*
G01*
X164328Y26553D02*
G03*
X164328Y26553I-394J0D01*
G01*
X72047Y118110D02*
G03*
X72047Y118110I-394J0D01*
G01*
X74864Y126368D02*
G03*
X74864Y126368I-394J0D01*
G01*
D13*
X74547Y157362D02*
G03*
X74547Y157362I-1969J0D01*
G01*
X45276Y144488D02*
G03*
X45276Y144488I-1969J0D01*
G01*
X49650Y121401D02*
Y133999D01*
X55950D01*
X49650Y121401D02*
X55950D01*
Y133999D01*
X36220Y134744D02*
X43307D01*
X36220Y140059D02*
X43307D01*
Y134744D02*
Y140059D01*
X36220Y134744D02*
Y140059D01*
X35167Y104117D02*
Y106283D01*
X31033Y104117D02*
Y106283D01*
Y104117D02*
X35167D01*
X31033Y106283D02*
X35167D01*
X7087Y141732D02*
X19685D01*
X7087D02*
Y148031D01*
X19685Y141732D02*
Y148031D01*
X7087D02*
X19685D01*
X7087Y116535D02*
X19685D01*
X7087D02*
Y122835D01*
X19685Y116535D02*
Y122835D01*
X7087D02*
X19685D01*
X7087Y124803D02*
X19685D01*
X7087D02*
Y131102D01*
X19685Y124803D02*
Y131102D01*
X7087D02*
X19685D01*
X7087Y133465D02*
X19685D01*
X7087D02*
Y139764D01*
X19685Y133465D02*
Y139764D01*
X7087D02*
X19685D01*
X56437Y145158D02*
Y160906D01*
X76122Y145158D02*
Y160906D01*
X56437Y145158D02*
X76122D01*
X56437Y160906D02*
X76122D01*
X46161Y169587D02*
X49902D01*
X46161Y162697D02*
X49902D01*
Y169587D01*
X46161Y162697D02*
Y169587D01*
X40650Y162697D02*
X44390D01*
X40650Y169587D02*
X44390D01*
X40650Y162697D02*
Y169587D01*
X44390Y162697D02*
Y169587D01*
X38287Y166634D02*
Y168799D01*
X34154Y166634D02*
Y168799D01*
Y166634D02*
X38287D01*
X34154Y168799D02*
X38287D01*
X31102Y160630D02*
X46850D01*
X31102Y140945D02*
X46850D01*
X31102D02*
Y160630D01*
X46850Y140945D02*
Y160630D01*
X33972Y164824D02*
X38028D01*
X33972Y162776D02*
X38028D01*
X33972D02*
Y164824D01*
X38028Y162776D02*
Y164824D01*
X78839Y144980D02*
X82579D01*
X78839Y151870D02*
X82579D01*
X78839Y144980D02*
Y151870D01*
X82579Y144980D02*
Y151870D01*
X74576Y106372D02*
X76624D01*
X74576Y110428D02*
X76624D01*
X74576Y106372D02*
Y110428D01*
X76624Y106372D02*
Y110428D01*
X48524Y106398D02*
X50689D01*
X48524Y102264D02*
X50689D01*
Y106398D01*
X48524Y102264D02*
Y106398D01*
X46693Y102461D02*
Y106516D01*
X44646Y102461D02*
Y106516D01*
X46693D01*
X44646Y102461D02*
X46693D01*
X61811Y98819D02*
X90158D01*
X61811Y70472D02*
X90158D01*
X61811D02*
Y98819D01*
X90158Y70472D02*
Y98819D01*
X58012Y99370D02*
X59311D01*
X58012Y96890D02*
X59311D01*
Y99370D01*
X58012Y96890D02*
Y99370D01*
X58071Y132874D02*
X64764D01*
X58071Y122244D02*
X64764D01*
Y132874D01*
X58071Y122244D02*
Y132874D01*
X67224Y133760D02*
X71358D01*
X67224Y131595D02*
X71358D01*
X67224D02*
Y133760D01*
X71358Y131595D02*
Y133760D01*
X66634Y127165D02*
X70374D01*
X66634Y120276D02*
X70374D01*
Y127165D01*
X66634Y120276D02*
Y127165D01*
X77559Y122835D02*
X83071D01*
Y134646D01*
X77559Y122835D02*
Y134646D01*
X83071D01*
X81398Y137303D02*
Y141437D01*
X79232Y137303D02*
Y141437D01*
X81398D01*
X79232Y137303D02*
X81398D01*
X85138Y141240D02*
X92028D01*
X85138Y137500D02*
X92028D01*
X85138D02*
Y141240D01*
X92028Y137500D02*
Y141240D01*
X91240Y130217D02*
Y134350D01*
X89075Y130217D02*
Y134350D01*
X91240D01*
X89075Y130217D02*
X91240D01*
X89075Y122736D02*
Y126870D01*
X91240Y122736D02*
Y126870D01*
X89075Y122736D02*
X91240D01*
X89075Y126870D02*
X91240D01*
X109744Y137106D02*
Y140847D01*
X102854Y137106D02*
Y140847D01*
Y137106D02*
X109744D01*
X102854Y140847D02*
X109744D01*
Y144587D02*
Y148327D01*
X102854Y144587D02*
Y148327D01*
Y144587D02*
X109744D01*
X102854Y148327D02*
X109744D01*
X109744Y152067D02*
Y155807D01*
X102854Y152067D02*
Y155807D01*
Y152067D02*
X109744D01*
X102854Y155807D02*
X109744D01*
Y158760D02*
Y162500D01*
X102854Y158760D02*
Y162500D01*
Y158760D02*
X109744D01*
X102854Y162500D02*
X109744D01*
X146161Y55276D02*
Y57323D01*
X150216Y55276D02*
Y57323D01*
X146161D02*
X150216D01*
X146161Y55276D02*
X150216D01*
X146004Y51339D02*
Y53386D01*
X150059Y51339D02*
Y53386D01*
X146004D02*
X150059D01*
X146004Y51339D02*
X150059D01*
X97342Y54626D02*
X99508D01*
X97342Y58760D02*
X99508D01*
X97342Y54626D02*
Y58760D01*
X99508Y54626D02*
Y58760D01*
X105413Y65059D02*
Y68799D01*
X98524Y65059D02*
Y68799D01*
Y65059D02*
X105413D01*
X98524Y68799D02*
X105413D01*
X102854Y53248D02*
Y59350D01*
X108957Y53248D02*
Y59350D01*
X102854D02*
X108957D01*
X102854Y53248D02*
X108957D01*
X111024Y53150D02*
Y60236D01*
X119685Y53150D02*
Y60236D01*
X111024D02*
X119685D01*
X111024Y53150D02*
X119685D01*
X107815Y45433D02*
X111870D01*
X107815Y47480D02*
X111870D01*
Y45433D02*
Y47480D01*
X107815Y45433D02*
Y47480D01*
X107776Y49311D02*
Y51476D01*
X111909Y49311D02*
Y51476D01*
X107776D02*
X111909D01*
X107776Y49311D02*
X111909D01*
X115453Y42224D02*
X119193D01*
X115453Y49114D02*
X119193D01*
X115453Y42224D02*
Y49114D01*
X119193Y42224D02*
Y49114D01*
X121752Y42224D02*
X125492D01*
X121752Y49114D02*
X125492D01*
X121752Y42224D02*
Y49114D01*
X125492Y42224D02*
Y49114D01*
X104182Y70D02*
X104871Y562D01*
X102706Y2432D02*
X104182Y70D01*
X103690Y2432D02*
X104871Y562D01*
X103690Y2432D02*
Y22117D01*
X74556D02*
X103690D01*
X74556Y2432D02*
Y22117D01*
X73375Y562D02*
X74556Y2432D01*
X74064Y70D02*
X75540Y2432D01*
X73375Y562D02*
X74064Y70D01*
X76918D02*
X101328D01*
Y2432D01*
X102706D01*
X76918Y70D02*
Y2432D01*
X75540D02*
X76918D01*
X75925Y25748D02*
X79980D01*
X75925Y27795D02*
X79980D01*
Y25748D02*
Y27795D01*
X75925Y25748D02*
Y27795D01*
X85532Y26280D02*
X87697D01*
X85532Y30413D02*
X87697D01*
X85532Y26280D02*
Y30413D01*
X87697Y26280D02*
Y30413D01*
X89468Y26280D02*
X91634D01*
X89468Y30413D02*
X91634D01*
X89468Y26280D02*
Y30413D01*
X91634Y26280D02*
Y30413D01*
X67087Y63484D02*
X69134D01*
X67087Y67539D02*
X69134D01*
X67087Y63484D02*
Y67539D01*
X69134Y63484D02*
Y67539D01*
X63150Y63484D02*
X65197D01*
X63150Y67539D02*
X65197D01*
X63150Y63484D02*
Y67539D01*
X65197Y63484D02*
Y67539D01*
X5296Y66918D02*
X7461D01*
X5296Y62784D02*
X7461D01*
Y66918D01*
X5296Y62784D02*
Y66918D01*
X10196Y66855D02*
X12361D01*
X10196Y62721D02*
X12361D01*
Y66855D01*
X10196Y62721D02*
Y66855D01*
X15296Y66887D02*
X17461D01*
X15296Y62753D02*
X17461D01*
Y66887D01*
X15296Y62753D02*
Y66887D01*
X22743Y66750D02*
Y68915D01*
X26877Y66750D02*
Y68915D01*
X22743D02*
X26877D01*
X22743Y66750D02*
X26877D01*
X22643Y71750D02*
Y73915D01*
X26777Y71750D02*
Y73915D01*
X22643D02*
X26777D01*
X22643Y71750D02*
X26777D01*
X28150Y116339D02*
X38780D01*
X28150Y109646D02*
X38780D01*
X28150D02*
Y116339D01*
X38780Y109646D02*
Y116339D01*
X27165Y124409D02*
X39764D01*
Y118110D02*
Y124409D01*
X27165Y118110D02*
Y124409D01*
Y118110D02*
X39764D01*
X27165Y133465D02*
X39764D01*
Y127165D02*
Y133465D01*
X27165Y127165D02*
Y133465D01*
Y127165D02*
X39764D01*
X140217Y86067D02*
X142383D01*
X140217Y81933D02*
X142383D01*
X140217D02*
Y86067D01*
X142383Y81933D02*
Y86067D01*
X143933Y68417D02*
Y70583D01*
X148067Y68417D02*
Y70583D01*
X143933Y68417D02*
X148067D01*
X143933Y70583D02*
X148067D01*
X143933Y72517D02*
Y74683D01*
X148067Y72517D02*
Y74683D01*
X143933Y72517D02*
X148067D01*
X143933Y74683D02*
X148067D01*
X145917Y86067D02*
X148083D01*
X145917Y81933D02*
X148083D01*
X145917D02*
Y86067D01*
X148083Y81933D02*
Y86067D01*
X102854Y46752D02*
X105020D01*
X102854Y50886D02*
X105020D01*
X102854Y46752D02*
Y50886D01*
X105020Y46752D02*
Y50886D01*
X57579Y106398D02*
X59744D01*
X57579Y102264D02*
X59744D01*
Y106398D01*
X57579Y102264D02*
Y106398D01*
X52461Y106102D02*
X56201D01*
X52461Y99213D02*
X56201D01*
Y106102D01*
X52461Y99213D02*
Y106102D01*
X32333Y104717D02*
Y106883D01*
X36467Y104717D02*
Y106883D01*
X32333Y104717D02*
X36467D01*
X32333Y106883D02*
X36467D01*
X32857Y97742D02*
X39943D01*
X32857Y103058D02*
X39943D01*
X32857Y97742D02*
Y103058D01*
X39943Y97742D02*
Y103058D01*
X27657Y105857D02*
Y112943D01*
X22343Y105857D02*
Y112943D01*
Y105857D02*
X27657D01*
X22343Y112943D02*
X27657D01*
X32337Y88143D02*
X39423D01*
X32337Y93458D02*
X39423D01*
X32337Y88143D02*
Y93458D01*
X39423Y88143D02*
Y93458D01*
X31802Y94217D02*
Y96383D01*
X35935Y94217D02*
Y96383D01*
X31802Y94217D02*
X35935D01*
X31802Y96383D02*
X35935D01*
X31433Y84317D02*
Y86483D01*
X35567Y84317D02*
Y86483D01*
X31433Y84317D02*
X35567D01*
X31433Y86483D02*
X35567D01*
X22142Y67357D02*
Y74443D01*
X27457Y67357D02*
Y74443D01*
X22142D02*
X27457D01*
X22142Y67357D02*
X27457D01*
X108076Y23072D02*
Y27128D01*
X110124Y23072D02*
Y27128D01*
X108076D02*
X110124D01*
X108076Y23072D02*
X110124D01*
X147230Y24955D02*
Y31845D01*
X150970Y24955D02*
Y31845D01*
X147230D02*
X150970D01*
X147230Y24955D02*
X150970D01*
X156375Y46336D02*
X163265D01*
X156375Y50076D02*
X163265D01*
X156375Y46336D02*
Y50076D01*
X163265Y46336D02*
Y50076D01*
X150170Y37955D02*
Y44845D01*
X146430Y37955D02*
Y44845D01*
Y37955D02*
X150170D01*
X146430Y44845D02*
X150170D01*
X57972Y110531D02*
Y114665D01*
X60138Y110531D02*
Y114665D01*
X57972Y110531D02*
X60138D01*
X57972Y114665D02*
X60138D01*
X53248Y114665D02*
X55413D01*
X53248Y110531D02*
X55413D01*
Y114665D01*
X53248Y110531D02*
Y114665D01*
X78445Y161516D02*
Y168405D01*
X82185Y161516D02*
Y168405D01*
X78445Y161516D02*
X82185D01*
X78445Y168405D02*
X82185D01*
X85138Y161516D02*
Y168405D01*
X88878Y161516D02*
Y168405D01*
X85138Y161516D02*
X88878D01*
X85138Y168405D02*
X88878D01*
X92618Y161909D02*
Y168799D01*
X96358Y161909D02*
Y168799D01*
X92618Y161909D02*
X96358D01*
X92618Y168799D02*
X96358D01*
X26280Y135925D02*
Y138091D01*
X30413Y135925D02*
Y138091D01*
X26280D02*
X30413D01*
X26280Y135925D02*
X30413D01*
X34224Y147872D02*
Y151928D01*
X32176Y147872D02*
Y151928D01*
Y147872D02*
X34224D01*
X32176Y151928D02*
X34224D01*
X103576Y23072D02*
X105624D01*
X103576Y27128D02*
X105624D01*
Y23072D02*
Y27128D01*
X103576Y23072D02*
Y27128D01*
X57733Y169817D02*
Y171983D01*
X61867Y169817D02*
Y171983D01*
X57733Y169817D02*
X61867D01*
X57733Y171983D02*
X61867D01*
X88058Y142043D02*
Y146098D01*
X86010Y142043D02*
Y146098D01*
Y142043D02*
X88058D01*
X86010Y146098D02*
X88058D01*
X80558Y141975D02*
Y146030D01*
X78510Y141975D02*
Y146030D01*
Y141975D02*
X80558D01*
X78510Y146030D02*
X80558D01*
X76598Y139088D02*
X89590D01*
X76598Y128852D02*
X89590D01*
Y139088D01*
X76598Y128852D02*
Y139088D01*
X163155Y110970D02*
X170045D01*
X163155Y107230D02*
X170045D01*
Y110970D01*
X163155Y107230D02*
Y110970D01*
X130330Y132555D02*
Y139445D01*
X134070Y132555D02*
Y139445D01*
X130330D02*
X134070D01*
X130330Y132555D02*
X134070D01*
X163655Y117470D02*
X170545D01*
X163655Y113730D02*
X170545D01*
Y117470D01*
X163655Y113730D02*
Y117470D01*
X117210Y112298D02*
X119257D01*
X117210Y108242D02*
X119257D01*
X117210D02*
Y112298D01*
X119257Y108242D02*
Y112298D01*
X97076Y130428D02*
X99124D01*
X97076Y126372D02*
X99124D01*
X97076D02*
Y130428D01*
X99124Y126372D02*
Y130428D01*
X60172Y113976D02*
Y116024D01*
X64228Y113976D02*
Y116024D01*
X60172Y113976D02*
X64228D01*
X60172Y116024D02*
X64228D01*
X70072Y124376D02*
Y126424D01*
X74128Y124376D02*
Y126424D01*
X70072Y124376D02*
X74128D01*
X70072Y126424D02*
X74128D01*
X111676Y75372D02*
X113724D01*
X111676Y79428D02*
X113724D01*
Y75372D02*
Y79428D01*
X111676Y75372D02*
Y79428D01*
X69410Y67310D02*
X71457D01*
X69410Y71365D02*
X71457D01*
Y67310D02*
Y71365D01*
X69410Y67310D02*
Y71365D01*
X64810Y67343D02*
X66857D01*
X64810Y71398D02*
X66857D01*
Y67343D02*
Y71398D01*
X64810Y67343D02*
Y71398D01*
X39755Y166470D02*
X46645D01*
X39755Y162730D02*
X46645D01*
Y166470D01*
X39755Y162730D02*
Y166470D01*
X38842Y155274D02*
Y159408D01*
X41007Y155274D02*
Y159408D01*
X38842D02*
X41007D01*
X38842Y155274D02*
X41007D01*
X94210Y147002D02*
Y149049D01*
X98265Y147002D02*
Y149049D01*
X94210Y147002D02*
X98265D01*
X94210Y149049D02*
X98265D01*
X120176Y84728D02*
X122224D01*
X120176Y80672D02*
X122224D01*
X120176D02*
Y84728D01*
X122224Y80672D02*
Y84728D01*
X45489Y150055D02*
X49623D01*
X45489Y147890D02*
X49623D01*
Y150055D01*
X45489Y147890D02*
Y150055D01*
X39655Y172370D02*
X46545D01*
X39655Y168630D02*
X46545D01*
Y172370D01*
X39655Y168630D02*
Y172370D01*
X27338Y151692D02*
X29385D01*
X27338Y147637D02*
X29385D01*
X27338D02*
Y151692D01*
X29385Y147637D02*
Y151692D01*
D14*
X95513Y56014D02*
Y68395D01*
X90313D02*
X95513D01*
X90313Y56014D02*
Y68395D01*
Y56014D02*
X95513D01*
D17*
X138736Y119112D02*
Y142734D01*
X170232D01*
Y119112D02*
Y142734D01*
X138736Y119112D02*
X170232D01*
X154091Y30096D02*
X165902D01*
X154091D02*
Y41907D01*
X165902D01*
Y30096D02*
Y41907D01*
X61221Y105512D02*
Y111811D01*
Y105512D02*
X72638D01*
Y111811D01*
X61221D02*
X72638D01*
X88757Y169679D02*
X99781D01*
X88757Y153143D02*
Y169679D01*
Y153143D02*
X99781D01*
Y169679D01*
X72511Y135325D02*
Y168790D01*
X58338D02*
X72511D01*
X58338Y135325D02*
Y168790D01*
Y135325D02*
X72511D01*
X108919Y77785D02*
Y117155D01*
X69549Y77785D02*
Y117155D01*
Y77785D02*
X108919D01*
X69549Y117155D02*
X108919D01*
D141*
X50550Y156231D02*
X47217Y159564D01*
Y156231D02*
X50550Y159564D01*
X48883Y156231D02*
Y159564D01*
X47217Y157898D02*
X50550D01*
D142*
X37096Y76771D02*
G03*
X37096Y76771I-300J0D01*
G01*
X35846Y75390D02*
G03*
X33446Y75390I-1200J0D01*
G01*
X36902Y86220D02*
G03*
X36902Y86220I-300J0D01*
G01*
X35652Y84839D02*
G03*
X33252Y84839I-1200J0D01*
G01*
X36902Y95669D02*
G03*
X36902Y95669I-300J0D01*
G01*
X35652Y94288D02*
G03*
X33252Y94288I-1200J0D01*
G01*
D143*
X32096Y82090D02*
X37196D01*
X32096Y75390D02*
Y82090D01*
Y75390D02*
X37196D01*
Y82090D01*
X31902Y91539D02*
X37002D01*
X31902Y84839D02*
Y91539D01*
Y84839D02*
X37002D01*
Y91539D01*
X31902Y100988D02*
X37002D01*
X31902Y94288D02*
Y100988D01*
Y94288D02*
X37002D01*
Y100988D01*
X46950Y152882D02*
X51950Y157881D01*
Y158400D02*
Y159400D01*
X51550D02*
X51950D01*
X51550Y158400D02*
Y159400D01*
Y158400D02*
X51950D01*
Y156431D02*
Y157431D01*
X51550D02*
X51950D01*
X51550Y156431D02*
Y157431D01*
Y156431D02*
X51950D01*
Y154463D02*
Y155463D01*
X51550D02*
X51950D01*
X51550Y154463D02*
Y155463D01*
Y154463D02*
X51950D01*
X48384Y152882D02*
X49384D01*
Y153281D01*
X48384D02*
X49384D01*
X48384Y152882D02*
Y153281D01*
X46416Y152882D02*
X47416D01*
Y153281D01*
X46416D02*
X47416D01*
X46416Y152882D02*
Y153281D01*
X43850Y154463D02*
Y155463D01*
Y154463D02*
X44250D01*
Y155463D01*
X43850D02*
X44250D01*
X43850Y156431D02*
Y157431D01*
Y156431D02*
X44250D01*
Y157431D01*
X43850D02*
X44250D01*
X43850Y158400D02*
Y159400D01*
Y158400D02*
X44250D01*
Y159400D01*
X43850D02*
X44250D01*
X46416Y160982D02*
X47416D01*
X46416Y160582D02*
Y160982D01*
Y160582D02*
X47416D01*
Y160982D01*
X48384D02*
X49384D01*
X48384Y160582D02*
Y160982D01*
Y160582D02*
X49384D01*
Y160982D01*
X43850Y152882D02*
Y160982D01*
X51950D01*
Y152882D02*
Y160982D01*
X43850Y152882D02*
X51950D01*
M02*
